<svg width="86" height="86" viewBox="0 0 86 86" fill="none" xmlns="http://www.w3.org/2000/svg">
<path d="M51.3649 28.9575C51.0962 28.7559 50.7938 28.588 50.4915 28.3864C49.9876 28.0841 49.3493 28.0841 48.8118 28.3528C48.2743 28.6552 47.972 29.1927 47.972 29.7974V39.3716C47.972 40.1778 47.3337 40.8161 46.5274 40.8161H39.4392C38.6665 40.8161 37.9946 40.1778 37.9946 39.3716V29.8309C37.9946 29.2263 37.6587 28.6888 37.1548 28.3864C36.6173 28.0841 35.979 28.1177 35.4751 28.42C35.1728 28.6216 34.8704 28.8231 34.5681 29.0247C30.7384 31.7458 28.4204 36.1802 28.4204 40.9169C28.4204 41.1184 28.4204 41.2864 28.4204 41.3872C28.5548 46.0231 30.8392 50.1888 34.6353 52.8763C34.9712 53.1114 35.3071 53.313 35.6095 53.5145V72.4614C35.5423 76.3583 38.5657 79.6841 42.4962 80.0536C42.6306 80.0536 42.7985 80.0536 42.9329 80.0536H42.9665C47.0313 80.0536 50.3235 76.7614 50.3235 72.6966V53.5145C50.6259 53.3466 50.8946 53.145 51.197 52.9434C55.0938 50.2895 57.4454 45.8888 57.5126 41.2864C57.5126 41.152 57.5126 41.0513 57.5126 40.9169V40.8833C57.5798 36.1466 55.2282 31.6786 51.3649 28.9575ZM54.254 41.1184C54.1868 44.7466 52.3728 48.1395 49.3829 50.1888C48.9126 50.5247 48.4423 50.7934 47.972 51.0286C47.4009 51.2973 47.0649 51.8684 47.0649 52.5067V72.663C47.0649 74.8802 45.2509 76.6942 43.0001 76.6942C43.0001 76.6942 43.0001 76.6942 42.9665 76.6942C42.8657 76.6942 42.7985 76.6942 42.7649 76.6942C40.5813 76.4927 38.9017 74.645 38.9353 72.4614V52.5067C38.9353 51.8684 38.5657 51.2973 37.9946 51.0286C37.4907 50.7934 37.0204 50.4911 36.5165 50.1552C33.5938 48.1059 31.847 44.8809 31.7126 41.1856C31.7126 41.1184 31.7126 41.0177 31.7126 40.9169C31.7126 38.095 32.7876 35.3739 34.6688 33.3583V39.4388C34.6688 42.0591 36.7853 44.1755 39.4056 44.1755H46.4938C49.1142 44.1755 51.2306 42.0591 51.2306 39.4388V33.2911C53.1118 35.3403 54.1868 38.0278 54.1868 40.8833L54.254 41.1184Z" fill="url(#paint0_linear_40_23)" stroke="url(#paint1_linear_40_23)"/>
<path d="M81.0617 31.2084C78.9789 26.3037 75.9891 21.8693 72.2266 18.0732C68.4305 14.2771 64.0297 11.3209 59.0914 9.23809C53.9852 7.08809 48.5766 5.97949 43 5.97949C37.4234 5.97949 32.0148 7.08809 26.9086 9.23809C22.0039 11.3209 17.5695 14.3107 13.7734 18.0732C10.0109 21.8693 7.02109 26.3037 4.93828 31.2084C2.78828 36.3146 1.67969 41.7232 1.67969 47.2998V71.4537C1.67969 71.5209 1.67969 71.6217 1.71328 71.6889C1.81406 73.8389 2.95625 75.7873 4.80391 76.9631L9.30547 79.785C9.57422 79.9529 9.87656 80.0537 10.1789 80.0537H16.8305C18.9133 80.0537 20.6266 78.3404 20.6266 76.2576V54.4217C20.6266 52.3389 18.9133 50.6256 16.8305 50.6256H11.657C10.75 50.6256 10.0109 51.3647 10.0109 52.2717C10.0109 53.1787 10.75 53.9178 11.657 53.9178H16.8305C17.0992 53.9178 17.3008 54.1193 17.3008 54.3881V76.1904C17.3008 76.4592 17.0992 76.6607 16.8305 76.6607H10.6828L6.58437 74.1076C5.64375 73.5365 5.07266 72.4951 5.03906 71.3865C5.03906 71.3193 5.03906 71.2857 5.03906 71.2186V47.2662C5.03906 42.1264 6.04688 37.1545 8.02891 32.485C9.94375 27.9498 12.6648 23.885 16.1586 20.4248C19.6187 16.9646 23.6836 14.21 28.2188 12.2951C32.8883 10.3131 37.8602 9.30527 43 9.30527C48.1398 9.30527 53.1117 10.3131 57.7812 12.2951C62.3164 14.21 66.3812 16.9311 69.8414 20.4248C73.3352 23.9186 76.0563 27.9834 77.9711 32.485C79.9531 37.1545 80.9609 42.16 80.9609 47.2662V71.2186C80.9609 71.2857 80.9609 71.3193 80.9609 71.3865C80.9273 72.4951 80.3562 73.5029 79.4156 74.1076L75.3172 76.6607H69.1359C68.8672 76.6607 68.6656 76.4592 68.6656 76.1904V54.4217C68.6656 54.1529 68.8672 53.9514 69.1359 53.9514H74.3094C75.2164 53.9514 75.9555 53.2123 75.9555 52.3053C75.9555 51.3982 75.2164 50.6592 74.3094 50.6592H69.1359C67.0531 50.6592 65.3398 52.3725 65.3398 54.4553V76.2576C65.3398 78.3404 67.0531 80.0537 69.1359 80.0537H75.7875C76.0898 80.0537 76.3922 79.9529 76.6609 79.785L81.1625 76.9631C83.0102 75.8209 84.1523 73.8725 84.2531 71.7225C84.2531 71.6553 84.2867 71.5545 84.2867 71.4873V47.3334C84.2867 41.7232 83.2117 36.3146 81.0617 31.2084Z" fill="url(#paint2_linear_40_23)" stroke="url(#paint3_linear_40_23)"/>
<defs>
<linearGradient id="paint0_linear_40_23" x1="37.6334" y1="144.927" x2="-13.0054" y2="131.406" gradientUnits="userSpaceOnUse">
<stop stop-color="#1210CA"/>
<stop offset="1" stop-color="#FE7CFC"/>
</linearGradient>
<linearGradient id="paint1_linear_40_23" x1="37.6334" y1="144.927" x2="-13.0054" y2="131.406" gradientUnits="userSpaceOnUse">
<stop stop-color="#1210CA"/>
<stop offset="1" stop-color="#FE7CFC"/>
</linearGradient>
<linearGradient id="paint2_linear_40_23" x1="27.8386" y1="172.646" x2="-92.2985" y2="108.834" gradientUnits="userSpaceOnUse">
<stop stop-color="#1210CA"/>
<stop offset="1" stop-color="#FE7CFC"/>
</linearGradient>
<linearGradient id="paint3_linear_40_23" x1="27.8386" y1="172.646" x2="-92.2985" y2="108.834" gradientUnits="userSpaceOnUse">
<stop stop-color="#1210CA"/>
<stop offset="1" stop-color="#FE7CFC"/>
</linearGradient>
</defs>
</svg>
