<svg width="42" height="42" viewBox="0 0 42 42" fill="none" xmlns="http://www.w3.org/2000/svg">
<g clip-path="url(#clip0_1_37)">
<path d="M21 32.8125V38.0625" stroke="white" stroke-width="3" stroke-linecap="round" stroke-linejoin="round"/>
<path d="M21 27.5625C27.5239 27.5625 32.8125 22.2739 32.8125 15.75C32.8125 9.22614 27.5239 3.9375 21 3.9375C14.4761 3.9375 9.1875 9.22614 9.1875 15.75C9.1875 22.2739 14.4761 27.5625 21 27.5625Z" stroke="white" stroke-width="3" stroke-linecap="round" stroke-linejoin="round"/>
<path d="M33.0586 27.8086C29.8604 31.0067 25.5228 32.8034 21 32.8034C16.4771 32.8034 12.1395 31.0067 8.9414 27.8086C5.74326 24.6105 3.94656 20.2729 3.94656 15.75C3.94656 11.2271 5.74326 6.88954 8.9414 3.69141" stroke="white" stroke-width="3" stroke-linecap="round" stroke-linejoin="round"/>
<path d="M15.75 38.0625H26.25" stroke="white" stroke-width="3" stroke-linecap="round" stroke-linejoin="round"/>
</g>
<defs>
<clipPath id="clip0_1_37">
<rect width="42" height="42" fill="white"/>
</clipPath>
</defs>
</svg>
