<svg width="84" height="76" viewBox="0 0 84 76" fill="none" xmlns="http://www.w3.org/2000/svg">
<path d="M50.3648 23.9578C50.0961 23.7563 49.7938 23.5883 49.4914 23.3867C48.9875 23.0844 48.3492 23.0844 47.8117 23.3531C47.2742 23.6555 46.9719 24.193 46.9719 24.7977V34.3719C46.9719 35.1781 46.3336 35.8164 45.5273 35.8164H38.4391C37.6664 35.8164 36.9945 35.1781 36.9945 34.3719V24.8313C36.9945 24.2266 36.6586 23.6891 36.1547 23.3867C35.6172 23.0844 34.9789 23.118 34.475 23.4203C34.1727 23.6219 33.8703 23.8234 33.568 24.025C29.7383 26.7461 27.4203 31.1805 27.4203 35.9172C27.4203 36.1188 27.4203 36.2867 27.4203 36.3875C27.5547 41.0234 29.8391 45.1891 33.6352 47.8766C33.9711 48.1117 34.307 48.3133 34.6094 48.5148V67.4617C34.5422 71.3586 37.5656 74.6844 41.4961 75.0539C41.6305 75.0539 41.7984 75.0539 41.9328 75.0539H41.9664C46.0312 75.0539 49.3234 71.7617 49.3234 67.6969V48.5148C49.6258 48.3469 49.8945 48.1453 50.1969 47.9438C54.0937 45.2898 56.4453 40.8891 56.5125 36.2867C56.5125 36.1523 56.5125 36.0516 56.5125 35.9172V35.8836C56.5797 31.1469 54.2281 26.6789 50.3648 23.9578ZM53.2539 36.1188C53.1867 39.7469 51.3727 43.1398 48.3828 45.1891C47.9125 45.525 47.4422 45.7937 46.9719 46.0289C46.4008 46.2977 46.0648 46.8688 46.0648 47.507V67.6633C46.0648 69.8805 44.2508 71.6945 42 71.6945C42 71.6945 42 71.6945 41.9664 71.6945C41.8656 71.6945 41.7984 71.6945 41.7648 71.6945C39.5813 71.493 37.9016 69.6453 37.9352 67.4617V47.507C37.9352 46.8688 37.5656 46.2977 36.9945 46.0289C36.4906 45.7937 36.0203 45.4914 35.5164 45.1555C32.5937 43.1063 30.8469 39.8813 30.7125 36.1859C30.7125 36.1188 30.7125 36.018 30.7125 35.9172C30.7125 33.0953 31.7875 30.3742 33.6687 28.3586V34.4391C33.6687 37.0594 35.7852 39.1758 38.4055 39.1758H45.4937C48.1141 39.1758 50.2305 37.0594 50.2305 34.4391V28.2914C52.1117 30.3406 53.1867 33.0281 53.1867 35.8836L53.2539 36.1188Z" fill="url(#paint0_linear_1_12)" stroke="url(#paint1_linear_1_12)"/>
<path d="M80.0617 26.2086C77.9789 21.3039 74.9891 16.8695 71.2266 13.0734C67.4305 9.27735 63.0297 6.3211 58.0914 4.23828C52.9852 2.08828 47.5766 0.979691 42 0.979691C36.4234 0.979691 31.0148 2.08828 25.9086 4.23828C21.0039 6.3211 16.5695 9.31094 12.7734 13.0734C9.01094 16.8695 6.02109 21.3039 3.93828 26.2086C1.78828 31.3148 0.679688 36.7234 0.679688 42.3V66.4539C0.679688 66.5211 0.679687 66.6219 0.713281 66.6891C0.814062 68.8391 1.95625 70.7875 3.80391 71.9633L8.30547 74.7852C8.57422 74.9531 8.87656 75.0539 9.17891 75.0539H15.8305C17.9133 75.0539 19.6266 73.3406 19.6266 71.2578V49.4219C19.6266 47.3391 17.9133 45.6258 15.8305 45.6258H10.657C9.75 45.6258 9.01094 46.3648 9.01094 47.2719C9.01094 48.1789 9.75 48.918 10.657 48.918H15.8305C16.0992 48.918 16.3008 49.1195 16.3008 49.3883V71.1906C16.3008 71.4594 16.0992 71.6609 15.8305 71.6609H9.68281L5.58438 69.1078C4.64375 68.5367 4.07266 67.4953 4.03906 66.3867C4.03906 66.3195 4.03906 66.2859 4.03906 66.2188V42.2664C4.03906 37.1266 5.04687 32.1547 7.02891 27.4852C8.94375 22.95 11.6648 18.8852 15.1586 15.425C18.6187 11.9648 22.6836 9.21016 27.2188 7.29532C31.8883 5.31328 36.8602 4.30547 42 4.30547C47.1398 4.30547 52.1117 5.31328 56.7812 7.29532C61.3164 9.21016 65.3812 11.9313 68.8414 15.425C72.3352 18.9188 75.0563 22.9836 76.9711 27.4852C78.9531 32.1547 79.9609 37.1602 79.9609 42.2664V66.2188C79.9609 66.2859 79.9609 66.3195 79.9609 66.3867C79.9273 67.4953 79.3562 68.5031 78.4156 69.1078L74.3172 71.6609H68.1359C67.8672 71.6609 67.6656 71.4594 67.6656 71.1906V49.4219C67.6656 49.1531 67.8672 48.9516 68.1359 48.9516H73.3094C74.2164 48.9516 74.9555 48.2125 74.9555 47.3055C74.9555 46.3984 74.2164 45.6594 73.3094 45.6594H68.1359C66.0531 45.6594 64.3398 47.3727 64.3398 49.4555V71.2578C64.3398 73.3406 66.0531 75.0539 68.1359 75.0539H74.7875C75.0898 75.0539 75.3922 74.9531 75.6609 74.7852L80.1625 71.9633C82.0102 70.8211 83.1523 68.8727 83.2531 66.7227C83.2531 66.6555 83.2867 66.5547 83.2867 66.4875V42.3336C83.2867 36.7234 82.2117 31.3148 80.0617 26.2086Z" fill="url(#paint2_linear_1_12)" stroke="url(#paint3_linear_1_12)"/>
<defs>
<linearGradient id="paint0_linear_1_12" x1="36.6333" y1="139.927" x2="-14.0055" y2="126.406" gradientUnits="userSpaceOnUse">
<stop stop-color="#1210CA"/>
<stop offset="1" stop-color="#FE7CFC"/>
</linearGradient>
<linearGradient id="paint1_linear_1_12" x1="36.6333" y1="139.927" x2="-14.0055" y2="126.406" gradientUnits="userSpaceOnUse">
<stop stop-color="#1210CA"/>
<stop offset="1" stop-color="#FE7CFC"/>
</linearGradient>
<linearGradient id="paint2_linear_1_12" x1="26.8386" y1="167.647" x2="-93.2985" y2="103.834" gradientUnits="userSpaceOnUse">
<stop stop-color="#1210CA"/>
<stop offset="1" stop-color="#FE7CFC"/>
</linearGradient>
<linearGradient id="paint3_linear_1_12" x1="26.8386" y1="167.647" x2="-93.2985" y2="103.834" gradientUnits="userSpaceOnUse">
<stop stop-color="#1210CA"/>
<stop offset="1" stop-color="#FE7CFC"/>
</linearGradient>
</defs>
</svg>
