<svg width="86" height="86" viewBox="0 0 86 86" fill="none" xmlns="http://www.w3.org/2000/svg">
<path d="M83.2082 20.5791L72.4188 6.00208C71.092 4.14711 69.3422 2.63507 67.3144 1.59127C65.2866 0.547469 63.0393 0.00197654 60.7587 -1.31416e-06H25.2478C22.9783 -0.0021316 20.7406 0.534715 18.7191 1.56636C16.6975 2.598 14.9499 4.09494 13.6199 5.934L2.63698 20.6149C0.848769 23.1365 -0.0747232 26.1693 0.00472924 29.2596C0.0841817 32.3498 1.1623 35.3312 3.07773 37.7576L34.5824 81.9329C35.5864 83.2043 36.8661 84.2309 38.3248 84.9355C39.7835 85.64 41.3833 86.004 43.0032 86C44.651 85.9967 46.2761 85.6154 47.7533 84.8855C49.2306 84.1555 50.5207 83.0964 51.5244 81.7896L82.7782 38.1052C84.7794 35.6434 85.9073 32.5872 85.9852 29.4155C86.063 26.2439 85.0863 23.1361 83.2082 20.5791ZM66.6246 10.2161L77.4391 24.8289C77.4964 24.9077 77.5107 25.0009 77.5681 25.0833H60.0384L54.9214 7.16666H60.7587C61.9087 7.17023 63.0413 7.44889 64.0617 7.97938C65.0822 8.50986 65.9609 9.27677 66.6246 10.2161ZM43.0032 68.5062L33.3282 32.25H52.6782L43.0032 68.5062ZM33.4214 25.0833L38.5384 7.16666H47.4681L52.5851 25.0833H33.4214ZM19.4141 10.1659C20.079 9.23922 20.9548 8.48396 21.9691 7.96246C22.9835 7.44097 24.1073 7.16819 25.2478 7.16666H31.0851L25.9681 25.0833H8.3094C8.35957 25.0045 8.3739 24.9077 8.43123 24.8325L19.4141 10.1659ZM8.77523 33.4146C8.5165 33.0491 8.29445 32.659 8.11231 32.25H25.9179L36.6464 72.4908L8.77523 33.4146ZM49.3493 72.5267L60.0993 32.25H77.9658C77.7349 32.7849 77.4427 33.2911 77.0951 33.7586L49.3493 72.5267Z" fill="white"/>
</svg>
