<svg width="42" height="42" viewBox="0 0 42 42" fill="none" xmlns="http://www.w3.org/2000/svg">
<g clip-path="url(#clip0_1_31)">
<path d="M31.5 27.5625H27.5625C26.8663 27.5625 26.1986 27.2859 25.7063 26.7937C25.2141 26.3014 24.9375 25.6337 24.9375 24.9375V17.0625C24.9375 16.3663 25.2141 15.6986 25.7063 15.2063C26.1986 14.7141 26.8663 14.4375 27.5625 14.4375H31.5C32.1962 14.4375 32.8639 14.7141 33.3562 15.2063C33.8484 15.6986 34.125 16.3663 34.125 17.0625V24.9375C34.125 25.6337 33.8484 26.3014 33.3562 26.7937C32.8639 27.2859 32.1962 27.5625 31.5 27.5625ZM27.5625 17.0625V24.9375H31.5V17.0625H27.5625Z" fill="white"/>
<path d="M19.6875 27.5625H13.125V24.9375H19.6875V22.3125H15.75C15.0538 22.3125 14.3861 22.0359 13.8938 21.5437C13.4016 21.0514 13.125 20.3837 13.125 19.6875V17.0625C13.125 16.3663 13.4016 15.6986 13.8938 15.2063C14.3861 14.7141 15.0538 14.4375 15.75 14.4375H22.3125V17.0625H15.75V19.6875H19.6875C20.3837 19.6875 21.0514 19.9641 21.5437 20.4563C22.0359 20.9486 22.3125 21.6163 22.3125 22.3125V24.9375C22.3125 25.6337 22.0359 26.3014 21.5437 26.7937C21.0514 27.2859 20.3837 27.5625 19.6875 27.5625Z" fill="white"/>
<path d="M10.5 14.4375H7.875V27.5625H10.5V14.4375Z" fill="white"/>
<path d="M36.75 7.875H5.25C4.55381 7.875 3.88613 8.15156 3.39384 8.64384C2.90156 9.13613 2.625 9.80381 2.625 10.5V31.5C2.625 32.1962 2.90156 32.8639 3.39384 33.3562C3.88613 33.8484 4.55381 34.125 5.25 34.125H36.75C37.4462 34.125 38.1139 33.8484 38.6062 33.3562C39.0984 32.8639 39.375 32.1962 39.375 31.5V10.5C39.375 9.80381 39.0984 9.13613 38.6062 8.64384C38.1139 8.15156 37.4462 7.875 36.75 7.875ZM5.25 31.5V10.5H36.75V31.5H5.25Z" fill="white"/>
</g>
<defs>
<clipPath id="clip0_1_31">
<rect width="42" height="42" fill="white"/>
</clipPath>
</defs>
</svg>
