<svg width="86" height="86" viewBox="0 0 86 86" fill="none" xmlns="http://www.w3.org/2000/svg">
<g clip-path="url(#clip0_40_20)">
<path d="M25.2437 0.5H60.7544L61.1675 0.506836C63.0891 0.565779 64.9776 1.02394 66.7124 1.85254L67.0825 2.03613C68.9171 2.98059 70.5164 4.32185 71.7642 5.96094L72.0083 6.29297L72.0132 6.2998L82.8032 20.877C84.5016 23.1901 85.4356 25.9701 85.4839 28.8301L85.4819 29.4033C85.4068 32.4643 84.3186 35.4141 82.3872 37.79L82.3774 37.8018L82.3687 37.8145L51.1245 81.4854C50.1675 82.7314 48.9374 83.7415 47.5288 84.4375C46.1201 85.1336 44.5698 85.4969 42.9985 85.5C41.4543 85.5038 39.9291 85.157 38.5386 84.4854C37.1506 83.8149 35.9323 82.8387 34.9761 81.6299L3.48096 37.4668L3.47412 37.457L3.46631 37.4482L3.12939 37.0029C1.60085 34.897 0.698848 32.4012 0.526855 29.8047L0.501465 29.2471C0.424789 26.2648 1.3158 23.3377 3.0415 20.9043L3.04053 20.9033L14.0171 6.2334L14.022 6.22656C15.2253 4.56278 16.7831 3.18963 18.5806 2.2041L18.9429 2.01172C20.7719 1.07831 22.7843 0.564753 24.8335 0.505859L25.2437 0.5ZM59.6128 32.1211L48.8628 72.3975L49.7524 72.8174L77.4985 34.0498L77.4976 34.0488C77.8658 33.5524 78.1764 33.0158 78.4214 32.4482L78.7231 31.75H59.7114L59.6128 32.1211ZM7.65186 32.4531C7.79846 32.7824 7.96928 33.1005 8.1626 33.4043L8.36377 33.7031L8.36475 33.7051L36.2358 72.7812L37.1265 72.3623L26.3979 32.1211L26.2983 31.75H7.33936L7.65186 32.4531ZM32.8413 32.3789L42.5171 68.6348L42.9995 70.4453L43.4829 68.6348L53.1577 32.3789L53.3257 31.75H32.6743L32.8413 32.3789ZM25.2437 6.66699C24.1762 6.66843 23.1225 6.8917 22.1489 7.32129L21.7368 7.51758C20.655 8.0738 19.7206 8.87886 19.0103 9.86621L8.02979 24.5293C7.95423 24.6285 7.91557 24.7319 7.89893 24.7744C7.87486 24.8359 7.87727 24.8255 7.88428 24.8145L7.39502 25.583H26.3423L26.4458 25.2207L31.562 7.30371L31.7446 6.66699H25.2437ZM38.0542 7.0293L32.937 24.9463L32.7554 25.583H53.2446L53.062 24.9463L47.9458 7.0293L47.8423 6.66699H38.1577L38.0542 7.0293ZM54.437 7.30371L59.5542 25.2207L59.6577 25.583H78.522L77.9751 24.7979C77.9825 24.8085 77.9834 24.8156 77.9624 24.7646C77.9547 24.746 77.9415 24.7118 77.9214 24.6709L77.8403 24.5352L77.8374 24.5312L67.0229 9.91895C66.4029 9.04389 65.6085 8.30866 64.6909 7.75977L64.2886 7.53613C63.3339 7.03987 62.2877 6.74903 61.2173 6.68164L60.7563 6.66699H54.2554L54.437 7.30371Z" fill="white" stroke="url(#paint0_linear_40_20)"/>
</g>
<defs>
<linearGradient id="paint0_linear_40_20" x1="27.2266" y1="193.5" x2="-103.47" y2="131.257" gradientUnits="userSpaceOnUse">
<stop stop-color="#1210CA"/>
<stop offset="1" stop-color="#FE7CFC"/>
</linearGradient>
<clipPath id="clip0_40_20">
<rect width="86" height="86" fill="white"/>
</clipPath>
</defs>
</svg>
