<svg width="86" height="86" viewBox="0 0 86 86" fill="none" xmlns="http://www.w3.org/2000/svg">
<path d="M83.205 20.5791L72.4156 6.00208C71.0888 4.14711 69.339 2.63507 67.3112 1.59127C65.2834 0.547469 63.0361 0.00197654 60.7554 -1.31416e-06H25.2446C22.975 -0.0021316 20.7374 0.534715 18.7158 1.56636C16.6943 2.598 14.9466 4.09494 13.6167 5.934L2.63375 20.6149C0.845534 23.1365 -0.0779581 26.1693 0.00149438 29.2596C0.0809468 32.3498 1.15907 35.3312 3.0745 37.7576L34.5792 81.9329C35.5832 83.2043 36.8628 84.2309 38.3216 84.9355C39.7803 85.64 41.38 86.004 43 86C44.6478 85.9967 46.2728 85.6154 47.7501 84.8855C49.2274 84.1555 50.5175 83.0964 51.5212 81.7896L82.775 38.1052C84.7762 35.6434 85.9041 32.5872 85.9819 29.4155C86.0597 26.2439 85.0831 23.1361 83.205 20.5791ZM66.6213 10.2161L77.4358 24.8289C77.4932 24.9077 77.5075 25.0009 77.5648 25.0833H60.0352L54.9182 7.16666H60.7554C61.9055 7.17023 63.0381 7.44889 64.0585 7.97938C65.079 8.50986 65.9577 9.27677 66.6213 10.2161ZM43 68.5062L33.325 32.25H52.675L43 68.5062ZM33.4182 25.0833L38.5352 7.16666H47.4648L52.5818 25.0833H33.4182ZM19.4109 10.1659C20.0758 9.23922 20.9516 8.48396 21.9659 7.96246C22.9802 7.44097 24.104 7.16819 25.2446 7.16666H31.0818L25.9648 25.0833H8.30616C8.35633 25.0045 8.37066 24.9077 8.428 24.8325L19.4109 10.1659ZM8.772 33.4146C8.51327 33.0491 8.29122 32.659 8.10908 32.25H25.9147L36.6432 72.4908L8.772 33.4146ZM49.3461 72.5267L60.0961 32.25H77.9626C77.7317 32.7849 77.4395 33.2911 77.0918 33.7586L49.3461 72.5267Z" fill="url(#paint0_linear_1_4)"/>
<defs>
<linearGradient id="paint0_linear_1_4" x1="27.2268" y1="193.5" x2="-103.47" y2="131.257" gradientUnits="userSpaceOnUse">
<stop stop-color="#1210CA"/>
<stop offset="1" stop-color="#FE7CFC"/>
</linearGradient>
</defs>
</svg>
