<svg width="126" height="89" viewBox="0 0 126 89" fill="none" xmlns="http://www.w3.org/2000/svg">
<g clip-path="url(#clip0_1_206)">
<path d="M69.1044 26.4137C48.6203 1.51745 17.2403 3.60756 4.11084 7.76465C5.27661 8.27068 8.98445 11.3246 12.5007 13.3451C24.2062 20.0716 34.7399 4.63829 69.1044 26.4137Z" fill="url(#paint0_linear_1_206)"/>
<path opacity="0.5" d="M69.1051 26.4136C45.0198 3.09012 18.7682 6.98183 8.27979 10.2559C9.44571 10.7637 8.98826 11.2437 12.5055 13.2705C24.2143 20.0176 34.729 4.57515 69.1051 26.4136Z" fill="url(#paint1_linear_1_206)"/>
<path d="M66.7349 25.9961C48.4045 13.9469 29.0786 14.3388 19.0459 17.3975C19.9349 17.6765 22.64 19.6434 25.3249 20.7498C39.1365 26.4416 40.8408 17.0263 66.7349 25.9961Z" fill="url(#paint2_linear_1_206)"/>
<path opacity="0.5" d="M66.7376 25.995C49.5965 15.7445 31.993 15.8754 21.9604 18.9268C22.8504 19.2082 22.61 19.5485 25.2981 20.6629C39.1262 26.3956 40.8155 16.9538 66.7376 25.995Z" fill="url(#paint3_linear_1_206)"/>
<path d="M63.3361 25.8844C48.7834 22.1368 39.7226 23.0447 33.6099 24.6533C34.1711 24.7486 38.364 27.3475 40.0417 27.7801C48.6721 30.0053 47.5862 24.7083 63.3361 25.8844Z" fill="url(#paint4_linear_1_206)"/>
<path opacity="0.5" d="M63.3359 25.8853C47.4419 23.1374 42.6284 24.5737 36.5215 26.1846C37.0819 26.2788 38.3938 27.3737 40.0689 27.8029C48.6857 30.0108 47.6074 24.7317 63.3359 25.8853Z" fill="url(#paint5_linear_1_206)"/>
<path d="M62.6029 26.8004C53.1639 26.5909 48.5006 28.6556 44.7144 29.6621C45.0612 29.7187 48.4942 31.1157 49.5305 31.3757C54.8619 32.7135 57.7378 28.1217 62.6029 26.8004Z" fill="url(#paint6_linear_1_206)"/>
<path opacity="0.5" d="M62.604 26.8034C53.4166 27.1335 50.9426 29.6164 47.1567 30.6348C47.5027 30.6886 48.4932 31.1565 49.5262 31.4072C54.8401 32.6973 57.7392 28.1396 62.604 26.8034Z" fill="url(#paint7_linear_1_206)"/>
<path d="M84.0863 38.736C81.4162 52.5796 79.263 57.0731 65.6668 63.7108C66.9853 60.4546 70.058 53.3299 71.5587 50.3843C73.4346 46.7023 73.6239 38.3113 75.5725 33.2107C77.5212 28.1101 88.5896 21.9381 95.4846 21.9529C101.001 21.9647 115.372 24.2307 121.314 25.3252C105.569 23.4842 87.4239 21.4315 84.0863 38.736Z" fill="url(#paint8_linear_1_206)"/>
<path d="M73.7124 24.3665C64.8457 35.8094 63.294 53.8312 65.6679 63.7115C84.0294 47.6945 76.0341 40.0986 83.6364 29.6409C89.7183 21.2748 111.882 23.4155 122.203 25.5316C118.108 24.5664 108.43 22.5348 102.476 22.13C95.0331 21.6239 94.4451 18.5379 91.8762 16.7256C89.3072 14.9132 84.7958 10.0629 73.7124 24.3665Z" fill="url(#paint9_linear_1_206)"/>
<path d="M122.19 25.508C118.092 24.5362 108.407 22.4898 102.449 22.0776C80.6668 20.5709 79.0013 20.1494 65.6663 63.7111C84.0202 47.6786 76.0126 40.0574 83.6077 29.5849C89.6837 21.2069 111.861 23.3761 122.19 25.508Z" fill="url(#paint10_linear_1_206)"/>
<path d="M86.4175 66.8521C94.6763 67.1657 92.9078 76.1737 90.9912 80.6385L94.8461 77.8943C96.8063 76.3261 99.8641 71.6479 96.4143 65.48C92.1019 57.7701 81.9745 62.4091 78.9036 63.5852C75.8327 64.7612 61.9157 74.4313 60.4129 77.2409C59.2106 79.4885 51.2002 82.0106 47.3452 82.9906C60.4782 84.4281 76.0941 66.4601 86.4175 66.8521Z" fill="url(#paint11_linear_1_206)"/>
<path d="M25.5953 67.6614C24.1317 68.8636 24.3321 69.8611 24.6152 70.2096L37.8136 62.957C36.7681 61.4542 35.0694 62.8263 32.2598 62.8263C29.0416 62.8263 27.8168 54.5937 26.3794 52.4375C24.9419 50.2814 22.067 50.8041 21.8057 53.5483C21.5443 56.2925 26.118 59.8208 27.4248 62.4996C28.7315 65.1785 27.4248 66.1586 25.5953 67.6614Z" fill="#5C5C5C"/>
<path d="M38.926 64.499L34.287 67.2432C37.6323 72.7316 44.0006 74.1473 46.7666 74.1691C39.501 75.0054 34.5919 70.3795 33.0456 67.962L28.2759 70.5101C39.3573 87.6026 57.5474 73.9731 65.2573 65.0217C51.092 73.6464 41.8009 68.2669 38.926 64.499Z" fill="url(#paint12_linear_1_206)"/>
<path d="M38.9261 64.499L34.287 67.2432C37.6324 72.7316 44.0007 74.1473 46.7667 74.1691C39.501 75.0054 34.592 70.3795 33.0456 67.962L29.3105 69.9874C40.3919 87.0799 57.5475 73.9731 65.2574 65.0217C51.092 73.6464 41.8009 68.2669 38.9261 64.499Z" fill="url(#paint13_linear_1_206)"/>
<path d="M50.425 79.6574C36.5211 84.78 27.9922 76.8261 25.4658 72.2089C28.406 78.8734 34.0905 84.7538 47.8115 83.5124C61.5326 82.271 79.1035 59.6065 90.4774 64.891C98.6339 68.6806 94.4708 77.4795 91.0001 80.7029C102.881 78.5467 106.867 60.579 91.9149 57.0504C75.5803 53.1954 67.805 73.2543 50.425 79.6574Z" fill="url(#paint14_linear_1_206)"/>
<path d="M25.3875 53.9782C25.3875 54.4834 24.9779 55.0236 24.4728 55.0236C23.9676 55.0236 23.4927 54.4834 23.4927 53.9782C23.4927 53.473 23.9022 53.0635 24.4074 53.0635C24.9126 53.0635 25.3875 53.473 25.3875 53.9782Z" fill="white"/>
</g>
<defs>
<linearGradient id="paint0_linear_1_206" x1="-5.30588" y1="-0.23283" x2="66.2225" y2="27.6425" gradientUnits="userSpaceOnUse">
<stop stop-color="#FE7CFC"/>
<stop offset="1" stop-color="#1210CA"/>
</linearGradient>
<linearGradient id="paint1_linear_1_206" x1="26.9359" y1="1.14793" x2="32.2807" y2="37.4269" gradientUnits="userSpaceOnUse">
<stop stop-color="#FE7CFC"/>
<stop offset="1" stop-color="#1210CA"/>
</linearGradient>
<linearGradient id="paint2_linear_1_206" x1="12.4398" y1="12.6524" x2="59.5023" y2="36.7418" gradientUnits="userSpaceOnUse">
<stop stop-color="#FE7CFC"/>
<stop offset="1" stop-color="#1210CA"/>
</linearGradient>
<linearGradient id="paint3_linear_1_206" x1="36.5247" y1="11.8165" x2="41.2562" y2="34.8486" gradientUnits="userSpaceOnUse">
<stop stop-color="#FE7CFC"/>
<stop offset="1" stop-color="#1210CA"/>
</linearGradient>
<linearGradient id="paint4_linear_1_206" x1="29.7385" y1="22.6075" x2="53.1238" y2="39.0011" gradientUnits="userSpaceOnUse">
<stop stop-color="#FE7CFC"/>
<stop offset="1" stop-color="#1210CA"/>
</linearGradient>
<linearGradient id="paint5_linear_1_206" x1="46.0229" y1="21.546" x2="48.9629" y2="31.7046" gradientUnits="userSpaceOnUse">
<stop stop-color="#FE7CFC"/>
<stop offset="1" stop-color="#1210CA"/>
</linearGradient>
<linearGradient id="paint6_linear_1_206" x1="42.577" y1="29.1804" x2="50.9287" y2="37.8418" gradientUnits="userSpaceOnUse">
<stop stop-color="#FE7CFC"/>
<stop offset="1" stop-color="#1210CA"/>
</linearGradient>
<linearGradient id="paint7_linear_1_206" x1="46.1305" y1="10.9532" x2="62.3578" y2="25.5686" gradientUnits="userSpaceOnUse">
<stop stop-color="#FE7CFC"/>
<stop offset="1" stop-color="#1210CA"/>
</linearGradient>
<linearGradient id="paint8_linear_1_206" x1="114.992" y1="33.301" x2="78.5626" y2="74.4171" gradientUnits="userSpaceOnUse">
<stop stop-color="#FF6161"/>
<stop offset="1" stop-color="#FF1224"/>
</linearGradient>
<linearGradient id="paint9_linear_1_206" x1="59.1838" y1="79.9095" x2="115.486" y2="36.0841" gradientUnits="userSpaceOnUse">
<stop stop-color="#29E3FF"/>
<stop offset="1" stop-color="#005DCC"/>
</linearGradient>
<linearGradient id="paint10_linear_1_206" x1="54.0731" y1="57.8403" x2="91.9024" y2="30.8596" gradientUnits="userSpaceOnUse">
<stop stop-color="#29E3FF"/>
<stop offset="1" stop-color="#005DCC"/>
</linearGradient>
<linearGradient id="paint11_linear_1_206" x1="46.1992" y1="84.9128" x2="86.5351" y2="96.7067" gradientUnits="userSpaceOnUse">
<stop stop-color="#FED60A"/>
<stop offset="1" stop-color="#D86E3C"/>
</linearGradient>
<linearGradient id="paint12_linear_1_206" x1="45.2283" y1="78.7505" x2="38.7283" y2="71.127" gradientUnits="userSpaceOnUse">
<stop stop-color="#FF4B69"/>
<stop offset="1" stop-color="#C7303B"/>
</linearGradient>
<linearGradient id="paint13_linear_1_206" x1="27.4389" y1="79.8745" x2="56.2718" y2="89.4004" gradientUnits="userSpaceOnUse">
<stop stop-color="#FF4B69"/>
<stop offset="1" stop-color="#FF1224"/>
</linearGradient>
<linearGradient id="paint14_linear_1_206" x1="23.7426" y1="85.953" x2="96.1893" y2="114.82" gradientUnits="userSpaceOnUse">
<stop stop-color="#FED60A"/>
<stop offset="1" stop-color="#FF641A"/>
</linearGradient>
<clipPath id="clip0_1_206">
<rect width="126.003" height="89" fill="white"/>
</clipPath>
</defs>
</svg>
