<svg width="224" height="60" viewBox="0 0 224 60" fill="none" xmlns="http://www.w3.org/2000/svg">
<g clip-path="url(#clip0_7_907)">
<path d="M46.5873 17.807C32.7778 1.02302 11.6228 2.43209 2.77148 5.23462C3.5574 5.57576 6.05707 7.63456 8.42757 8.99675C16.3189 13.5315 23.4203 3.12696 46.5873 17.807Z" fill="url(#paint0_linear_7_907)"/>
<path opacity="0.5" d="M46.5879 17.8069C30.3506 2.08323 12.6529 4.70685 5.58203 6.91406C6.36805 7.25645 6.05965 7.58005 8.43082 8.94641C16.3244 13.495 23.413 3.08437 46.5879 17.8069Z" fill="url(#paint1_linear_7_907)"/>
<path d="M44.9897 17.5253C32.6321 9.40227 19.6034 9.66648 12.8398 11.7285C13.4392 11.9166 15.2629 13.2426 17.0729 13.9885C26.3841 17.8257 27.533 11.4783 44.9897 17.5253Z" fill="url(#paint2_linear_7_907)"/>
<path opacity="0.5" d="M44.9915 17.5251C33.4357 10.6146 21.5682 10.7029 14.8047 12.76C15.4047 12.9497 15.2426 13.1791 17.0548 13.9304C26.3771 17.7952 27.516 11.43 44.9915 17.5251Z" fill="url(#paint3_linear_7_907)"/>
<path d="M42.6984 17.45C32.8876 14.9236 26.7792 15.5357 22.6582 16.6201C23.0366 16.6843 25.8632 18.4364 26.9943 18.7281C32.8125 20.2282 32.0804 16.6572 42.6984 17.45Z" fill="url(#paint4_linear_7_907)"/>
<path opacity="0.5" d="M42.6983 17.4501C31.9831 15.5976 28.7381 16.5659 24.6211 17.6519C24.9989 17.7154 25.8834 18.4535 27.0126 18.7429C32.8217 20.2314 32.0948 16.6724 42.6983 17.4501Z" fill="url(#paint5_linear_7_907)"/>
<path d="M42.2042 18.0678C35.8409 17.9266 32.6971 19.3185 30.1445 19.9971C30.3784 20.0353 32.6927 20.977 33.3914 21.1523C36.9856 22.0542 38.9244 18.9586 42.2042 18.0678Z" fill="url(#paint6_linear_7_907)"/>
<path opacity="0.5" d="M42.2049 18.0694C36.0112 18.2919 34.3433 19.9658 31.791 20.6523C32.0242 20.6887 32.692 21.004 33.3884 21.1731C36.9708 22.0428 38.9253 18.9702 42.2049 18.0694Z" fill="url(#paint7_linear_7_907)"/>
<path d="M56.6874 26.1147C54.8873 35.4474 53.4357 38.4768 44.2697 42.9516C45.1586 40.7564 47.2301 35.9533 48.2418 33.9675C49.5065 31.4852 49.6341 25.8284 50.9478 22.3898C52.2614 18.9512 59.7233 14.7903 64.3716 14.8002C68.0902 14.8082 77.7789 16.3358 81.785 17.0736C71.17 15.8326 58.9374 14.4487 56.6874 26.1147Z" fill="url(#paint8_linear_7_907)"/>
<path d="M49.6936 16.4271C43.716 24.1414 42.6699 36.2909 44.2703 42.9518C56.6489 32.1538 51.2588 27.033 56.384 19.9828C60.4841 14.3428 75.4257 15.7859 82.384 17.2125C79.6235 16.5618 73.099 15.1922 69.0848 14.9193C64.0671 14.5781 63.6707 12.4976 61.9388 11.2759C60.207 10.0541 57.1656 6.78415 49.6936 16.4271Z" fill="url(#paint9_linear_7_907)"/>
<path d="M82.3754 17.1968C79.6128 16.5417 73.0834 15.162 69.0668 14.8842C54.3821 13.8684 53.2592 13.5842 44.2693 42.9517C56.6428 32.1432 51.2444 27.0053 56.3647 19.9452C60.4609 14.2971 75.4119 15.7595 82.3754 17.1968Z" fill="url(#paint10_linear_7_907)"/>
<path d="M58.2588 45.0684C63.8265 45.2798 62.6343 51.3526 61.3422 54.3626L63.9411 52.5125C65.2625 51.4554 67.324 48.3015 64.9982 44.1434C62.091 38.9457 55.2636 42.0731 53.1933 42.866C51.123 43.6588 41.7407 50.178 40.7276 52.072C39.9171 53.5873 34.5168 55.2876 31.918 55.9483C40.7717 56.9174 51.2992 44.8041 58.2588 45.0684Z" fill="url(#paint11_linear_7_907)"/>
<path d="M17.2554 45.6146C16.2687 46.4251 16.4038 47.0975 16.5947 47.3325L25.4924 42.4431C24.7877 41.43 23.6424 42.355 21.7483 42.355C19.5788 42.355 18.7531 36.8049 17.784 35.3513C16.8149 33.8977 14.8768 34.2501 14.7006 36.1001C14.5244 37.9502 17.6078 40.3288 18.4888 42.1348C19.3697 43.9407 18.4888 44.6015 17.2554 45.6146Z" fill="#5C5C5C"/>
<path d="M26.2424 43.4824L23.1149 45.3324C25.3702 49.0325 29.6635 49.9869 31.5282 50.0016C26.63 50.5654 23.3205 47.4468 22.278 45.817L19.0625 47.5349C26.5331 59.0579 38.7961 49.8694 43.9938 43.8348C34.4442 49.6492 28.1805 46.0225 26.2424 43.4824Z" fill="url(#paint12_linear_7_907)"/>
<path d="M26.2421 43.4824L23.1147 45.3324C25.37 49.0325 29.6632 49.9869 31.5279 50.0016C26.6298 50.5654 23.3203 47.4468 22.2778 45.817L19.7598 47.1825C27.2304 58.7055 38.7959 49.8694 43.9936 43.8348C34.4439 49.6492 28.1803 46.0225 26.2421 43.4824Z" fill="url(#paint13_linear_7_907)"/>
<path d="M33.9944 53.7017C24.6209 57.1551 18.8712 51.7929 17.168 48.6802C19.1501 53.1731 22.9823 57.1375 32.2325 56.3005C41.4826 55.4636 53.3282 40.1842 60.996 43.7468C66.4948 46.3016 63.6882 52.2334 61.3484 54.4065C69.3579 52.9529 72.0449 40.8398 61.9651 38.461C50.953 35.8621 45.7113 49.385 33.9944 53.7017Z" fill="url(#paint14_linear_7_907)"/>
<path d="M17.1153 36.3906C17.1153 36.7312 16.8392 37.0954 16.4986 37.0954C16.158 37.0954 15.8379 36.7312 15.8379 36.3906C15.8379 36.05 16.114 35.7739 16.4546 35.7739C16.7951 35.7739 17.1153 36.05 17.1153 36.3906Z" fill="white"/>
</g>
<path d="M95.7064 18.049L103.903 33.3944H104.005L112.277 18.049H114.039V35.9221H111.716V21.4449H111.613L103.545 36.2285H103.085L95.1958 21.3428H95.0937V35.9221H93.9702V18.049H95.7064ZM133.939 30.6623H125.13L122.883 35.9221H121.708L129.266 18.049H130.543L138.867 35.9221H136.39L133.939 30.6623ZM133.402 29.5133L129.394 20.9087H129.292L125.615 29.5133H133.402ZM146.537 18.049H152.333C153.474 18.049 154.418 18.2108 155.167 18.5342C155.916 18.8406 156.504 19.2321 156.929 19.7087C157.372 20.1683 157.678 20.6704 157.848 21.2151C158.036 21.7598 158.129 22.262 158.129 22.7216C158.129 23.2322 158.044 23.7599 157.874 24.3046C157.704 24.8323 157.431 25.3259 157.057 25.7855C156.682 26.2451 156.197 26.6281 155.601 26.9345C155.023 27.2409 154.325 27.4196 153.508 27.4707V27.5728L153.763 27.7005C153.967 27.8026 154.138 27.9303 154.274 28.0835C154.427 28.2367 154.614 28.4835 154.835 28.824C155.074 29.1644 155.389 29.6495 155.78 30.2793C156.172 30.8921 156.725 31.7177 157.44 32.756C157.678 33.1135 157.908 33.4369 158.129 33.7263C158.35 33.9986 158.58 34.2369 158.819 34.4412C159.057 34.6284 159.312 34.7731 159.585 34.8753C159.857 34.9774 160.172 35.0285 160.529 35.0285C160.614 35.0285 160.699 35.0285 160.785 35.0285C160.87 35.0114 160.955 34.9944 161.04 34.9774V35.9221C160.802 36.0583 160.563 36.1434 160.325 36.1774C160.087 36.2115 159.78 36.2285 159.406 36.2285C158.895 36.2285 158.453 36.1604 158.078 36.0243C157.721 35.8881 157.397 35.7093 157.108 35.4881C156.818 35.2498 156.546 34.9689 156.291 34.6455C156.052 34.3221 155.806 33.9646 155.55 33.5731L153.533 30.5857C153.227 30.1091 152.963 29.7091 152.742 29.3857C152.52 29.0623 152.282 28.7984 152.027 28.5942C151.771 28.3899 151.482 28.2452 151.159 28.1601C150.852 28.075 150.461 28.0324 149.984 28.0324H148.861V35.9221H146.537V18.049ZM148.861 19.1725V26.8834H151.491C152.171 26.8834 152.767 26.7643 153.278 26.526C153.806 26.2877 154.248 25.9813 154.606 25.6068C154.963 25.2153 155.227 24.7897 155.397 24.3302C155.584 23.8535 155.678 23.3854 155.678 22.9258C155.678 22.3811 155.576 21.879 155.372 21.4194C155.184 20.9598 154.904 20.5683 154.529 20.2449C154.155 19.9044 153.703 19.6406 153.176 19.4534C152.665 19.2661 152.086 19.1725 151.44 19.1725H148.861ZM183.733 32.6284L184.499 33.3178C184.278 33.5731 183.954 33.871 183.529 34.2114C183.103 34.5518 182.567 34.8753 181.92 35.1817C181.29 35.471 180.541 35.7179 179.673 35.9221C178.822 36.1264 177.852 36.2285 176.762 36.2285C175.043 36.2285 173.562 35.9647 172.32 35.437C171.077 34.8923 170.056 34.1859 169.256 33.3178C168.456 32.4326 167.86 31.4283 167.468 30.3049C167.094 29.1644 166.907 27.9984 166.907 26.8068C166.907 25.4281 167.145 24.1855 167.622 23.079C168.098 21.9556 168.771 21.0024 169.639 20.2193C170.507 19.4193 171.545 18.8065 172.754 18.381C173.979 17.9554 175.333 17.7426 176.814 17.7426C177.835 17.7426 178.746 17.8448 179.546 18.049C180.346 18.2533 181.043 18.5342 181.639 18.8916C182.235 19.2491 182.729 19.6746 183.12 20.1683C183.529 20.6619 183.861 21.1981 184.116 21.7769H182.227C182.107 21.4194 181.895 21.0704 181.588 20.73C181.299 20.3725 180.916 20.0576 180.439 19.7853C179.98 19.5129 179.443 19.2916 178.831 19.1214C178.235 18.9512 177.571 18.8661 176.839 18.8661C175.767 18.8661 174.771 19.0618 173.852 19.4534C172.95 19.8449 172.167 20.3896 171.503 21.0875C170.839 21.7854 170.32 22.6194 169.945 23.5897C169.588 24.5429 169.409 25.5983 169.409 26.7558C169.409 27.8452 169.579 28.892 169.92 29.8963C170.277 30.9006 170.796 31.7858 171.477 32.5518C172.158 33.3178 173.009 33.9305 174.03 34.3901C175.052 34.8497 176.226 35.0795 177.554 35.0795C179.937 35.0795 181.997 34.2625 183.733 32.6284ZM191.898 18.049H203.439V19.4534H194.222V25.8621H202.137V27.0366H194.222V34.5178H203.439V35.9221H191.898V18.049ZM211.088 35.9221V18.049H213.411V34.5178H222.629V35.9221H211.088Z" fill="url(#paint15_linear_7_907)"/>
<path d="M113.972 47.9308V51.3091H112.92V43.2104H115.627C116.074 43.2104 116.464 43.276 116.795 43.4071C117.127 43.5382 117.401 43.7156 117.617 43.9393C117.841 44.1553 118.006 44.4136 118.114 44.7144C118.222 45.0075 118.276 45.3161 118.276 45.64C118.276 45.9794 118.215 46.2995 118.091 46.6003C117.968 46.8934 117.783 47.1556 117.536 47.387C117.297 47.6107 116.996 47.7881 116.633 47.9192C116.271 48.0503 115.854 48.1159 115.384 48.1159C115.106 48.1159 114.852 48.1005 114.62 48.0696C114.389 48.031 114.173 47.9848 113.972 47.9308ZM113.972 43.7195V47.4564C114.134 47.5181 114.316 47.5606 114.516 47.5837C114.717 47.5991 114.937 47.6068 115.176 47.6068C115.523 47.6068 115.82 47.549 116.067 47.4333C116.313 47.3176 116.518 47.1672 116.68 46.9821C116.842 46.797 116.957 46.5926 117.027 46.3689C117.104 46.1375 117.142 45.91 117.142 45.6863C117.142 45.4549 117.1 45.2235 117.015 44.9921C116.938 44.753 116.819 44.5409 116.657 44.3558C116.495 44.163 116.29 44.0087 116.043 43.893C115.797 43.7773 115.511 43.7195 115.187 43.7195H113.972ZM133.771 48.9258H129.78L128.762 51.3091H128.229L131.654 43.2104H132.232L136.004 51.3091H134.882L133.771 48.9258ZM133.528 48.4051L131.712 44.5062H131.665L129.999 48.4051H133.528ZM147.463 43.2104H148.516V51.3091H147.463V43.2104ZM167.537 43.2104H168.07V51.4479H168.012L161.591 45.1194H161.544V51.3091H161.012V43.0716H161.07L167.491 49.4001H167.537V43.2104ZM183.094 51.3091H182.041V43.8467H178.941V43.2104H186.195V43.8467H183.094V51.3091ZM196.11 49.2613H196.896C196.904 49.3924 196.935 49.5544 196.989 49.7472C197.043 49.9323 197.147 50.1136 197.301 50.291C197.456 50.4684 197.679 50.6226 197.972 50.7537C198.265 50.8772 198.655 50.9389 199.141 50.9389C199.75 50.9389 200.236 50.8232 200.599 50.5918C200.969 50.3604 201.154 49.994 201.154 49.4927C201.154 49.0916 201.038 48.7715 200.807 48.5324C200.575 48.2933 200.282 48.0928 199.928 47.9308C199.58 47.7611 199.203 47.6107 198.794 47.4796C198.385 47.3484 198.003 47.1903 197.648 47.0052C197.301 46.8201 197.012 46.5887 196.781 46.311C196.549 46.0334 196.434 45.667 196.434 45.2119C196.434 44.8649 196.503 44.5563 196.642 44.2864C196.788 44.0164 196.981 43.7927 197.22 43.6153C197.467 43.4379 197.749 43.303 198.065 43.2104C198.389 43.1179 198.728 43.0716 199.083 43.0716C199.422 43.0716 199.746 43.114 200.055 43.1988C200.371 43.276 200.653 43.3955 200.899 43.5575C201.146 43.7118 201.351 43.9046 201.513 44.136C201.675 44.3596 201.779 44.6142 201.825 44.8996H201.038C200.977 44.4445 200.768 44.1128 200.413 43.9046C200.066 43.6886 199.642 43.5806 199.141 43.5806C198.84 43.5806 198.574 43.6192 198.343 43.6963C198.111 43.7657 197.914 43.8622 197.752 43.9856C197.598 44.1013 197.479 44.2401 197.394 44.4021C197.317 44.564 197.278 44.7376 197.278 44.9227C197.278 45.2544 197.398 45.5205 197.637 45.721C197.876 45.9215 198.173 46.0989 198.528 46.2532C198.89 46.4075 199.28 46.554 199.696 46.6928C200.12 46.8317 200.51 47.0052 200.865 47.2135C201.227 47.414 201.528 47.6685 201.767 47.9771C202.006 48.2779 202.126 48.6674 202.126 49.1456C202.126 49.4927 202.056 49.8089 201.918 50.0943C201.779 50.3797 201.582 50.6226 201.327 50.8232C201.073 51.0237 200.764 51.178 200.402 51.2859C200.047 51.3939 199.646 51.4479 199.199 51.4479C198.759 51.4479 198.354 51.3978 197.984 51.2975C197.614 51.1895 197.29 51.043 197.012 50.8579C196.742 50.665 196.526 50.4337 196.364 50.1637C196.21 49.8937 196.125 49.5929 196.11 49.2613Z" fill="#1E1E1E"/>
<defs>
<linearGradient id="paint0_linear_7_907" x1="-3.57686" y1="-0.156939" x2="44.6445" y2="18.6354" gradientUnits="userSpaceOnUse">
<stop stop-color="#FE7CFC"/>
<stop offset="1" stop-color="#1210CA"/>
</linearGradient>
<linearGradient id="paint1_linear_7_907" x1="18.1592" y1="0.773886" x2="21.7624" y2="25.2316" gradientUnits="userSpaceOnUse">
<stop stop-color="#FE7CFC"/>
<stop offset="1" stop-color="#1210CA"/>
</linearGradient>
<linearGradient id="paint2_linear_7_907" x1="8.38632" y1="8.52963" x2="40.1139" y2="24.7697" gradientUnits="userSpaceOnUse">
<stop stop-color="#FE7CFC"/>
<stop offset="1" stop-color="#1210CA"/>
</linearGradient>
<linearGradient id="paint3_linear_7_907" x1="24.6233" y1="7.96656" x2="27.8131" y2="23.4938" gradientUnits="userSpaceOnUse">
<stop stop-color="#FE7CFC"/>
<stop offset="1" stop-color="#1210CA"/>
</linearGradient>
<linearGradient id="paint4_linear_7_907" x1="20.0483" y1="15.2409" x2="35.8136" y2="26.2928" gradientUnits="userSpaceOnUse">
<stop stop-color="#FE7CFC"/>
<stop offset="1" stop-color="#1210CA"/>
</linearGradient>
<linearGradient id="paint5_linear_7_907" x1="31.0266" y1="14.5247" x2="33.0085" y2="21.3733" gradientUnits="userSpaceOnUse">
<stop stop-color="#FE7CFC"/>
<stop offset="1" stop-color="#1210CA"/>
</linearGradient>
<linearGradient id="paint6_linear_7_907" x1="28.7036" y1="19.6723" x2="34.334" y2="25.5115" gradientUnits="userSpaceOnUse">
<stop stop-color="#FE7CFC"/>
<stop offset="1" stop-color="#1210CA"/>
</linearGradient>
<linearGradient id="paint7_linear_7_907" x1="31.0991" y1="7.38389" x2="42.0389" y2="17.237" gradientUnits="userSpaceOnUse">
<stop stop-color="#FE7CFC"/>
<stop offset="1" stop-color="#1210CA"/>
</linearGradient>
<linearGradient id="paint8_linear_7_907" x1="77.5229" y1="22.4506" x2="52.9635" y2="50.1693" gradientUnits="userSpaceOnUse">
<stop stop-color="#FF6161"/>
<stop offset="1" stop-color="#FF1224"/>
</linearGradient>
<linearGradient id="paint9_linear_7_907" x1="39.899" y1="53.8717" x2="77.8554" y2="24.3266" gradientUnits="userSpaceOnUse">
<stop stop-color="#29E3FF"/>
<stop offset="1" stop-color="#005DCC"/>
</linearGradient>
<linearGradient id="paint10_linear_7_907" x1="36.4537" y1="38.9938" x2="61.9566" y2="20.8046" gradientUnits="userSpaceOnUse">
<stop stop-color="#29E3FF"/>
<stop offset="1" stop-color="#005DCC"/>
</linearGradient>
<linearGradient id="paint11_linear_7_907" x1="31.1454" y1="57.2441" x2="58.3381" y2="65.1951" gradientUnits="userSpaceOnUse">
<stop stop-color="#FED60A"/>
<stop offset="1" stop-color="#D86E3C"/>
</linearGradient>
<linearGradient id="paint12_linear_7_907" x1="30.4911" y1="53.0901" x2="26.1091" y2="47.9507" gradientUnits="userSpaceOnUse">
<stop stop-color="#FF4B69"/>
<stop offset="1" stop-color="#C7303B"/>
</linearGradient>
<linearGradient id="paint13_linear_7_907" x1="18.498" y1="53.8479" x2="37.9359" y2="60.2699" gradientUnits="userSpaceOnUse">
<stop stop-color="#FF4B69"/>
<stop offset="1" stop-color="#FF1224"/>
</linearGradient>
<linearGradient id="paint14_linear_7_907" x1="16.0062" y1="57.9459" x2="64.8467" y2="77.4067" gradientUnits="userSpaceOnUse">
<stop stop-color="#FED60A"/>
<stop offset="1" stop-color="#FF641A"/>
</linearGradient>
<linearGradient id="paint15_linear_7_907" x1="132.542" y1="89.9804" x2="122.495" y2="-41.6824" gradientUnits="userSpaceOnUse">
<stop offset="0.14188" stop-color="#1210CA"/>
<stop offset="1" stop-color="#FE7CFC"/>
</linearGradient>
<clipPath id="clip0_7_907">
<rect width="84.9457" height="60" fill="white"/>
</clipPath>
</defs>
</svg>
