<svg width="113" height="30" viewBox="0 0 113 30" fill="none" xmlns="http://www.w3.org/2000/svg">
<g clip-path="url(#clip0_30_2)">
<path d="M23.2937 8.90338C16.3889 0.51139 5.8114 1.21592 1.38574 2.61719C1.7787 2.78776 3.02853 3.81716 4.21379 4.49825C8.15947 6.76561 11.7101 1.56336 23.2937 8.90338Z" fill="url(#paint0_linear_30_2)"/>
<path opacity="0.5" d="M23.2939 8.90345C15.1753 1.04162 6.32644 2.35342 2.79102 3.45703C3.18402 3.62822 3.02983 3.79002 4.21541 4.47321C8.1622 6.7475 11.7065 1.54218 23.2939 8.90345Z" fill="url(#paint1_linear_30_2)"/>
<path d="M22.4949 8.76267C16.3161 4.70113 9.80172 4.83324 6.41992 5.86426C6.7196 5.95832 7.63143 6.62131 8.53643 6.99427C13.192 8.91284 13.7665 5.73916 22.4949 8.76267Z" fill="url(#paint2_linear_30_2)"/>
<path opacity="0.5" d="M22.4958 8.76245C16.7179 5.3072 10.7841 5.35132 7.40234 6.37988C7.70233 6.47474 7.6213 6.58945 8.52739 6.96509C13.1885 8.89747 13.758 5.71485 22.4958 8.76245Z" fill="url(#paint3_linear_30_2)"/>
<path d="M21.3492 8.72501C16.4438 7.46178 13.3896 7.76783 11.3291 8.31006C11.5183 8.34216 12.9316 9.21822 13.4972 9.36403C16.4063 10.1141 16.0402 8.32858 21.3492 8.72501Z" fill="url(#paint4_linear_30_2)"/>
<path opacity="0.5" d="M21.3491 8.72528C15.9916 7.79905 14.3691 8.28318 12.3105 8.82617C12.4995 8.85795 12.9417 9.227 13.5063 9.37167C16.4108 10.1159 16.0474 8.33644 21.3491 8.72528Z" fill="url(#paint5_linear_30_2)"/>
<path d="M21.1022 9.03391C17.9205 8.96329 16.3486 9.65925 15.0723 9.99854C15.1892 10.0176 16.3464 10.4885 16.6957 10.5762C18.4928 11.0271 19.4622 9.47929 21.1022 9.03391Z" fill="url(#paint6_linear_30_2)"/>
<path opacity="0.5" d="M21.1025 9.03471C18.0056 9.14596 17.1716 9.9829 15.8955 10.3262C16.0121 10.3443 16.346 10.502 16.6942 10.5866C18.4854 11.0214 19.4626 9.48512 21.1025 9.03471Z" fill="url(#paint7_linear_30_2)"/>
<path d="M28.3438 13.0572C27.4438 17.7236 26.718 19.2383 22.135 21.4757C22.5794 20.3781 23.6152 17.9765 24.121 16.9836C24.7534 15.7425 24.8172 12.9141 25.474 11.1948C26.1308 9.47546 29.8618 7.39501 32.1859 7.39999C34.0452 7.40398 38.8896 8.16777 40.8926 8.5367C35.5851 7.91616 29.4688 7.22423 28.3438 13.0572Z" fill="url(#paint8_linear_30_2)"/>
<path d="M24.8468 8.21353C21.858 12.0707 21.335 18.1454 22.1352 21.4759C28.3244 16.0769 25.6294 13.5165 28.192 9.99142C30.242 7.17138 37.7129 7.89297 41.192 8.60627C39.8118 8.28092 36.5495 7.5961 34.5424 7.45964C32.0335 7.28906 31.8353 6.24882 30.9694 5.63793C30.1035 5.02703 28.5828 3.39207 24.8468 8.21353Z" fill="url(#paint9_linear_30_2)"/>
<path d="M41.1877 8.59826C39.8064 8.27071 36.5417 7.58088 34.5334 7.44196C27.191 6.93408 26.6296 6.792 22.1347 21.4757C28.3214 16.0715 25.6222 13.5025 28.1823 9.97249C30.2304 7.14845 37.7059 7.87965 41.1877 8.59826Z" fill="url(#paint10_linear_30_2)"/>
<path d="M29.1294 22.5343C31.9133 22.64 31.3172 25.6764 30.6711 27.1814L31.9705 26.2564C32.6313 25.7278 33.662 24.1509 32.4991 22.0718C31.0455 19.473 27.6318 21.0367 26.5966 21.4331C25.5615 21.8295 20.8704 25.0891 20.3638 26.0361C19.9586 26.7938 17.2584 27.6439 15.959 27.9743C20.3858 28.4588 25.6496 22.4022 29.1294 22.5343Z" fill="url(#paint11_linear_30_2)"/>
<path d="M8.62762 22.8073C8.13427 23.2125 8.20182 23.5488 8.29725 23.6662L12.7461 21.2215C12.3937 20.715 11.8211 21.1775 10.8741 21.1775C9.78929 21.1775 9.37644 18.4025 8.89191 17.6757C8.40737 16.9489 7.43831 17.1251 7.35022 18.0501C7.26212 18.9751 8.80381 20.1644 9.24429 21.0674C9.68477 21.9704 9.24429 22.3007 8.62762 22.8073Z" fill="#5C5C5C"/>
<path d="M13.1212 21.7412L11.5575 22.6662C12.6851 24.5163 14.8317 24.9934 15.7641 25.0008C13.315 25.2827 11.6603 23.7234 11.139 22.9085L9.53125 23.7674C13.2665 29.5289 19.3981 24.9347 21.9969 21.9174C17.2221 24.8246 14.0902 23.0113 13.1212 21.7412Z" fill="url(#paint12_linear_30_2)"/>
<path d="M13.1211 21.7412L11.5574 22.6662C12.685 24.5163 14.8316 24.9934 15.764 25.0008C13.3149 25.2827 11.6601 23.7234 11.1389 22.9085L9.87988 23.5912C13.6152 29.3528 19.3979 24.9347 21.9968 21.9174C17.222 24.8246 14.0901 23.0113 13.1211 21.7412Z" fill="url(#paint13_linear_30_2)"/>
<path d="M16.9972 26.8507C12.3105 28.5774 9.43558 25.8963 8.58398 24.34C9.57507 26.5864 11.4912 28.5686 16.1162 28.1502C20.7413 27.7317 26.6641 20.092 30.498 21.8733C33.2474 23.1507 31.8441 26.1166 30.6742 27.2031C34.679 26.4763 36.0224 20.4198 30.9825 19.2304C25.4765 17.931 22.8556 24.6924 16.9972 26.8507Z" fill="url(#paint14_linear_30_2)"/>
<path d="M8.55765 18.1951C8.55765 18.3653 8.4196 18.5474 8.24931 18.5474C8.07902 18.5474 7.91895 18.3653 7.91895 18.1951C7.91895 18.0248 8.05699 17.8867 8.22728 17.8867C8.39757 17.8867 8.55765 18.0248 8.55765 18.1951Z" fill="white"/>
</g>
<path d="M47.8532 9.0244L51.9513 16.6971H52.0023L56.1387 9.0244H57.0196V17.9609H55.8578V10.7223H55.8067L51.7725 18.1141H51.5427L47.5979 10.6713H47.5468V17.9609H46.9851V9.0244H47.8532ZM66.9693 15.331H62.5649L61.4414 17.9609H60.8542L64.6331 9.0244H65.2714L69.4333 17.9609H68.1949L66.9693 15.331ZM66.7012 14.7565L64.6969 10.4542H64.6458L62.8075 14.7565H66.7012ZM73.2686 9.0244H76.1666C76.7368 9.0244 77.2092 9.10525 77.5837 9.26696C77.9582 9.42016 78.2518 9.61591 78.4646 9.85422C78.6858 10.084 78.839 10.3351 78.9242 10.6074C79.0178 10.8798 79.0646 11.1309 79.0646 11.3607C79.0646 11.616 79.022 11.8798 78.9369 12.1522C78.8518 12.416 78.7156 12.6628 78.5284 12.8926C78.3411 13.1224 78.0986 13.3139 77.8007 13.4671C77.5113 13.6203 77.1624 13.7097 76.7538 13.7352V13.7863L76.8815 13.8501C76.9836 13.9012 77.0688 13.965 77.1368 14.0416C77.2134 14.1182 77.3071 14.2416 77.4177 14.4119C77.5369 14.5821 77.6943 14.8246 77.8901 15.1395C78.0858 15.4459 78.3624 15.8587 78.7199 16.3779C78.839 16.5566 78.9539 16.7183 79.0646 16.863C79.1752 16.9992 79.2901 17.1183 79.4093 17.2205C79.5284 17.3141 79.6561 17.3864 79.7923 17.4375C79.9284 17.4886 80.0859 17.5141 80.2646 17.5141C80.3072 17.5141 80.3497 17.5141 80.3923 17.5141C80.4349 17.5056 80.4774 17.4971 80.52 17.4886V17.9609C80.4008 18.029 80.2817 18.0716 80.1625 18.0886C80.0433 18.1056 79.8901 18.1141 79.7029 18.1141C79.4476 18.1141 79.2263 18.0801 79.0391 18.012C78.8603 17.9439 78.6986 17.8546 78.5539 17.7439C78.4092 17.6248 78.2731 17.4843 78.1454 17.3226C78.0262 17.1609 77.9028 16.9822 77.7752 16.7864L76.7666 15.2927C76.6134 15.0544 76.4815 14.8544 76.3709 14.6927C76.2602 14.531 76.1411 14.3991 76.0134 14.297C75.8857 14.1948 75.741 14.1225 75.5793 14.0799C75.4261 14.0374 75.2304 14.0161 74.9921 14.0161H74.4303V17.9609H73.2686V9.0244ZM74.4303 9.58612V13.4416H75.7453C76.0857 13.4416 76.3836 13.382 76.639 13.2629C76.9028 13.1437 77.1241 12.9905 77.3028 12.8033C77.4815 12.6075 77.6135 12.3948 77.6986 12.165C77.7922 11.9266 77.839 11.6926 77.839 11.4628C77.839 11.1904 77.7879 10.9394 77.6858 10.7096C77.5922 10.4798 77.4518 10.284 77.2645 10.1223C77.0773 9.9521 76.8517 9.82018 76.5879 9.72656C76.3326 9.63293 76.0432 9.58612 75.7198 9.58612H74.4303ZM91.8665 16.3141L92.2495 16.6588C92.1388 16.7864 91.9771 16.9354 91.7643 17.1056C91.5516 17.2758 91.2835 17.4375 90.9601 17.5907C90.6451 17.7354 90.2707 17.8588 89.8366 17.9609C89.4111 18.0631 88.9259 18.1141 88.3812 18.1141C87.5216 18.1141 86.7812 17.9822 86.1599 17.7184C85.5386 17.446 85.0279 17.0928 84.6279 16.6588C84.2279 16.2162 83.93 15.714 83.7342 15.1523C83.547 14.5821 83.4534 13.9991 83.4534 13.4033C83.4534 12.7139 83.5725 12.0926 83.8108 11.5394C84.0491 10.9777 84.3853 10.5011 84.8194 10.1096C85.2534 9.70953 85.7726 9.40314 86.3769 9.19036C86.9897 8.97759 87.6663 8.8712 88.4068 8.8712C88.9174 8.8712 89.3728 8.92227 89.7728 9.0244C90.1728 9.12653 90.5217 9.26696 90.8196 9.44569C91.1175 9.62442 91.3643 9.8372 91.5601 10.084C91.7643 10.3308 91.9303 10.5989 92.058 10.8883H91.1133C91.0537 10.7096 90.9473 10.5351 90.7941 10.3649C90.6494 10.1861 90.4579 10.0287 90.2196 9.89252C89.9898 9.75634 89.7217 9.6457 89.4153 9.56059C89.1174 9.47548 88.7855 9.43293 88.4195 9.43293C87.8833 9.43293 87.3854 9.5308 86.9258 9.72656C86.4748 9.92231 86.0833 10.1947 85.7513 10.5436C85.4194 10.8926 85.1598 11.3096 84.9726 11.7947C84.7938 12.2713 84.7045 12.799 84.7045 13.3778C84.7045 13.9225 84.7896 14.4459 84.9598 14.948C85.1385 15.4502 85.3981 15.8928 85.7386 16.2758C86.079 16.6588 86.5046 16.9652 87.0152 17.1949C87.5259 17.4247 88.1131 17.5396 88.777 17.5396C89.9685 17.5396 90.9984 17.1311 91.8665 16.3141ZM95.9491 9.0244H101.72V9.72656H97.1108V12.9309H101.068V13.5182H97.1108V17.2588H101.72V17.9609H95.9491V9.0244ZM105.544 17.9609V9.0244H106.706V17.2588H111.314V17.9609H105.544Z" fill="url(#paint15_linear_30_2)"/>
<path d="M57.2206 24.3108V26H56.6942V21.9507H58.0478C58.2715 21.9507 58.4662 21.9834 58.6321 22.049C58.7979 22.1146 58.9348 22.2033 59.0428 22.3151C59.1546 22.4231 59.2375 22.5523 59.2915 22.7027C59.3455 22.8492 59.3725 23.0035 59.3725 23.1655C59.3725 23.3352 59.3417 23.4952 59.28 23.6456C59.2183 23.7921 59.1257 23.9233 59.0023 24.039C58.8827 24.1508 58.7323 24.2395 58.5511 24.3051C58.3698 24.3706 58.1616 24.4034 57.9263 24.4034C57.7875 24.4034 57.6602 24.3957 57.5445 24.3803C57.4288 24.361 57.3209 24.3378 57.2206 24.3108ZM57.2206 22.2052V24.0737C57.3016 24.1045 57.3922 24.1257 57.4925 24.1373C57.5927 24.145 57.7026 24.1489 57.8222 24.1489C57.9957 24.1489 58.1442 24.12 58.2676 24.0621C58.391 24.0043 58.4932 23.9291 58.5742 23.8365C58.6552 23.7439 58.7131 23.6417 58.7478 23.5299C58.7863 23.4142 58.8056 23.3004 58.8056 23.1886C58.8056 23.0729 58.7844 22.9572 58.742 22.8415C58.7034 22.722 58.6436 22.6159 58.5627 22.5234C58.4817 22.4269 58.3795 22.3498 58.2561 22.292C58.1327 22.2341 57.99 22.2052 57.828 22.2052H57.2206ZM67.1199 24.8083H65.1242L64.6151 26H64.349L66.0613 21.9507H66.3506L68.2364 26H67.6753L67.1199 24.8083ZM66.9985 24.548L66.0903 22.5986H66.0671L65.2341 24.548H66.9985ZM73.9658 21.9507H74.4922V26H73.9658V21.9507ZM84.0031 21.9507H84.2692V26.0694H84.2403L81.0297 22.9051H81.0066V26H80.7405V21.8812H80.7694L83.98 25.0455H84.0031V21.9507ZM91.7814 26H91.2549V22.2688H89.7046V21.9507H93.3317V22.2688H91.7814V26ZM98.2892 24.9761H98.6825C98.6864 25.0417 98.7018 25.1226 98.7288 25.2191C98.7558 25.3116 98.8079 25.4022 98.885 25.4909C98.9621 25.5796 99.074 25.6568 99.2205 25.7223C99.3671 25.784 99.5618 25.8149 99.8048 25.8149C100.109 25.8149 100.352 25.757 100.534 25.6413C100.719 25.5256 100.811 25.3425 100.811 25.0918C100.811 24.8913 100.753 24.7312 100.638 24.6117C100.522 24.4921 100.376 24.3918 100.198 24.3108C100.025 24.226 99.8356 24.1508 99.6312 24.0852C99.4268 24.0197 99.2359 23.9406 99.0585 23.8481C98.885 23.7555 98.7404 23.6398 98.6247 23.501C98.509 23.3621 98.4511 23.179 98.4511 22.9514C98.4511 22.7779 98.4859 22.6236 98.5553 22.4886C98.6285 22.3537 98.725 22.2418 98.8445 22.1531C98.9679 22.0644 99.1087 21.9969 99.2668 21.9507C99.4288 21.9044 99.5985 21.8812 99.7759 21.8812C99.9455 21.8812 100.108 21.9025 100.262 21.9449C100.42 21.9834 100.561 22.0432 100.684 22.1242C100.807 22.2013 100.91 22.2977 100.991 22.4134C101.072 22.5253 101.124 22.6525 101.147 22.7952H100.753C100.723 22.5677 100.619 22.4019 100.441 22.2977C100.268 22.1898 100.055 22.1358 99.8048 22.1358C99.6544 22.1358 99.5213 22.1551 99.4056 22.1936C99.2899 22.2283 99.1916 22.2765 99.1106 22.3382C99.0335 22.3961 98.9737 22.4655 98.9313 22.5465C98.8927 22.6275 98.8734 22.7143 98.8734 22.8068C98.8734 22.9726 98.9332 23.1057 99.0528 23.206C99.1723 23.3062 99.3208 23.3949 99.4982 23.4721C99.6794 23.5492 99.8742 23.6225 100.082 23.6919C100.295 23.7613 100.489 23.8481 100.667 23.9522C100.848 24.0525 100.998 24.1797 101.118 24.334C101.237 24.4844 101.297 24.6791 101.297 24.9182C101.297 25.0918 101.263 25.2499 101.193 25.3926C101.124 25.5353 101.025 25.6568 100.898 25.757C100.771 25.8573 100.617 25.9344 100.435 25.9884C100.258 26.0424 100.057 26.0694 99.8337 26.0694C99.6139 26.0694 99.4114 26.0443 99.2263 25.9942C99.0412 25.9402 98.8792 25.867 98.7404 25.7744C98.6054 25.678 98.4974 25.5623 98.4164 25.4273C98.3393 25.2923 98.2969 25.1419 98.2892 24.9761Z" fill="white"/>
<defs>
<linearGradient id="paint0_linear_30_2" x1="-1.78843" y1="-0.0785918" x2="22.3223" y2="9.31757" gradientUnits="userSpaceOnUse">
<stop stop-color="#FE7CFC"/>
<stop offset="1" stop-color="#1210CA"/>
</linearGradient>
<linearGradient id="paint1_linear_30_2" x1="9.07961" y1="0.386943" x2="10.8812" y2="12.6158" gradientUnits="userSpaceOnUse">
<stop stop-color="#FE7CFC"/>
<stop offset="1" stop-color="#1210CA"/>
</linearGradient>
<linearGradient id="paint2_linear_30_2" x1="4.19316" y1="4.26481" x2="20.0569" y2="12.3848" gradientUnits="userSpaceOnUse">
<stop stop-color="#FE7CFC"/>
<stop offset="1" stop-color="#1210CA"/>
</linearGradient>
<linearGradient id="paint3_linear_30_2" x1="12.3117" y1="3.98316" x2="13.9065" y2="11.7468" gradientUnits="userSpaceOnUse">
<stop stop-color="#FE7CFC"/>
<stop offset="1" stop-color="#1210CA"/>
</linearGradient>
<linearGradient id="paint4_linear_30_2" x1="10.0242" y1="7.62045" x2="17.9069" y2="13.1464" gradientUnits="userSpaceOnUse">
<stop stop-color="#FE7CFC"/>
<stop offset="1" stop-color="#1210CA"/>
</linearGradient>
<linearGradient id="paint5_linear_30_2" x1="15.5133" y1="7.2626" x2="16.5043" y2="10.6869" gradientUnits="userSpaceOnUse">
<stop stop-color="#FE7CFC"/>
<stop offset="1" stop-color="#1210CA"/>
</linearGradient>
<linearGradient id="paint6_linear_30_2" x1="14.3519" y1="9.83616" x2="17.167" y2="12.7557" gradientUnits="userSpaceOnUse">
<stop stop-color="#FE7CFC"/>
<stop offset="1" stop-color="#1210CA"/>
</linearGradient>
<linearGradient id="paint7_linear_30_2" x1="15.5496" y1="3.69195" x2="21.0195" y2="8.61848" gradientUnits="userSpaceOnUse">
<stop stop-color="#FE7CFC"/>
<stop offset="1" stop-color="#1210CA"/>
</linearGradient>
<linearGradient id="paint8_linear_30_2" x1="38.7616" y1="11.2252" x2="26.4819" y2="25.0845" gradientUnits="userSpaceOnUse">
<stop stop-color="#FF6161"/>
<stop offset="1" stop-color="#FF1224"/>
</linearGradient>
<linearGradient id="paint9_linear_30_2" x1="19.9495" y1="26.9359" x2="38.9277" y2="12.1633" gradientUnits="userSpaceOnUse">
<stop stop-color="#29E3FF"/>
<stop offset="1" stop-color="#005DCC"/>
</linearGradient>
<linearGradient id="paint10_linear_30_2" x1="18.2269" y1="19.4968" x2="30.9783" y2="10.4022" gradientUnits="userSpaceOnUse">
<stop stop-color="#29E3FF"/>
<stop offset="1" stop-color="#005DCC"/>
</linearGradient>
<linearGradient id="paint11_linear_30_2" x1="15.5727" y1="28.6222" x2="29.1691" y2="32.5977" gradientUnits="userSpaceOnUse">
<stop stop-color="#FED60A"/>
<stop offset="1" stop-color="#D86E3C"/>
</linearGradient>
<linearGradient id="paint12_linear_30_2" x1="15.2456" y1="26.5451" x2="13.0546" y2="23.9754" gradientUnits="userSpaceOnUse">
<stop stop-color="#FF4B69"/>
<stop offset="1" stop-color="#C7303B"/>
</linearGradient>
<linearGradient id="paint13_linear_30_2" x1="9.24899" y1="26.924" x2="18.968" y2="30.1349" gradientUnits="userSpaceOnUse">
<stop stop-color="#FF4B69"/>
<stop offset="1" stop-color="#FF1224"/>
</linearGradient>
<linearGradient id="paint14_linear_30_2" x1="8.00311" y1="28.9728" x2="32.4234" y2="38.7032" gradientUnits="userSpaceOnUse">
<stop stop-color="#FED60A"/>
<stop offset="1" stop-color="#FF641A"/>
</linearGradient>
<linearGradient id="paint15_linear_30_2" x1="66.4277" y1="44.9901" x2="61.4411" y2="-20.847" gradientUnits="userSpaceOnUse">
<stop offset="0.14188" stop-color="#1210CA"/>
<stop offset="1" stop-color="#FE7CFC"/>
</linearGradient>
<clipPath id="clip0_30_2">
<rect width="42.4728" height="30" fill="white"/>
</clipPath>
</defs>
</svg>
