<svg width="36" height="36" viewBox="0 0 36 36" fill="none" xmlns="http://www.w3.org/2000/svg">
<rect x="0.5" y="0.5" width="35" height="35" rx="11.5" fill="white" stroke="black"/>
<g clip-path="url(#clip0_588_654)">
<path d="M8.35266 8.75935C8.23776 8.87033 8.25361 9.0081 8.45171 9.65101C9.39864 12.6896 9.83051 15.6783 9.76712 18.7475C9.73938 19.9491 9.70769 20.4237 9.5809 21.522C9.37487 23.2594 8.98263 25.081 8.45171 26.761C8.24964 27.4115 8.2338 27.5493 8.36058 27.6641C8.48341 27.7751 8.60623 27.7636 9.27978 27.5646C11.4431 26.9332 13.5549 26.5505 15.9598 26.3553C16.7602 26.2903 19.5376 26.2903 20.3379 26.3553C22.7072 26.5505 24.815 26.9294 26.9348 27.5493C27.6717 27.7636 27.8064 27.7789 27.9253 27.6565C28.0362 27.5417 28.0243 27.3847 27.8856 26.9638C27.2913 25.1766 26.8199 22.8767 26.6217 20.8331C26.4474 19.0269 26.4672 16.9144 26.6772 15.0546C26.8793 13.2827 27.2795 11.3999 27.8064 9.71607C28.0243 9.01575 28.0441 8.87416 27.9253 8.75935C27.8064 8.64455 27.6519 8.66368 26.9902 8.85502C24.8705 9.48263 22.731 9.86915 20.2983 10.0681C19.3949 10.1409 16.6849 10.1294 15.7419 10.0452C13.3924 9.84236 11.3599 9.46732 9.28771 8.85502C8.62604 8.66368 8.47152 8.64455 8.35266 8.75935ZM9.83051 9.67397C11.6174 10.1562 13.4835 10.4814 15.4844 10.6575C16.4274 10.7378 18.8521 10.7723 19.8625 10.7149C22.2199 10.5809 24.4822 10.2174 26.6574 9.62423C26.9268 9.55152 27.1527 9.49411 27.1606 9.49794C27.1646 9.50559 27.0814 9.80792 26.9783 10.1753C26.392 12.2265 26.0354 14.316 25.9007 16.547C25.8412 17.5191 25.8769 19.8611 25.9601 20.7757C26.1384 22.6624 26.487 24.5299 26.9744 26.2367C27.0814 26.6117 27.1646 26.9179 27.1606 26.9255C27.1527 26.9294 26.9268 26.8719 26.6574 26.7992C24.4822 26.2061 22.2199 25.8425 19.8625 25.7086C18.8521 25.6512 16.4274 25.6856 15.4844 25.766C13.44 25.9458 11.3718 26.3132 9.62448 26.8031C9.35506 26.8758 9.12526 26.9332 9.11734 26.9255C9.10941 26.9179 9.16884 26.6959 9.24412 26.4357C9.75523 24.7404 10.1277 22.7619 10.3218 20.7375C10.4248 19.6698 10.4248 16.7575 10.3218 15.686C10.1118 13.5047 9.75127 11.6601 9.11338 9.54769C9.09753 9.49029 9.10941 9.47881 9.16884 9.49411C9.20847 9.50559 9.50958 9.58596 9.83051 9.67397Z" fill="black" stroke="black" stroke-width="0.2"/>
<path d="M12.5009 12.4755C12.3543 12.5597 12.3463 12.6745 12.4533 13.6159C12.5643 14.5841 12.592 14.6722 12.8059 14.7487C12.8852 14.7755 12.9407 14.7678 13.0199 14.7257C13.2061 14.6262 13.2299 14.5267 13.1705 14.0445L13.1229 13.6159L14.1134 14.5727C15.0604 15.4873 15.1158 15.5332 15.2585 15.5332C15.4526 15.5332 15.5635 15.4261 15.5635 15.2385C15.5635 15.1008 15.516 15.0472 14.5651 14.1287C13.6459 13.2409 13.5746 13.1644 13.7014 13.1797C14.4581 13.283 14.5928 13.2753 14.7077 13.1146C14.8226 12.9577 14.7553 12.7358 14.577 12.6669C14.4859 12.6324 12.8178 12.4334 12.6395 12.4334C12.6039 12.4334 12.5405 12.4526 12.5009 12.4755Z" fill="black" stroke="black" stroke-width="0.2"/>
<path d="M22.5686 12.5444C21.6494 12.6516 21.5741 12.6745 21.5226 12.8774C21.487 13.0075 21.5702 13.1605 21.7049 13.2256C21.8 13.2677 22.0218 13.2562 22.5765 13.1797C22.7033 13.1644 22.632 13.2409 21.7128 14.1287C20.7619 15.0472 20.7144 15.1008 20.7144 15.2385C20.7144 15.3304 20.7421 15.4069 20.7936 15.4567C20.8451 15.5064 20.9243 15.5332 21.0194 15.5332C21.1621 15.5332 21.2175 15.4873 22.1684 14.5688C23.0916 13.6772 23.1669 13.6121 23.151 13.7346C23.0599 14.3851 23.052 14.4732 23.0995 14.5688C23.1748 14.7143 23.3372 14.7946 23.472 14.7487C23.6859 14.6722 23.7136 14.5841 23.8246 13.6121C23.9157 12.7893 23.9197 12.6937 23.8682 12.5903C23.7651 12.399 23.777 12.4028 22.5686 12.5444Z" fill="black" stroke="black" stroke-width="0.2"/>
<path d="M14.1175 21.8463C13.5747 22.3705 13.127 22.7953 13.1231 22.7915C13.1191 22.7877 13.1429 22.5963 13.1706 22.3667C13.2142 22.0338 13.2142 21.9305 13.1746 21.8501C13.1112 21.7162 12.925 21.6358 12.7982 21.6779C12.5961 21.7468 12.5644 21.8463 12.4495 22.8298C12.3505 23.6985 12.3465 23.7635 12.4099 23.8515C12.4455 23.9051 12.5169 23.9587 12.5684 23.974C12.6793 24.0008 14.4345 23.8095 14.5771 23.7559C14.7554 23.687 14.8228 23.465 14.7079 23.3081C14.593 23.1474 14.4583 23.1397 13.7015 23.2431C13.5747 23.2584 13.6461 23.1818 14.5653 22.294C15.5161 21.3756 15.5637 21.322 15.5637 21.1842C15.5637 20.9967 15.4528 20.8895 15.2547 20.8895C15.116 20.8895 15.0605 20.9355 14.1175 21.8463Z" fill="black" stroke="black" stroke-width="0.2"/>
<path d="M20.7936 20.9678C20.7381 21.0214 20.7144 21.0941 20.7144 21.2051C20.7144 21.362 20.7302 21.3773 21.6851 22.3072L22.6558 23.2486L22.2318 23.2027C21.7762 23.1529 21.6692 23.1682 21.5702 23.3098C21.4553 23.4667 21.5226 23.6887 21.7009 23.7576C21.7564 23.7805 22.216 23.8418 22.7152 23.8953C23.7018 24.0063 23.8048 23.9987 23.888 23.8226C23.9236 23.7499 23.9078 23.5241 23.8285 22.8353C23.7691 22.3455 23.7057 21.8977 23.6819 21.8441C23.6106 21.6719 23.3808 21.6069 23.2184 21.7179C23.052 21.8288 23.0441 21.9589 23.151 22.6899C23.1669 22.8123 23.0876 22.7435 22.1684 21.8556C21.2175 20.9372 21.1621 20.8913 21.0194 20.8913C20.9243 20.8913 20.8451 20.918 20.7936 20.9678Z" fill="black" stroke="black" stroke-width="0.2"/>
</g>
<defs>
<clipPath id="clip0_588_654">
<rect width="20" height="20" fill="white" transform="translate(8 8)"/>
</clipPath>
</defs>
</svg>
