<svg width="22" height="22" viewBox="0 0 22 22" fill="none" xmlns="http://www.w3.org/2000/svg">
<path d="M14.6213 18.6497L11 20.625L7.3787 18.6497C6.18597 17.9992 5.19054 17.0393 4.49701 15.871C3.80349 14.7028 3.4375 13.3692 3.4375 12.0106V4.8125C4.34918 4.8125 5.22352 4.45034 5.86818 3.80568C6.51284 3.16102 6.875 2.28668 6.875 1.375H15.125C15.125 2.28668 15.4872 3.16102 16.1318 3.80568C16.7765 4.45034 17.6508 4.8125 18.5625 4.8125V12.0106C18.5625 13.3692 18.1965 14.7028 17.503 15.871C16.8095 17.0393 15.814 17.9992 14.6213 18.6497Z" fill="white" stroke="black" stroke-linecap="round" stroke-linejoin="round"/>
<path d="M11 15.125C13.2782 15.125 15.125 13.2782 15.125 11C15.125 8.72183 13.2782 6.875 11 6.875C8.72183 6.875 6.875 8.72183 6.875 11C6.875 13.2782 8.72183 15.125 11 15.125Z" fill="white" stroke="black" stroke-linecap="round" stroke-linejoin="round"/>
<path d="M12.0312 11.0625C12.6008 11.0625 13.0625 10.6008 13.0625 10.0312C13.0625 9.46171 12.6008 9 12.0312 9C11.4617 9 11 9.46171 11 10.0312C11 10.6008 11.4617 11.0625 12.0312 11.0625Z" fill="white" stroke="black" stroke-linecap="round" stroke-linejoin="round"/>
<path d="M12.375 13.75C12.5648 13.75 12.7188 13.5961 12.7188 13.4062C12.7188 13.2164 12.5648 13.0625 12.375 13.0625C12.1852 13.0625 12.0312 13.2164 12.0312 13.4062C12.0312 13.5961 12.1852 13.75 12.375 13.75Z" fill="black"/>
<path d="M9.28125 9.96875C9.4711 9.96875 9.625 9.81485 9.625 9.625C9.625 9.43515 9.4711 9.28125 9.28125 9.28125C9.0914 9.28125 8.9375 9.43515 8.9375 9.625C8.9375 9.81485 9.0914 9.96875 9.28125 9.96875Z" fill="black"/>
<path d="M9.34375 12.6875C9.5336 12.6875 9.6875 12.5336 9.6875 12.3438C9.6875 12.1539 9.5336 12 9.34375 12C9.1539 12 9 12.1539 9 12.3438C9 12.5336 9.1539 12.6875 9.34375 12.6875Z" fill="black"/>
<path d="M11 5.5V6.875" stroke="black" stroke-linecap="round" stroke-linejoin="round"/>
<path d="M11 15.125V16.5" stroke="black" stroke-linecap="round" stroke-linejoin="round"/>
<path d="M7.10938 7.11084L8.08164 8.0831" stroke="black" stroke-linecap="round" stroke-linejoin="round"/>
<path d="M13.918 13.917L14.8902 14.8893" stroke="black" stroke-linecap="round" stroke-linejoin="round"/>
<path d="M5.5 11H6.875" stroke="black" stroke-linecap="round" stroke-linejoin="round"/>
<path d="M15.125 11H16.5" stroke="black" stroke-linecap="round" stroke-linejoin="round"/>
<path d="M7.10938 14.8893L8.08164 13.917" stroke="black" stroke-linecap="round" stroke-linejoin="round"/>
<path d="M13.918 8.0831L14.8902 7.11084" stroke="black" stroke-linecap="round" stroke-linejoin="round"/>
</svg>
