<svg width="36" height="36" viewBox="0 0 36 36" fill="none" xmlns="http://www.w3.org/2000/svg">
<rect x="0.5" y="0.5" width="35" height="35" rx="9.5" fill="white" stroke="black"/>
<path d="M18 19.5625C18.309 19.5625 18.6111 19.4709 18.8681 19.2992C19.125 19.1275 19.3253 18.8835 19.4436 18.5979C19.5618 18.3124 19.5928 17.9983 19.5325 17.6952C19.4722 17.3921 19.3234 17.1137 19.1049 16.8951C18.8863 16.6766 18.6079 16.5278 18.3048 16.4675C18.0017 16.4072 17.6876 16.4382 17.4021 16.5564C17.1165 16.6747 16.8725 16.875 16.7008 17.1319C16.5291 17.3889 16.4375 17.691 16.4375 18C16.438 18.4143 16.6028 18.8114 16.8957 19.1043C17.1886 19.3972 17.5858 19.562 18 19.5625ZM18 17.0625C18.1854 17.0625 18.3667 17.1175 18.5208 17.2205C18.675 17.3235 18.7952 17.4699 18.8661 17.6412C18.9371 17.8125 18.9557 18.001 18.9195 18.1829C18.8833 18.3648 18.794 18.5318 18.6629 18.6629C18.5318 18.794 18.3648 18.8833 18.1829 18.9195C18.001 18.9557 17.8125 18.9371 17.6412 18.8661C17.4699 18.7952 17.3235 18.675 17.2205 18.5208C17.1175 18.3667 17.0625 18.1854 17.0625 18C17.0625 17.7514 17.1613 17.5129 17.3371 17.3371C17.5129 17.1613 17.7514 17.0625 18 17.0625Z" fill="black" stroke="black" stroke-width="0.2"/>
<path d="M9.88095 22.0644L10.0372 22.335L10.5785 22.0225L10.4222 21.7519C10.0719 21.145 10.7319 19.7331 12.3494 18.1184C13.0693 18.7787 13.835 19.3873 14.6406 19.9397C14.6928 20.5856 14.7706 21.2088 14.8703 21.8016C14.5578 21.8953 14.2453 21.9797 13.9475 22.0472L13.6428 22.1159L13.7803 22.7256L14.0853 22.6569C14.3772 22.5913 14.6791 22.5091 14.9835 22.42C15.5731 25.3438 16.7188 27.375 18 27.375C19.1941 27.375 20.2685 25.6106 20.8869 23.0072C21.4002 23.1634 21.9218 23.2907 22.4494 23.3884C22.9496 23.4832 23.4572 23.5337 23.9663 23.5394C25.0494 23.5394 25.7956 23.25 26.1203 22.6875L26.2766 22.4169L25.7353 22.1044L25.5791 22.375C25.275 22.9022 24.1185 23.0544 22.56 22.7731C22.0408 22.6765 21.5276 22.5501 21.0228 22.3947C21.2243 21.3688 21.3517 20.3298 21.4041 19.2856C21.9578 18.9028 22.4791 18.5044 22.9644 18.1003C23.3514 18.4396 23.721 18.7982 24.0719 19.1747L24.2838 19.4041L24.7431 18.9803L24.5313 18.75C24.2038 18.3953 23.8372 18.04 23.4428 17.6875C23.9591 17.2319 24.4433 16.7411 24.8919 16.2187C26.1435 14.7384 26.5794 13.485 26.1203 12.6891C25.6613 11.8931 24.3566 11.6447 22.4494 11.9881C21.8718 12.0962 21.3013 12.2391 20.741 12.4162C20.106 10.1319 19.1038 8.625 18 8.625H17.6875V9.25H18C18.6875 9.25 19.561 10.4759 20.151 12.6081C19.1904 12.9474 18.2544 13.3528 17.3497 13.8213C16.795 13.5781 16.2456 13.365 15.7081 13.1825C15.791 12.8266 15.8803 12.4806 15.9816 12.1553L16.0753 11.8572L15.4788 11.6697L15.385 11.9681C15.2841 12.2928 15.1944 12.6372 15.1113 12.9906C14.599 12.8347 14.0784 12.7076 13.5519 12.61C11.6456 12.2662 10.3403 12.5163 9.88095 13.3109C9.31845 14.2872 10.1688 15.9572 11.9025 17.6859C10.1688 19.4181 9.31751 21.0881 9.88095 22.0644ZM21.4322 18.5C21.4357 18.3344 21.4375 18.1677 21.4375 18C21.4375 17.6147 21.4275 17.2347 21.4097 16.86C21.7847 17.1308 22.1422 17.407 22.4822 17.6884C22.1491 17.9634 21.7991 18.234 21.4322 18.5ZM22.5588 12.6034C24.1175 12.3222 25.2738 12.4756 25.5778 13.0019C25.8819 13.5281 25.4356 14.6066 24.4131 15.8144C23.9663 16.335 23.4829 16.8231 22.9666 17.275C22.4681 16.8591 21.9269 16.4531 21.3597 16.0619C21.2806 15.0382 21.125 14.022 20.8941 13.0216C21.4399 12.8484 21.9959 12.7087 22.5588 12.6034ZM15.3038 20.3803C15.6206 20.5839 15.9465 20.7827 16.2813 20.9769C16.4006 21.0459 16.521 21.1094 16.641 21.1759C16.2435 21.3391 15.8513 21.4834 15.4647 21.6134C15.401 21.2216 15.3473 20.8105 15.3038 20.3803ZM18 26.75C17.1966 26.75 16.1391 25.075 15.5775 22.2356C16.1553 22.0441 16.7478 21.8147 17.345 21.5531C18.2968 22.0469 19.2835 22.4701 20.2972 22.8194C19.7135 25.3031 18.7469 26.75 18 26.75ZM20.4285 22.2053C19.6231 21.9256 18.8357 21.5967 18.0706 21.2206C18.6231 20.9556 19.1753 20.6675 19.7188 20.3538C20.0725 20.1497 20.415 19.9362 20.7519 19.7194C20.6949 20.5538 20.5869 21.384 20.4285 22.2053ZM20.3056 13.2162C20.4873 14.0091 20.6179 14.8129 20.6966 15.6225C20.3766 15.4172 20.0519 15.2163 19.7188 15.0234C19.1731 14.7084 18.6225 14.4191 18.0735 14.155C18.7988 13.7994 19.5441 13.486 20.3056 13.2162ZM15.5772 13.7966C15.926 13.9162 16.2813 14.055 16.6397 14.2028C16.5203 14.2691 16.4006 14.3322 16.2819 14.4006C15.9763 14.5773 15.6782 14.7582 15.3878 14.9434C15.44 14.5494 15.5047 14.1681 15.5772 13.7966ZM15.296 15.75C15.706 15.4778 16.1341 15.2069 16.5941 14.9412C16.8497 14.7937 17.1062 14.6518 17.3635 14.5153C18.0428 14.8238 18.7281 15.1716 19.4066 15.5644C19.8713 15.8328 20.3244 16.1153 20.761 16.4081C20.7938 16.9175 20.8125 17.4478 20.8125 18C20.8125 18.3225 20.8065 18.6376 20.7944 18.9453C20.3488 19.2447 19.886 19.5356 19.4063 19.8125C18.7331 20.2012 18.0469 20.5528 17.3647 20.8625C17.1072 20.725 16.8502 20.5827 16.5938 20.4356C16.1128 20.1581 15.6656 19.8747 15.2394 19.5897C15.2063 19.0809 15.1875 18.5516 15.1875 18C15.1875 17.2375 15.2256 16.4825 15.296 15.75ZM14.59 19.1394C13.9648 18.6916 13.3669 18.2068 12.7997 17.6875C13.3792 17.1574 13.9905 16.6633 14.6303 16.2078C14.5869 16.7972 14.5625 17.3962 14.5625 18C14.5625 18.385 14.5725 18.7647 14.59 19.1394ZM10.4222 13.625C10.7266 13.0981 11.8831 12.9459 13.4413 13.2269C13.9604 13.3232 14.4736 13.4496 14.9781 13.6053C14.8644 14.1769 14.7728 14.7747 14.7053 15.3919C13.876 15.9565 13.0887 16.5803 12.3494 17.2584C10.7319 15.6434 10.0719 14.2316 10.4222 13.625Z" fill="black" stroke="black" stroke-width="0.2"/>
<path d="M11.0576 22.6016C11.0576 22.787 11.1125 22.9682 11.2156 23.1224C11.3186 23.2766 11.465 23.3967 11.6363 23.4677C11.8076 23.5387 11.9961 23.5572 12.178 23.521C12.3598 23.4849 12.5269 23.3956 12.658 23.2645C12.7891 23.1334 12.8784 22.9663 12.9145 22.7845C12.9507 22.6026 12.9322 22.4141 12.8612 22.2428C12.7902 22.0715 12.6701 21.9251 12.5159 21.8221C12.3617 21.719 12.1805 21.6641 11.9951 21.6641C11.7464 21.6641 11.508 21.7628 11.3321 21.9387C11.1563 22.1145 11.0576 22.3529 11.0576 22.6016ZM12.3076 22.6016C12.3076 22.6634 12.2892 22.7238 12.2549 22.7752C12.2206 22.8266 12.1717 22.8666 12.1146 22.8903C12.0575 22.9139 11.9947 22.9201 11.9341 22.9081C11.8735 22.896 11.8178 22.8662 11.7741 22.8225C11.7304 22.7788 11.7006 22.7231 11.6886 22.6625C11.6765 22.6019 11.6827 22.5391 11.7063 22.482C11.73 22.4249 11.7701 22.3761 11.8214 22.3417C11.8728 22.3074 11.9332 22.2891 11.9951 22.2891C12.0779 22.2891 12.1574 22.322 12.216 22.3806C12.2746 22.4392 12.3076 22.5187 12.3076 22.6016Z" fill="black" stroke="black" stroke-width="0.2"/>
<path d="M24.5891 20.5898C24.5891 20.7753 24.644 20.9565 24.747 21.1107C24.8501 21.2649 24.9965 21.385 25.1678 21.456C25.3391 21.5269 25.5276 21.5455 25.7094 21.5093C25.8913 21.4732 26.0584 21.3839 26.1895 21.2528C26.3206 21.1216 26.4099 20.9546 26.446 20.7727C26.4822 20.5909 26.4636 20.4024 26.3927 20.2311C26.3217 20.0598 26.2016 19.9134 26.0474 19.8103C25.8932 19.7073 25.712 19.6523 25.5266 19.6523C25.2779 19.6523 25.0395 19.7511 24.8636 19.9269C24.6878 20.1027 24.5891 20.3412 24.5891 20.5898ZM25.8391 20.5898C25.8391 20.6517 25.8207 20.7121 25.7864 20.7635C25.752 20.8148 25.7032 20.8549 25.6461 20.8786C25.589 20.9022 25.5262 20.9084 25.4656 20.8963C25.405 20.8843 25.3493 20.8545 25.3056 20.8108C25.2619 20.7671 25.2321 20.7114 25.2201 20.6508C25.208 20.5902 25.2142 20.5274 25.2378 20.4703C25.2615 20.4132 25.3015 20.3643 25.3529 20.33C25.4043 20.2957 25.4647 20.2773 25.5266 20.2773C25.6094 20.2773 25.6889 20.3103 25.7475 20.3689C25.8061 20.4275 25.8391 20.507 25.8391 20.5898Z" fill="black" stroke="black" stroke-width="0.2"/>
<path d="M17.4163 10.1875C17.4163 10.0021 17.3613 9.82082 17.2583 9.66665C17.1552 9.51248 17.0088 9.39232 16.8375 9.32136C16.6662 9.25041 16.4777 9.23184 16.2959 9.26801C16.114 9.30419 15.947 9.39348 15.8158 9.52459C15.6847 9.6557 15.5954 9.82275 15.5593 10.0046C15.5231 10.1865 15.5417 10.375 15.6126 10.5463C15.6836 10.7176 15.8037 10.864 15.9579 10.967C16.1121 11.07 16.2933 11.125 16.4788 11.125C16.7274 11.125 16.9659 11.0262 17.1417 10.8504C17.3175 10.6746 17.4163 10.4361 17.4163 10.1875ZM16.1663 10.1875C16.1663 10.1257 16.1846 10.0653 16.2189 10.0139C16.2533 9.96249 16.3021 9.92244 16.3592 9.89879C16.4163 9.87514 16.4791 9.86895 16.5397 9.88101C16.6003 9.89306 16.656 9.92283 16.6997 9.96653C16.7434 10.0102 16.7732 10.0659 16.7853 10.1265C16.7973 10.1872 16.7911 10.25 16.7675 10.3071C16.7438 10.3642 16.7038 10.413 16.6524 10.4473C16.601 10.4817 16.5406 10.5 16.4788 10.5C16.3959 10.5 16.3164 10.4671 16.2578 10.4085C16.1992 10.3499 16.1663 10.2704 16.1663 10.1875Z" fill="black" stroke="black" stroke-width="0.2"/>
</svg>
