<svg width="36" height="36" viewBox="0 0 36 36" fill="none" xmlns="http://www.w3.org/2000/svg">
<rect x="0.5" y="0.5" width="35" height="35" rx="11.5" fill="white" stroke="black"/>
<path d="M23.3184 12.6029L23.5375 11.7662H24.4937C24.673 11.7662 24.8124 11.6268 24.8124 11.4475V10.0531C24.8124 9.87382 24.673 9.73438 24.4937 9.73438H11.4857C11.3064 9.73438 11.167 9.87382 11.167 10.0531V11.4475C11.167 11.6268 11.3064 11.7662 11.4857 11.7662H12.4419L12.661 12.6029C13.2188 14.9137 14.8722 16.7463 17.1032 17.5631V18.32C14.8921 19.1368 13.2387 20.9694 12.661 23.2802L12.3821 24.3161H11.4857C11.3064 24.3161 11.167 24.4555 11.167 24.6348V26.0292C11.167 26.2085 11.3064 26.3479 11.4857 26.3479H24.4937C24.673 26.3479 24.8124 26.2085 24.8124 26.0292V24.6348C24.8124 24.4555 24.673 24.3161 24.4937 24.3161H23.5973L23.3383 23.2603C22.7407 20.9694 21.0873 19.1368 18.8762 18.32V17.5631C21.0873 16.7463 22.7407 14.9137 23.3184 12.6029ZM11.8044 10.3718H24.155V11.1089H11.8044V10.3718ZM24.175 25.7105H11.8244V24.9734H24.175V25.7105ZM18.4777 18.818C20.6092 19.5153 22.2028 21.2483 22.7407 23.4196L22.9598 24.3161H12.9997L13.2188 23.4196C13.7766 21.2483 15.3702 19.5153 17.4817 18.818C17.6013 18.7782 17.6809 18.6587 17.6809 18.5392V17.3639C17.6809 17.2443 17.6013 17.1248 17.4817 17.085C15.3702 16.3479 13.7766 14.6348 13.2387 12.4635L13.0594 11.7662H22.92L22.7407 12.4635C22.2028 14.6348 20.6092 16.3479 18.4777 17.0651C18.3582 17.1049 18.2785 17.2244 18.2785 17.3439V18.5192C18.2785 18.6587 18.3582 18.7782 18.4777 18.818Z" fill="black" stroke="black" stroke-width="0.5"/>
</svg>
