<svg width="36" height="36" viewBox="0 0 36 36" fill="none" xmlns="http://www.w3.org/2000/svg">
<rect x="0.5" y="0.5" width="35" height="35" rx="11.5" fill="white" stroke="black"/>
<path d="M20.2657 10.5031C18.2579 10.7023 16.3126 11.3156 14.629 12.2844C14.1915 12.5383 14.0938 12.7883 14.3243 13.0461C14.5001 13.2453 14.6836 13.2258 15.129 12.9602C16.7735 11.9875 18.9141 11.3781 21.0118 11.2883C22.629 11.2141 24.1915 11.4016 25.5782 11.8352C25.8672 11.925 26.1915 12.0031 26.293 12.0148C26.461 12.0305 26.4961 12.0187 26.5977 11.9211C26.7501 11.7727 26.7618 11.4953 26.6133 11.3508C26.4063 11.1398 24.8751 10.7414 23.5665 10.5539C23.0508 10.4797 20.8399 10.4445 20.2657 10.5031Z" fill="black" stroke="black" stroke-width="0.2"/>
<path d="M21.4961 13.0235C21.4336 13.0313 21.1875 13.0586 20.9493 13.0821C19.8282 13.1953 18.586 13.5078 17.5196 13.9532C16.9454 14.1914 16.3321 14.5157 16.2461 14.625C16.1211 14.7852 16.1368 15.0078 16.2774 15.1524C16.461 15.3321 16.6133 15.3125 17.2032 15.0157C18.6836 14.2735 20.2618 13.8868 21.9844 13.8321C23.3711 13.7891 24.4961 13.9414 25.8594 14.3516C26.2657 14.4766 26.336 14.4844 26.4571 14.4453C26.6329 14.3868 26.711 14.2735 26.711 14.0703C26.711 13.8164 26.6094 13.7266 26.1914 13.5899C25.4922 13.3672 24.7579 13.2032 23.9766 13.0977C23.5508 13.0391 21.7657 12.9844 21.4961 13.0235Z" fill="black" stroke="black" stroke-width="0.2"/>
<path d="M12.6992 13.6992C12.4648 13.7578 12.2383 13.9336 11.8008 14.375C11.2773 14.9062 11.1875 15.0742 11.1875 15.4805C11.1875 15.9023 11.2656 16.0312 11.9375 16.7227L12.5195 17.3164L12.6093 18.6953L12.7031 20.0742L11.0156 21.7617C10.0664 22.7148 9.31247 23.5 9.28904 23.5625C9.21091 23.7734 9.28904 23.8828 10.1406 24.7305L10.9531 25.5391H11.1445H11.3359L13.0586 23.8242L14.7773 22.1133L16.1718 22.2148L17.5664 22.3164L18.1836 22.9258C18.8672 23.5977 18.9375 23.6445 19.3672 23.6406C19.7656 23.6367 19.9336 23.543 20.4883 22.9883C21.0508 22.4219 21.1406 22.2656 21.1445 21.8477C21.1445 21.3477 21.1914 21.4023 18.7343 18.9453L16.5351 16.75H16.332C16.1562 16.75 16.1211 16.7656 16.0312 16.8711C15.957 16.957 15.9297 17.0352 15.9297 17.1523C15.9297 17.3164 15.9297 17.3164 18.0937 19.4844C19.2851 20.6758 20.2773 21.6914 20.3008 21.7383C20.3242 21.7852 20.3437 21.8438 20.3437 21.8711C20.3437 21.8984 20.1484 22.1172 19.9062 22.3633C19.539 22.7344 19.4492 22.8047 19.3476 22.8047C19.2422 22.8047 18.8359 22.4102 15.6054 19.1797C13.2929 16.8633 11.9843 15.5312 11.9843 15.4805C11.9843 15.3828 12.8789 14.4844 12.9804 14.4844C13.0234 14.4844 13.3086 14.7383 13.6601 15.0859C13.9961 15.4141 14.3125 15.7109 14.3672 15.75C14.5234 15.8516 14.7461 15.832 14.8789 15.6992C14.9726 15.6055 14.9922 15.5508 14.9922 15.3984V15.2148L14.3437 14.5625C13.9492 14.1641 13.625 13.8672 13.5078 13.8047C13.3008 13.6914 12.9218 13.6406 12.6992 13.6992ZM16.6601 21.4219C16.6562 21.4258 16.1875 21.3945 15.6172 21.3516C15.0468 21.3125 14.539 21.2891 14.4843 21.3008C14.4258 21.3164 13.7461 21.9648 12.7656 22.9453L11.1445 24.5625L10.7031 24.1211L10.2656 23.6836L10.5703 23.3789L10.875 23.0781L11.0859 23.2969C11.2031 23.4141 11.3476 23.5391 11.4062 23.5703C11.6992 23.7266 12.0234 23.5312 12.0234 23.1992C12.0234 23.0742 11.8789 22.8594 11.6367 22.6289L11.4765 22.4766L12.5117 21.4375L13.5468 20.3984L13.5429 20.2266C13.5429 20.1289 13.5117 19.625 13.4765 19.1016L13.4062 18.1562L15.039 19.7852C15.9336 20.6797 16.664 21.418 16.6601 21.4219Z" fill="black" stroke="black" stroke-width="0.2"/>
<path d="M22.1211 15.5815C21.5703 15.6245 20.875 15.7456 20.3047 15.8901C19.4102 16.1167 18.2461 16.5776 18.1602 16.7417C18.1367 16.7847 18.1172 16.894 18.1172 16.9839C18.1172 17.1128 18.1406 17.1714 18.2305 17.2612C18.3945 17.4214 18.5352 17.4097 19.0625 17.1831C20.3281 16.6401 21.5898 16.3862 23.0195 16.3862C24.0664 16.3862 24.8984 16.5073 25.8438 16.7925C26.332 16.937 26.4492 16.937 26.5977 16.7925C26.7461 16.644 26.7578 16.3784 26.625 16.2261C26.4688 16.0542 25.3906 15.769 24.4023 15.6401C23.8242 15.562 22.6758 15.5347 22.1211 15.5815Z" fill="black" stroke="black" stroke-width="0.2"/>
<path d="M22.7071 18.1439C21.5548 18.2806 20.3438 18.5931 20.1446 18.8041C20.0079 18.9525 20.0118 19.2103 20.1563 19.3548C20.3048 19.5033 20.4923 19.4955 21.0548 19.3158C21.5313 19.1673 22.0782 19.0502 22.6485 18.972C23.1407 18.9056 24.2696 18.9173 24.7774 18.9955C25.1993 19.058 25.8438 19.2025 26.0587 19.2845C26.1212 19.308 26.2384 19.3275 26.3243 19.3275C26.6485 19.3275 26.8321 18.9564 26.6485 18.6752C26.5548 18.5267 25.6915 18.2923 24.8204 18.1752C24.4063 18.1205 23.0587 18.1009 22.7071 18.1439Z" fill="black" stroke="black" stroke-width="0.2"/>
<path d="M23.1562 20.6568C22.6875 20.7037 22.2578 20.774 22.1718 20.817C22.0586 20.8756 21.9726 21.0826 21.9961 21.2311C22.0234 21.3912 22.0742 21.4615 22.2265 21.5396C22.3242 21.5904 22.3906 21.5904 22.7968 21.5318C23.3554 21.4498 24.5468 21.4381 25.0507 21.5084C25.2461 21.5357 25.6211 21.6139 25.8867 21.6803C26.3515 21.7936 26.375 21.7975 26.5039 21.735C26.7617 21.6139 26.8086 21.2545 26.5898 21.0709C26.4609 20.9615 26.0468 20.8443 25.4023 20.735C24.8593 20.6412 23.7343 20.6021 23.1562 20.6568Z" fill="black" stroke="black" stroke-width="0.2"/>
</svg>
