<svg width="36" height="36" viewBox="0 0 36 36" fill="none" xmlns="http://www.w3.org/2000/svg">
<rect x="0.5" y="0.5" width="35" height="35" rx="11.5" fill="white" stroke="black"/>
<g clip-path="url(#clip0_588_575)">
<path d="M17.7657 8.78146C17.6758 8.8713 17.6602 9.11739 17.7383 9.22677C17.8047 9.31661 18.0352 9.36349 18.4102 9.36739C18.5821 9.36739 18.961 9.40255 19.254 9.44552C21.6719 9.80099 23.8282 11.1721 25.1993 13.2229C25.9219 14.3088 26.4063 15.5861 26.5704 16.8674C26.6915 17.7971 26.6368 19.0432 26.4336 19.9065C25.8711 22.3244 24.4063 24.2815 22.211 25.5549C22.1055 25.6174 22.0235 25.6526 22.0235 25.6408C22.0235 25.6291 22.129 25.3557 22.2579 25.0315C22.5586 24.2776 22.5625 24.1018 22.2735 24.0197C22.1407 23.9807 21.9336 24.0471 21.8946 24.1369C21.8829 24.1682 21.75 24.4885 21.5938 24.8557C20.9688 26.3244 20.9336 26.508 21.2305 26.6252C21.2891 26.6486 21.9063 26.7776 22.5938 26.9104C23.8165 27.1486 23.8555 27.1526 23.9532 27.0861C24.1524 26.9572 24.1836 26.719 24.0157 26.5666C23.9688 26.5197 23.7461 26.4572 23.3829 26.383C23.0743 26.3244 22.7383 26.258 22.6368 26.2346L22.4493 26.1955L22.6954 26.051C24.8438 24.7932 26.418 22.7072 27.0235 20.3166C27.2461 19.4221 27.2774 19.1682 27.2774 18.0002C27.2774 17.0432 27.2657 16.8713 27.1836 16.4182C26.7305 13.8791 25.3047 11.6838 23.1954 10.2658C21.7383 9.28536 19.9102 8.70333 18.2891 8.70333C17.8946 8.70333 17.836 8.71114 17.7657 8.78146Z" fill="black" stroke="black" stroke-width="0.4"/>
<path d="M11.9805 8.97193C11.8594 9.09302 11.8398 9.18677 11.9102 9.33912C11.9727 9.47584 12.0508 9.50709 12.7461 9.6399C13.0898 9.7063 13.4102 9.77271 13.4609 9.78443C13.5391 9.80396 13.5156 9.82349 13.2969 9.9524C10.8086 11.4094 9.14062 13.9251 8.76172 16.8001C8.68359 17.4055 8.68359 18.593 8.76172 19.1985C9.03516 21.2805 9.94531 23.1204 11.4336 24.6008C13.0898 26.2493 15.2656 27.2102 17.5156 27.2844C18.1211 27.3079 18.1484 27.304 18.2305 27.2219C18.3242 27.1282 18.3438 26.8821 18.2617 26.7727C18.1953 26.6829 17.9648 26.636 17.5898 26.6321C17.418 26.6321 17.0391 26.5969 16.7461 26.554C13.6797 26.1047 11.0938 24.0383 9.9375 21.1243C9.28516 19.4758 9.17969 17.4641 9.65625 15.7297C10.2109 13.7102 11.4883 11.9407 13.2344 10.7844C13.582 10.554 13.9766 10.3274 13.9766 10.3586C13.9766 10.3704 13.8711 10.6477 13.7383 10.9758C13.4922 11.593 13.4648 11.7141 13.543 11.8586C13.6445 12.0461 14.0078 12.0305 14.1094 11.8313C14.1875 11.679 14.75 10.3235 14.8594 10.0266C15.0039 9.63209 14.9805 9.4563 14.7695 9.37427C14.6523 9.3274 12.2734 8.85865 12.1602 8.85865C12.125 8.85865 12.043 8.90943 11.9805 8.97193Z" fill="black" stroke="black" stroke-width="0.4"/>
<path d="M17.5078 12.0302C16.1406 13.1279 14.4844 13.8115 12.7305 13.9951C12.0351 14.0693 12.0547 14.0498 12.0195 14.7099C11.9922 15.2373 12.0312 16.2216 12.1016 16.7099C12.3906 18.7724 13.2812 20.6279 14.6758 22.0732C15.4531 22.8779 16.293 23.4951 17.2461 23.9638C17.9844 24.3271 18.0273 24.3271 18.7851 23.9482C19.6797 23.499 20.3281 23.042 21.0586 22.3349C22.457 20.9873 23.3828 19.3076 23.7851 17.3779C23.9258 16.7021 23.9805 16.0615 23.9805 15.1865C23.9805 14.3545 23.9609 14.1943 23.8476 14.1006C23.8164 14.0732 23.5547 14.0263 23.2656 13.9951C21.5195 13.8115 19.8555 13.1279 18.4922 12.0302C18.2031 11.7959 18.1172 11.749 18 11.749C17.8828 11.749 17.7969 11.7959 17.5078 12.0302ZM18.2851 12.7177C19.5664 13.7177 21.2187 14.4013 22.8789 14.6201C23.1016 14.6513 23.293 14.6865 23.3086 14.6982C23.3555 14.7451 23.3203 15.9912 23.2539 16.4795C22.8633 19.5146 21.0703 22.081 18.4453 23.374L18.0039 23.5888L17.6016 23.3935C16.7539 22.9834 15.9883 22.4365 15.3047 21.749C13.8633 20.3076 13.0156 18.5615 12.7461 16.4795C12.6797 15.9912 12.6445 14.7451 12.6914 14.6982C12.707 14.6865 12.9023 14.6513 13.125 14.6201C14.2851 14.4677 15.4531 14.081 16.5351 13.4912C16.9141 13.2841 17.582 12.8427 17.8047 12.6513C17.8789 12.5849 17.9648 12.5341 17.9922 12.5302C18.0195 12.5302 18.1484 12.6162 18.2851 12.7177Z" fill="black" stroke="black" stroke-width="0.4"/>
<path d="M17.418 14.9922C17.125 15.0547 16.8594 15.1523 16.5352 15.3164C16.0977 15.543 15.543 16.0938 15.3164 16.5352C15.0352 17.082 14.9727 17.3477 14.9727 18C14.9727 18.6523 15.0352 18.918 15.3164 19.4648C15.543 19.9062 16.0938 20.457 16.5352 20.6836C17.082 20.9648 17.3477 21.0273 18 21.0273C18.6523 21.0273 18.918 20.9648 19.4648 20.6836C19.9062 20.457 20.457 19.9062 20.6836 19.4648C20.9648 18.918 21.0273 18.6523 21.0273 18C21.0273 17.3477 20.9648 17.082 20.6836 16.5352C20.457 16.0938 19.9023 15.543 19.4648 15.3164C18.9531 15.0547 18.6797 14.9844 18.0977 14.9688C17.8203 14.9609 17.5117 14.9727 17.418 14.9922ZM18.7578 15.7344C19.5 15.9883 20.1016 16.6289 20.3047 17.3828C20.4219 17.8203 20.4023 18.3594 20.2539 18.7812C20.0039 19.4805 19.4336 20.0391 18.7344 20.2695C18.5 20.3477 18.3672 20.3633 18 20.3633C17.6328 20.3633 17.5 20.3477 17.2656 20.2695C16.3125 19.957 15.6758 19.1133 15.625 18.0977C15.5742 16.9727 16.2734 16.0195 17.3906 15.6875C17.7344 15.5859 18.3906 15.6094 18.7578 15.7344Z" fill="black" stroke="black" stroke-width="0.4"/>
<path d="M18.3438 17.5978L17.5703 18.3674L17.2266 18.0314C16.8594 17.6642 16.7461 17.6096 16.5625 17.7033C16.4336 17.7697 16.3984 17.8322 16.3984 18.0119C16.3984 18.1213 16.4688 18.2072 16.918 18.6564C17.6484 19.383 17.5 19.4182 18.6719 18.2424C19.5547 17.3596 19.6016 17.3049 19.6016 17.1642C19.6016 16.965 19.4648 16.8283 19.2656 16.8283C19.125 16.8283 19.0742 16.8713 18.3438 17.5978Z" fill="black" stroke="black" stroke-width="0.4"/>
</g>
<defs>
<clipPath id="clip0_588_575">
<rect width="20" height="20" fill="white" transform="translate(8 8)"/>
</clipPath>
</defs>
</svg>
