<svg width="36" height="36" viewBox="0 0 36 36" fill="none" xmlns="http://www.w3.org/2000/svg">
<rect x="0.5" y="0.5" width="35" height="35" rx="11.5" fill="white" stroke="black"/>
<path fill-rule="evenodd" clip-rule="evenodd" d="M24.3584 12.272C24.2649 12.1002 24.0831 11.9952 23.8876 12.0002C22.3376 12.0395 18.8441 12.9266 16.8701 16.1687C14.736 14.8215 12.4137 15.0124 11.5612 15.2599C11.3899 15.3096 11.256 15.4435 11.2063 15.6149C10.8812 16.7344 10.6916 19.4565 12.6299 21.3949C13.5453 22.3102 14.491 22.68 15.3488 22.6945C16.0231 22.7058 16.6119 22.4968 17.0524 22.2072C17.3374 22.5076 17.6388 22.7378 17.9113 22.8951C18.5453 23.2611 19.5991 23.5652 20.7604 23.3315C21.9451 23.0932 23.1772 22.3084 24.1588 20.6083C26.1121 17.2251 25.1122 13.6578 24.3584 12.272ZM16.4312 21.3679C16.3063 21.147 16.1964 20.9061 16.1087 20.6458C15.781 19.6736 15.7773 18.475 16.3843 17.0948C14.7586 16.0364 12.9809 16.0483 12.1364 16.1962C11.9261 17.2505 11.951 19.2428 13.3665 20.6583C14.1193 21.4111 14.8166 21.6436 15.3664 21.6529C15.7915 21.6601 16.159 21.5346 16.4312 21.3679ZM17.6699 16.862C19.2574 14.1125 22.1048 13.2077 23.5882 13.0623C24.204 14.4196 24.8442 17.338 23.2567 20.0875C22.4049 21.5628 21.4097 22.1383 20.555 22.3103C20.1177 22.3983 19.7003 22.384 19.3363 22.3155L22.1555 17.147C22.2932 16.8945 22.2002 16.5781 21.9476 16.4404C21.6951 16.3026 21.3788 16.3957 21.2411 16.6482L19.7665 19.3516L19.588 18.8163C19.4971 18.5434 19.2021 18.3959 18.9292 18.487C18.6563 18.5779 18.5089 18.8729 18.5998 19.1457L19.0849 20.601L18.3521 21.9445C17.9152 21.6668 17.3651 21.1122 17.0957 20.3131C16.8173 19.487 16.8181 18.3373 17.6699 16.862Z" fill="black"/>
</svg>
