<svg width="36" height="36" viewBox="0 0 36 36" fill="none" xmlns="http://www.w3.org/2000/svg">
<rect x="0.5" y="0.5" width="35" height="35" rx="11.5" fill="white" stroke="black"/>
<path d="M16.297 8.07853C16.254 8.1215 15.586 9.42619 14.8087 10.977C14.0314 12.5317 13.3946 13.8051 13.3907 13.809C13.3868 13.8129 11.9767 14.0121 10.2618 14.2465C6.71494 14.7309 7.0001 14.6606 7.0001 15.0629V15.2856L9.22666 17.5121C10.5431 18.8285 11.4532 19.7699 11.4532 19.809C11.4532 19.852 11.1993 21.2113 10.8868 22.8324C10.5743 24.4535 10.3204 25.8403 10.3204 25.9145C10.3204 25.9848 10.3399 26.0863 10.3634 26.1371C10.4493 26.3246 10.7931 26.4301 10.9181 26.3051C10.9454 26.2738 12.2618 25.6176 13.8399 24.8403C15.4181 24.0668 16.7501 23.4106 16.8009 23.3832C16.8517 23.352 16.9259 23.2504 16.9649 23.1449C17.0314 22.9809 17.0314 22.9418 16.9845 22.8324C16.9259 22.684 16.7149 22.4926 16.6134 22.4926C16.5743 22.4926 15.3868 23.0629 13.9689 23.7621C12.5548 24.4574 11.3907 25.016 11.3829 25.0004C11.379 24.9848 11.6134 23.7856 11.9024 22.3363C12.1915 20.8871 12.4298 19.6371 12.4298 19.5551C12.4298 19.477 12.4103 19.3676 12.3868 19.3168C12.3634 19.266 11.4571 18.3754 10.3751 17.3363C9.28916 16.3012 8.41026 15.4457 8.41807 15.4379C8.42198 15.4301 9.66026 15.2543 11.1603 15.0473C13.4649 14.7309 13.9064 14.6606 13.9767 14.5942C14.0235 14.5551 14.6173 13.3832 15.3009 11.9926C15.9845 10.602 16.5548 9.45353 16.5704 9.434C16.5821 9.41838 17.1446 10.5278 17.8165 11.8949C18.4884 13.266 19.0626 14.4262 19.0939 14.4731C19.1251 14.5238 19.1876 14.5863 19.2384 14.6176C19.2931 14.6567 20.2931 14.809 22.0235 15.0473C23.5079 15.2543 24.7384 15.4223 24.7579 15.4223C24.7774 15.4223 24.3204 15.8949 23.7462 16.4692L22.7032 17.516V17.6957C22.7032 17.9926 22.9571 18.1996 23.2345 18.1332C23.3712 18.102 26.0274 15.4731 26.1212 15.2817C26.2149 15.0863 26.1993 14.8676 26.0821 14.7582C25.9923 14.6723 25.7774 14.6371 22.9689 14.2465C21.3087 14.0121 19.9259 13.8246 19.9024 13.8207C19.8751 13.8207 19.2189 12.5512 18.4415 10.9965C17.6642 9.44572 16.9962 8.13713 16.9493 8.08634C16.836 7.96525 16.4142 7.96134 16.297 8.07853Z" fill="black" stroke="black" stroke-width="0.2"/>
<path d="M21.6328 18.8828C19.9805 19.1836 18.5899 20.3828 18.0547 21.9766C17.3477 24.0898 18.2852 26.4102 20.2813 27.4844C20.9375 27.8359 21.6172 28 22.4297 28C23.6875 28 24.7578 27.5547 25.6563 26.6562C26.336 25.9727 26.7657 25.1719 26.9414 24.2461C27.0157 23.8398 27.0196 23.0312 26.9414 22.6016C26.6602 20.9883 25.4102 19.5586 23.8321 19.043C23.1758 18.8281 22.293 18.7656 21.6328 18.8828ZM22.9805 19.7383C24.4532 19.957 25.6328 21.0234 26.0313 22.4922C26.1055 22.7734 26.1211 22.9141 26.1172 23.4297C26.1172 24.1562 26.0469 24.4531 25.75 25.0586C25.2266 26.1211 24.3086 26.8281 23.1328 27.0703C22.6563 27.1719 21.9453 27.1484 21.4727 27.0234C19.5274 26.5 18.3438 24.5469 18.7852 22.5898C19.1328 21.0469 20.4141 19.9062 22.0196 19.707C22.2852 19.6719 22.6289 19.6836 22.9805 19.7383Z" fill="black" stroke="black" stroke-width="0.2"/>
<path d="M24.7148 21.3555C24.6523 21.3945 23.9375 22.0898 23.1328 22.8984L21.6719 24.3633L20.9648 23.668C20.2266 22.9375 20.1641 22.8945 19.9062 22.9648C19.7227 23.0195 19.6172 23.168 19.6172 23.3828V23.5625L20.543 24.4922L21.4688 25.4219H21.7461H22.0195L23.7266 23.7109L25.4336 22.0039L25.3594 21.7109C25.3125 21.5234 25.2539 21.3945 25.1992 21.3477C25.0898 21.2617 24.8633 21.2617 24.7148 21.3555Z" fill="black" stroke="black" stroke-width="0.2"/>
</svg>
