<svg width="36" height="36" viewBox="0 0 36 36" fill="none" xmlns="http://www.w3.org/2000/svg">
<rect x="0.5" y="0.5" width="35" height="35" rx="11.5" fill="white" stroke="black"/>
<path d="M19.4727 10.5078C19.4375 10.5352 19.1172 10.9883 18.7617 11.5117C18.332 12.1484 18.1172 12.5 18.1172 12.5703C18.1172 12.625 18.3359 13.1523 18.6055 13.7422C18.875 14.332 19.0938 14.8281 19.0938 14.8477C19.0938 14.8633 18.7969 15.3242 18.4297 15.8672C17.9688 16.5547 17.7656 16.8867 17.7656 16.9648C17.7656 17.0352 17.9492 17.3672 18.3125 17.9453C18.6133 18.4258 18.8594 18.8281 18.8594 18.8398C18.8594 18.8477 18.5273 19.3086 18.1172 19.8594C17.4766 20.7305 17.375 20.8828 17.375 21.0078C17.375 21.125 17.4453 21.2422 17.7891 21.7109C18.0195 22.0234 18.2109 22.2969 18.2227 22.3203C18.2305 22.3477 18.0625 22.7852 17.8477 23.293C17.6289 23.8047 17.4531 24.2617 17.4531 24.3125C17.4531 24.3633 17.4922 24.4492 17.543 24.5078L17.6328 24.6133L21.3047 25.0742C23.3203 25.3281 25.0625 25.5352 25.168 25.5391C25.4023 25.5391 25.5859 25.4414 25.6797 25.2578C25.7266 25.168 25.9688 23.3594 26.5586 18.6484C27.0078 15.0781 27.375 12.0664 27.375 11.9531C27.375 11.8398 27.3477 11.6953 27.3164 11.6328C27.1836 11.3789 27.2969 11.3984 23.3984 10.9102C21.418 10.6641 19.7422 10.4609 19.668 10.4609C19.5977 10.4609 19.5078 10.4844 19.4727 10.5078ZM23.3516 11.5781C25.1875 11.8086 26.6992 12 26.7031 12.0039C26.7188 12.0195 25.1133 24.8438 25.0938 24.8633C25.0742 24.8828 18.5156 24.0625 18.3828 24.0234L18.2812 23.9961L18.6289 23.1758C18.8789 22.5859 18.9727 22.3242 18.957 22.25C18.9492 22.1914 18.7539 21.8867 18.5234 21.5742L18.1094 21.0078L18.6094 20.332C19.6094 18.9844 19.6016 18.9961 19.6016 18.8594C19.6016 18.7656 19.4648 18.5156 19.0508 17.8516L18.5 16.9727L19.168 15.9844C19.5469 15.4219 19.8359 14.9531 19.8359 14.9023C19.8359 14.8555 19.6094 14.3203 19.332 13.7148L18.832 12.6133L19.3359 11.8711C19.7734 11.2266 19.8516 11.1289 19.9258 11.1445C19.9727 11.1523 21.5156 11.3477 23.3516 11.5781Z" fill="black" stroke="black" stroke-width="0.2"/>
<path d="M8.87117 10.8905C8.60555 11.0507 8.62508 10.4882 8.62508 17.9765V24.7499L8.73055 24.8788C8.93367 25.121 8.75008 25.1093 12.7266 25.1093H16.3634L16.4493 25.0194C16.5157 24.9569 16.6173 24.6523 16.8399 23.8593C17.0079 23.2694 17.1407 22.7265 17.1407 22.6562C17.1407 22.5507 17.0704 22.453 16.6641 22.0194C16.3985 21.7382 16.1798 21.4921 16.172 21.4765C16.1641 21.4569 16.4024 21.0038 16.7032 20.4726C17.3712 19.2929 17.3907 19.246 17.3595 19.121C17.3477 19.0663 17.047 18.6679 16.6915 18.2304C16.336 17.7968 16.047 17.4257 16.047 17.4062C16.047 17.3866 16.2852 16.9062 16.5782 16.3358C16.9884 15.5312 17.1055 15.2733 17.0899 15.1913C17.0782 15.1327 16.7852 14.6288 16.4415 14.0702L15.8165 13.0585L16.2813 12.1405C16.5391 11.6366 16.7462 11.1718 16.7501 11.1132C16.7501 11.0468 16.711 10.9648 16.6524 10.9101L16.5587 10.8124H12.7774C9.09773 10.8124 8.99226 10.8163 8.87117 10.8905ZM15.8438 11.5038C15.8399 11.5233 15.668 11.8554 15.4727 12.246C15.2501 12.6796 15.1095 13.0038 15.1095 13.0741C15.1095 13.1601 15.2852 13.4843 15.7384 14.2187L16.3712 15.2421L15.836 16.3085C15.5196 16.9452 15.3048 17.4218 15.3048 17.4882C15.3048 17.578 15.4415 17.7733 15.9337 18.3788C16.2813 18.8046 16.5821 19.1718 16.5977 19.1913C16.6134 19.2148 16.3634 19.7069 16.004 20.3437C15.4766 21.2851 15.3829 21.4765 15.4024 21.5741C15.4259 21.6952 15.4649 21.7421 16.0821 22.3827C16.4063 22.7226 16.4415 22.7733 16.418 22.871C16.4063 22.9296 16.3048 23.3046 16.1915 23.703L15.9884 24.4257L12.6173 24.4374L9.25008 24.4452V17.9608V11.4765H12.5548C14.3712 11.4765 15.8516 11.4882 15.8438 11.5038Z" fill="black" stroke="black" stroke-width="0.2"/>
<path d="M11.5273 13.5195C10.1133 14.9297 9.95312 15.1055 9.95312 15.2148C9.95312 15.4023 10.1016 15.5547 10.2813 15.5547C10.4219 15.5547 10.4961 15.4844 12.0078 13.9727C13.7266 12.2539 13.6875 12.3047 13.4844 12.0664C13.4063 11.9727 13.3516 11.9453 13.2422 11.9453C13.1055 11.9453 13.0234 12.0234 11.5273 13.5195Z" fill="black" stroke="black" stroke-width="0.2"/>
<path d="M11.0665 12.0625C11.0235 12.0781 10.7813 12.3047 10.5274 12.5625C10.1055 12.9844 10.0626 13.043 10.0587 13.1758C10.0548 13.3594 10.2032 13.5078 10.3946 13.5078C10.5001 13.5078 10.586 13.4375 11.0157 13.0078C11.4688 12.5547 11.5157 12.4961 11.5157 12.3711C11.5157 12.1484 11.2657 11.9727 11.0665 12.0625Z" fill="black" stroke="black" stroke-width="0.2"/>
</svg>
