<svg width="36" height="36" viewBox="0 0 36 36" fill="none" xmlns="http://www.w3.org/2000/svg">
<rect x="0.5" y="0.5" width="35" height="35" rx="9.5" fill="white" stroke="black"/>
<g clip-path="url(#clip0_588_769)">
<path d="M17.4648 8.35938C15.8476 9.94141 14.6562 11.9336 14.3906 13.5039C14.3203 13.9258 14.3085 14.6367 14.371 14.9766C14.5703 16.1133 15.3085 17.1055 16.3398 17.6211C16.4921 17.6953 16.7617 17.8047 16.9453 17.8672C17.2617 17.9727 17.3125 17.9766 18 17.9766C18.6875 17.9766 18.7382 17.9727 19.0546 17.8672C20.3164 17.4453 21.1757 16.5781 21.539 15.3555C21.6796 14.8867 21.7109 14.1211 21.6132 13.5469C21.3437 11.9336 20.1718 9.95703 18.5351 8.35938C18.1875 8.01953 18.1562 8 18 8C17.8437 8 17.8125 8.01953 17.4648 8.35938ZM18.2773 9.12109C19.1289 10.0039 19.8593 11.0195 20.3437 12.0039C20.7773 12.8906 20.9687 13.5898 20.9687 14.3125C20.9687 14.8086 20.8828 15.1641 20.6562 15.6406C20.2695 16.4375 19.5273 17.0312 18.6562 17.2383C18.3398 17.3125 17.6601 17.3125 17.3437 17.2383C16.2578 16.9805 15.3671 16.1016 15.1093 15.0273C14.789 13.6875 15.4531 11.8711 16.9414 10.0234C17.3359 9.53125 17.9453 8.85938 17.996 8.85938C18.0117 8.85938 18.1367 8.97656 18.2773 9.12109Z" fill="black" stroke="black" stroke-width="0.2"/>
<path d="M15.8321 14.0234C15.6953 14.1016 15.6602 14.1875 15.6563 14.4258C15.6524 15.2266 16.1992 16.0703 16.9492 16.4297C17.3203 16.6055 17.5821 16.6719 17.9258 16.6719C18.1211 16.6719 18.1758 16.6562 18.2539 16.5742C18.3828 16.4492 18.3828 16.2461 18.2617 16.1055C18.1875 16.0156 18.1289 15.9961 17.8711 15.9688C17.0352 15.875 16.4688 15.2969 16.3594 14.4297C16.3321 14.2031 16.3047 14.1367 16.2227 14.0664C16.1133 13.9688 15.9571 13.9531 15.8321 14.0234Z" fill="black" stroke="black" stroke-width="0.2"/>
<path d="M10.1524 11.0147C9.02735 12.171 8.23048 13.542 8.03517 14.6592C7.96485 15.0616 8.00782 15.8506 8.11329 16.1631C8.2461 16.5538 8.4922 16.9366 8.80079 17.2374C9.32814 17.753 9.81642 17.9639 10.5625 17.9913C11.1094 18.0108 11.4649 17.9327 11.9063 17.7022C12.9844 17.1358 13.5234 15.9717 13.2969 14.6827C13.0977 13.5381 12.3438 12.2178 11.2344 11.0694C10.8477 10.671 10.8242 10.6553 10.668 10.6553C10.5117 10.6553 10.4844 10.6749 10.1524 11.0147ZM11.3789 12.3428C11.9297 13.0538 12.3164 13.7608 12.5156 14.4249C12.6602 14.9014 12.668 15.5889 12.5352 15.9483C12.1836 16.9092 11.1836 17.4756 10.2266 17.253C9.58595 17.1045 9.02345 16.5811 8.78907 15.9131C8.70314 15.6631 8.69532 15.5928 8.71095 15.167C8.72657 14.7569 8.7461 14.6475 8.87501 14.2686C9.15235 13.4405 9.75782 12.4795 10.4766 11.7139L10.6758 11.5069L10.8828 11.7335C10.9961 11.8624 11.2188 12.1358 11.3789 12.3428Z" fill="black" stroke="black" stroke-width="0.2"/>
<path d="M9.40627 15.0496C9.32815 15.1356 9.32033 15.1707 9.33596 15.4325C9.37893 16.0926 9.89065 16.616 10.5469 16.6629C10.7852 16.6785 10.8125 16.6746 10.9063 16.5809C10.9805 16.5067 11.0078 16.4364 11.0078 16.327C11.0078 16.1356 10.8906 16.0184 10.6485 15.9754C10.5508 15.9559 10.4102 15.9051 10.336 15.8621C10.1797 15.7723 10.0313 15.5262 10.0313 15.3504C10.0313 15.1981 9.94143 15.0106 9.85549 14.9754C9.70315 14.9168 9.50002 14.952 9.40627 15.0496Z" fill="black" stroke="black" stroke-width="0.2"/>
<path d="M24.7734 11.0584C23.6719 12.1912 22.9023 13.5389 22.7031 14.6834C22.4375 16.2069 23.2383 17.535 24.6601 17.9256C25.0703 18.035 25.7773 18.0194 26.164 17.8865C26.9531 17.617 27.6172 16.9529 27.8867 16.1639C27.9922 15.8514 28.0351 15.0623 27.9648 14.6522C27.7734 13.5428 26.9765 12.1756 25.8476 11.0154C25.5156 10.6756 25.4883 10.6561 25.332 10.6561C25.1758 10.6561 25.1523 10.6717 24.7734 11.0584ZM25.9023 12.16C26.5195 12.9217 26.8828 13.5545 27.1289 14.2811C27.25 14.6326 27.2734 14.7654 27.289 15.1365C27.3086 15.6561 27.2344 15.9686 26.9922 16.3397C26.039 17.8123 23.8086 17.4217 23.4062 15.7108C23.1719 14.7069 23.8086 13.2147 25.082 11.7772L25.3164 11.5115L25.4531 11.6404C25.5273 11.7108 25.7265 11.9451 25.9023 12.16Z" fill="black" stroke="black" stroke-width="0.2"/>
<path d="M24.0898 15.0273C24.0077 15.0938 23.996 15.1328 23.9999 15.3711C24.0077 16.0625 24.6054 16.6719 25.2773 16.6719C25.5976 16.6719 25.7655 16.4648 25.6562 16.1992C25.6015 16.0703 25.4569 15.9883 25.2187 15.9492C24.9452 15.9062 24.6835 15.5781 24.6796 15.2812C24.6796 15.2148 24.6444 15.1133 24.5976 15.0547C24.5351 14.9727 24.4843 14.9531 24.3476 14.9531C24.2421 14.9531 24.1484 14.9805 24.0898 15.0273Z" fill="black" stroke="black" stroke-width="0.2"/>
<path d="M11.7031 18.8081C11.6288 18.8902 11.2109 19.3824 10.7773 19.9058C10.0624 20.7691 9.99212 20.8667 9.99212 20.9995C9.99603 21.2769 10.1328 21.3589 10.6132 21.3589H10.9687V22.0034V22.648H9.90228C8.71869 22.648 8.60931 22.6636 8.33588 22.8902C7.93353 23.2222 7.87884 23.9253 8.2265 24.3277C8.45306 24.5972 8.61322 24.6558 9.164 24.6714C9.42572 24.6792 9.64056 24.6949 9.64056 24.7027C9.64056 24.7144 9.44916 25.0074 9.21478 25.355C8.81634 25.9527 8.77728 25.9995 8.60541 26.062C8.22259 26.2105 7.99994 26.5542 7.99994 27.0034C7.99994 27.3316 8.08197 27.5269 8.29681 27.7339C8.6015 28.023 7.71088 27.9995 17.9999 27.9995C25.8593 27.9995 27.2812 27.9917 27.3906 27.9449C27.582 27.8667 27.8437 27.6128 27.9257 27.4331C28.0156 27.2417 28.0234 26.8042 27.9452 26.6128C27.8515 26.3863 27.6992 26.2222 27.4843 26.105C27.3007 26.0074 27.2265 25.9917 26.8202 25.9722L26.3593 25.9488L26.7851 25.3081C27.1601 24.7495 27.2304 24.6597 27.3593 24.6167C27.9023 24.4292 28.1679 23.7378 27.8984 23.2027C27.8437 23.0894 27.7343 22.9488 27.6562 22.8824C27.3945 22.6675 27.2734 22.648 26.0976 22.648H25.0312V22.0034V21.3589H25.3867C25.8671 21.3589 26.0038 21.2769 26.0077 20.9995C26.0077 20.8667 25.9374 20.7691 25.2226 19.9058C24.2148 18.691 24.1874 18.6636 24.0312 18.6636C23.9609 18.6636 23.8749 18.6753 23.8398 18.687C23.8007 18.7027 23.371 19.1949 22.8788 19.7847C22.0898 20.7339 21.9843 20.8745 21.9843 20.9956C21.9843 21.0933 22.0156 21.1636 22.0976 21.2456C22.2109 21.355 22.2226 21.3589 22.6054 21.3589H22.9999V22.0034V22.648H21.0077H19.0156V22.0034V21.3589H19.3788C19.5898 21.3589 19.7773 21.3394 19.8359 21.3081C19.9609 21.2456 20.0429 21.0738 20.0117 20.9331C19.9921 20.8316 18.4218 18.8941 18.2265 18.73C18.1835 18.6949 18.082 18.6636 17.9999 18.6636C17.9179 18.6636 17.8163 18.6949 17.7734 18.73C17.5781 18.8941 16.0077 20.8316 15.9882 20.9331C15.957 21.0738 16.039 21.2456 16.164 21.3081C16.2226 21.3394 16.4101 21.3589 16.6249 21.3589H16.9843V22.0034V22.648H14.9921H12.9999V22.0034V21.3589H13.3945C13.7773 21.3589 13.789 21.355 13.9023 21.2456C13.9843 21.1636 14.0156 21.0933 14.0156 20.9956C14.0156 20.8745 13.9101 20.7339 13.121 19.7847C12.6288 19.1949 12.1992 18.7027 12.1601 18.687C11.9921 18.6245 11.8437 18.6636 11.7031 18.8081ZM12.4843 20.1363C12.7031 20.398 12.8827 20.6206 12.8827 20.6324C12.8827 20.6441 12.8046 20.6558 12.7109 20.6558C12.582 20.6558 12.5077 20.6792 12.4257 20.7495L12.3163 20.8433L12.3046 21.7456L12.2929 22.648H11.9804H11.6718V21.7495V20.8472L11.5742 20.7534C11.4999 20.6753 11.4413 20.6558 11.2812 20.6558H11.0859L11.5429 20.1089C11.9023 19.6753 12.0077 19.5699 12.0429 19.6089C12.0702 19.6363 12.2695 19.8745 12.4843 20.1363ZM24.5195 20.1753L24.9179 20.6558H24.7187C24.5585 20.6558 24.4999 20.6753 24.4257 20.7534L24.3281 20.8472V21.7495V22.648H24.0195H23.707L23.6952 21.7456L23.6835 20.8433L23.5742 20.7495C23.4921 20.6792 23.4179 20.6558 23.289 20.6558C23.1952 20.6558 23.1171 20.648 23.1171 20.6363C23.1171 20.6245 23.3163 20.3784 23.5546 20.0894C23.9687 19.5972 23.9999 19.566 24.0585 19.6324C24.0937 19.6675 24.3007 19.9136 24.5195 20.1753ZM18.4648 20.1167L18.8945 20.6363L18.7304 20.648C18.5234 20.6597 18.4101 20.7183 18.3554 20.8394C18.3281 20.898 18.3124 21.2456 18.3124 21.7886V22.648H17.9999H17.6874V21.7886C17.6874 21.2456 17.6718 20.898 17.6445 20.8394C17.5898 20.7183 17.4765 20.6597 17.2695 20.648L17.1054 20.6363L17.5351 20.1167C17.7734 19.8355 17.9804 19.6011 17.9999 19.6011C18.0195 19.6011 18.2265 19.8355 18.4648 20.1167ZM27.1992 23.4488C27.2617 23.5074 27.2968 23.5894 27.2968 23.6636C27.2968 23.7378 27.2617 23.8199 27.1992 23.8784L27.1054 23.9761H17.9999H8.89447L8.80072 23.8784C8.73822 23.8199 8.70306 23.7378 8.70306 23.6636C8.70306 23.5894 8.73822 23.5074 8.80072 23.4488L8.89447 23.3511H17.9999H27.1054L27.1992 23.4488ZM11.2538 24.7925C11.2148 24.855 11.0273 25.1441 10.832 25.437L10.4804 25.9683H10.0781H9.67962L10.1093 25.3238L10.539 24.6792H10.9335H11.3281L11.2538 24.7925ZM12.5702 25.3238L12.1406 25.9683H11.746H11.3515L11.4257 25.855C11.4648 25.7925 11.6562 25.5034 11.8476 25.2105L12.1992 24.6792H12.6015H12.9999L12.5702 25.3238ZM14.6406 24.6988C14.6406 24.7105 14.4531 24.9995 14.2226 25.3433L13.8085 25.9683H13.4218C13.2109 25.9683 13.039 25.9605 13.039 25.9488C13.039 25.937 13.2265 25.648 13.457 25.3042L13.871 24.6792H14.2577C14.4687 24.6792 14.6406 24.687 14.6406 24.6988ZM16.2538 24.7925C16.2148 24.855 16.0273 25.1441 15.832 25.437L15.4804 25.9683H15.0781H14.6796L15.1093 25.3238L15.539 24.6792H15.9335H16.3281L16.2538 24.7925ZM17.5702 25.3238L17.1406 25.9683H16.746H16.3515L16.4257 25.855C16.4648 25.7925 16.6562 25.5034 16.8476 25.2105L17.1992 24.6792H17.6015H17.9999L17.5702 25.3238ZM19.6406 24.6988C19.6406 24.7105 19.4531 24.9995 19.2226 25.3433L18.8085 25.9683H18.4218C18.2109 25.9683 18.039 25.9605 18.039 25.9488C18.039 25.937 18.2265 25.648 18.457 25.3042L18.871 24.6792H19.2577C19.4687 24.6792 19.6406 24.687 19.6406 24.6988ZM21.2538 24.7925C21.2148 24.855 21.0273 25.1441 20.832 25.437L20.4804 25.9683H20.0781H19.6796L20.1093 25.3238L20.539 24.6792H20.9335H21.3281L21.2538 24.7925ZM22.5702 25.3238L22.1406 25.9683H21.746H21.3515L21.4257 25.855C21.4648 25.7925 21.6562 25.5034 21.8476 25.2105L22.1992 24.6792H22.6015H22.9999L22.5702 25.3238ZM24.6406 24.6988C24.6406 24.7105 24.4531 24.9995 24.2226 25.3433L23.8085 25.9683H23.4218C23.2109 25.9683 23.039 25.9605 23.039 25.9488C23.039 25.937 23.2265 25.648 23.457 25.3042L23.871 24.6792H24.2577C24.4687 24.6792 24.6406 24.687 24.6406 24.6988ZM26.2538 24.7925C26.2148 24.855 26.0273 25.1441 25.832 25.437L25.4804 25.9683H25.0781H24.6796L25.1093 25.3238L25.539 24.6792H25.9335H26.3281L26.2538 24.7925ZM27.1367 26.73C27.3202 26.8238 27.3554 27.0542 27.2109 27.2066L27.1288 27.2964H18.0038H8.88275L8.79291 27.2105C8.64056 27.0659 8.67963 26.8238 8.87884 26.7183C8.93353 26.687 11.5273 26.6753 17.9921 26.6714C25.8476 26.6714 27.0429 26.6792 27.1367 26.73Z" fill="black" stroke="black" stroke-width="0.2"/>
</g>
<defs>
<clipPath id="clip0_588_769">
<rect width="20" height="20" fill="white" transform="translate(8 8)"/>
</clipPath>
</defs>
</svg>
