<svg width="36" height="36" viewBox="0 0 36 36" fill="none" xmlns="http://www.w3.org/2000/svg">
<rect x="0.5" y="0.5" width="35" height="35" rx="11.5" fill="white" stroke="black"/>
<path d="M16.6562 27.7988C16.7096 27.7988 16.7537 27.8422 16.7539 27.8955V29.0898C16.7539 29.1433 16.7097 29.1865 16.6562 29.1865C16.6028 29.1864 16.5596 29.1433 16.5596 29.0898V27.8955C16.5597 27.8422 16.6029 27.799 16.6562 27.7988ZM13.9697 26.0078C14.0231 26.0078 14.0672 26.0512 14.0674 26.1045V27.2988C14.0674 27.3522 14.0231 27.3955 13.9697 27.3955C13.9163 27.3954 13.8731 27.3523 13.873 27.2988V26.1045C13.8732 26.0511 13.9164 26.0079 13.9697 26.0078ZM19.3428 26.0078C19.3961 26.0078 19.4403 26.0512 19.4404 26.1045V27.2988C19.4404 27.3522 19.3962 27.3955 19.3428 27.3955C19.2894 27.3953 19.2461 27.3523 19.2461 27.2988V26.1045C19.2462 26.0512 19.2895 26.008 19.3428 26.0078ZM16.6562 24.2168C16.7096 24.2168 16.7538 24.2602 16.7539 24.3135V25.5078C16.7539 25.5612 16.7096 25.6045 16.6562 25.6045C16.6029 25.6043 16.5596 25.5613 16.5596 25.5078V24.3135C16.5597 24.2601 16.6029 24.217 16.6562 24.2168ZM20.2383 11.082C22.2667 11.082 23.918 12.7333 23.918 14.7617C23.9179 15.3307 23.7865 15.8831 23.5381 16.3867L23.3545 16.7598L23.6875 17.0088C24.3712 17.5187 24.8135 18.3285 24.8135 19.2393C24.8133 20.7734 23.5644 22.0223 22.0303 22.0225H19.4404V23.7168C19.4404 23.7702 19.3961 23.8135 19.3428 23.8135C19.2894 23.8133 19.2462 23.7702 19.2461 23.7168V22.0225H14.0674V23.7168C14.0673 23.7702 14.0231 23.8135 13.9697 23.8135C13.9163 23.8134 13.8731 23.7702 13.873 23.7168V22.0225H11.2832C9.74889 22.0222 8.50015 20.7734 8.5 19.2393C8.5 17.705 9.7488 16.4553 11.2832 16.4551C11.3905 16.4551 11.5379 16.4727 11.6982 16.502L12.1416 16.583L12.2676 16.1504C12.8304 14.2217 14.5928 12.873 16.6572 12.873C16.7118 12.8731 16.6838 12.8757 16.792 12.8789L17.0625 12.8877L17.2178 12.665C17.9017 11.6816 19.0306 11.0822 20.2383 11.082ZM20.2383 11.2764C19.3286 11.2765 18.4724 11.6363 17.834 12.2451L17.2188 12.832L18.0303 13.084C19.4715 13.5323 20.6136 14.6687 21.0459 16.1504L21.1719 16.583L21.6152 16.502C21.7763 16.4727 21.9227 16.4551 22.0303 16.4551C22.287 16.4551 22.5371 16.4936 22.7793 16.5615L23.1787 16.6729L23.3623 16.3018C23.5975 15.8261 23.7236 15.3019 23.7236 14.7617C23.7236 12.8396 22.1604 11.2764 20.2383 11.2764ZM26.209 14.6641H27.4033C27.4566 14.6642 27.5 14.7084 27.5 14.7617C27.4998 14.8148 27.4564 14.8582 27.4033 14.8584H26.209C26.1556 14.8584 26.1125 14.8151 26.1123 14.7617C26.1123 14.7081 26.1554 14.6641 26.209 14.6641ZM15.1045 9.62695C15.1424 9.58916 15.2034 9.5891 15.2412 9.62695L16.085 10.4707C16.1134 10.4992 16.1208 10.5411 16.1064 10.5762L16.085 10.6084C16.0664 10.627 16.0425 10.6367 16.0166 10.6367C15.9912 10.6367 15.9674 10.6275 15.9482 10.6084L15.1045 9.76367C15.0666 9.7258 15.0666 9.66483 15.1045 9.62695ZM25.2363 9.62695C25.2742 9.58908 25.3352 9.58908 25.373 9.62695C25.4109 9.66483 25.4109 9.7258 25.373 9.76367L24.5293 10.6084C24.5101 10.6275 24.4863 10.6366 24.4609 10.6367C24.435 10.6367 24.4111 10.627 24.3926 10.6084H24.3916C24.3538 10.5706 24.3538 10.5086 24.3916 10.4707L25.2363 9.62695ZM20.2383 7.5C20.2916 7.5 20.3358 7.54342 20.3359 7.59668V8.79102C20.3359 8.84443 20.2917 8.8877 20.2383 8.8877C20.1849 8.88747 20.1416 8.84446 20.1416 8.79102V7.59668C20.1418 7.5434 20.185 7.50022 20.2383 7.5ZM20.9795 16.7432L20.9727 16.7012C20.6112 14.5945 18.8019 13.0676 16.6572 13.0674C14.5115 13.0674 12.7017 14.5953 12.3408 16.7031L12.334 16.7441V17.7461C12.334 17.7995 12.2897 17.8438 12.2363 17.8438C12.183 17.8437 12.1396 17.7995 12.1396 17.7461V16.7881L11.7373 16.707C11.5971 16.679 11.4204 16.6494 11.2832 16.6494C9.8553 16.6496 8.69434 17.8113 8.69434 19.2393C8.69448 20.6671 9.85539 21.8279 11.2832 21.8281H22.0303C23.4582 21.828 24.62 20.6672 24.6201 19.2393C24.6201 17.8112 23.4583 16.6495 22.0303 16.6494C21.8937 16.6494 21.7157 16.6802 21.5762 16.708L21.1738 16.7881V17.7461C21.1738 17.7995 21.1296 17.8438 21.0762 17.8438C21.023 17.8435 20.9795 17.7994 20.9795 17.7461V16.7432Z" fill="black" stroke="black"/>
</svg>
