<svg width="36" height="36" viewBox="0 0 36 36" fill="none" xmlns="http://www.w3.org/2000/svg">
<rect x="0.5" y="0.5" width="35" height="35" rx="9.5" fill="white" stroke="black"/>
<path d="M20.6791 14.2443C21.5346 14.6058 22.3057 15.135 22.9495 15.7933C24.2166 17.0878 25 18.8753 25 20.8505C24.9998 24.7983 21.8656 28 18.0004 28C14.1331 28 11 24.7983 11 20.8505C11 18.8753 11.7844 17.0878 13.0505 15.7933C14.4175 14.3975 15.101 12.5673 15.101 10.7368C15.101 9.76725 14.9096 8.843 14.5672 8C17.3476 9.8985 18.0963 13.7408 16.2384 16.581C16.0637 16.8485 15.9801 17.151 15.9811 17.4508C15.9823 17.9535 16.2198 18.4462 16.6604 18.747C17.3622 19.226 18.3118 19.0325 18.7808 18.3155C19.0077 17.9688 19.115 17.578 19.1185 17.1905C19.1239 16.5185 18.8111 15.8562 18.223 15.455C19.9564 16.1887 20.9642 17.9508 20.8581 19.7618C22.2186 18.1738 22.1614 15.7593 20.6791 14.2443Z" stroke="black" stroke-miterlimit="10" stroke-linecap="round" stroke-linejoin="round"/>
<path d="M20.4371 10.8105C21.0457 9.88075 20.8005 8.622 19.8899 8C19.8897 8.51875 19.6958 9.03775 19.3088 9.433C18.5343 10.2243 18.5343 11.5075 19.3088 12.2985C19.5114 12.5053 19.7583 12.6658 20.0322 12.767C19.9219 12.1098 20.0451 11.4095 20.4371 10.8105Z" stroke="black" stroke-miterlimit="10" stroke-linecap="round" stroke-linejoin="round"/>
</svg>
