<svg width="20" height="20" viewBox="0 0 20 20" fill="none" xmlns="http://www.w3.org/2000/svg">
<path fill-rule="evenodd" clip-rule="evenodd" d="M16.3076 5.37449C16.2141 5.20271 16.0324 5.09774 15.8368 5.10271C14.2868 5.14206 10.7933 6.0291 8.81934 9.27127C6.68517 7.92408 4.36292 8.11492 3.51043 8.36242C3.33914 8.4121 3.2052 8.54606 3.15548 8.71742C2.83045 9.8369 2.64083 12.5591 4.57915 14.4974C5.49449 15.4127 6.44027 15.7825 7.29806 15.797C7.97236 15.8084 8.56111 15.5993 9.00163 15.3097C9.28663 15.6101 9.58799 15.8403 9.86049 15.9976C10.4945 16.3637 11.5483 16.6677 12.7097 16.4341C13.8943 16.1958 15.1264 15.411 16.108 13.7109C18.0613 10.3276 17.0614 6.76035 16.3076 5.37449ZM8.38038 14.4704C8.25549 14.2495 8.14559 14.0087 8.05788 13.7484C7.73025 12.7762 7.72656 11.5775 8.33351 10.1973C6.7078 9.13898 4.93007 9.15085 4.0856 9.29877C3.87533 10.353 3.90024 12.3453 5.31573 13.7609C6.06856 14.5137 6.76582 14.7462 7.31563 14.7554C7.74076 14.7626 8.10819 14.6371 8.38038 14.4704ZM9.61913 9.9645C11.2066 7.21501 14.054 6.3102 15.5375 6.16483C16.1532 7.52216 16.7934 10.4405 15.2059 13.19C14.3541 14.6653 13.3589 15.2409 12.5042 15.4128C12.0669 15.5009 11.6495 15.4866 11.2855 15.418L14.1048 10.2495C14.2425 9.997 14.1494 9.68065 13.8968 9.54294C13.6443 9.40513 13.328 9.49825 13.1903 9.75075L11.7157 12.4542L11.5373 11.9189C11.4463 11.646 11.1513 11.4985 10.8784 11.5895C10.6055 11.6804 10.4581 11.9754 10.549 12.2483L11.0341 13.7036L10.3013 15.047C9.86444 14.7693 9.31434 14.2147 9.04496 13.4156C8.76653 12.5895 8.76736 11.4398 9.61913 9.9645Z" fill="black"/>
</svg>
