<svg width="36" height="36" viewBox="0 0 36 36" fill="none" xmlns="http://www.w3.org/2000/svg">
<rect x="0.5" y="0.5" width="35" height="35" rx="11.5" fill="white" stroke="black"/>
<g clip-path="url(#clip0_588_637)">
<path d="M16.8632 8.76855C16.6288 8.88965 16.4257 9.12793 16.3593 9.3584C16.3398 9.43652 16.3202 9.83105 16.3202 10.2334V10.9678H15.621C15.207 10.9678 14.871 10.9873 14.7929 11.0107C14.6366 11.0654 14.4609 11.2178 14.3827 11.3662C14.3046 11.5186 14.3124 11.8623 14.4023 12.0029C14.5234 12.2021 17.5273 15.5107 17.6601 15.5967C17.8281 15.7021 18.1718 15.7021 18.3398 15.5967C18.4726 15.5107 21.4765 12.2021 21.5976 12.0029C21.6874 11.8623 21.6952 11.5186 21.6171 11.3662C21.539 11.2178 21.3632 11.0654 21.207 11.0107C21.1288 10.9873 20.7929 10.9678 20.3788 10.9678H19.6796V10.2334C19.6796 9.83105 19.6601 9.43652 19.6406 9.3584C19.5741 9.12793 19.371 8.88965 19.1366 8.76855L18.9218 8.66309H17.9999H17.0781L16.8632 8.76855ZM18.8788 9.46387L18.9765 9.55762V10.4795C18.9765 11.4756 18.9999 11.6123 19.1835 11.6475C19.2304 11.6592 19.6288 11.6787 20.0702 11.6904C20.5116 11.7061 20.8788 11.7217 20.8827 11.7295C20.9023 11.7451 18.0312 14.9326 17.9999 14.9326C17.9882 14.9326 17.3202 14.2021 16.5156 13.3115L15.0546 11.6904L15.9726 11.6709C16.4765 11.6592 16.8906 11.6436 16.8945 11.6396C16.8984 11.6357 16.9296 11.5811 16.9648 11.5146C17.0116 11.4209 17.0234 11.2295 17.0234 10.4795V9.55762L17.121 9.46387C17.2148 9.36621 17.2187 9.36621 17.9999 9.36621C18.7812 9.36621 18.7851 9.36621 18.8788 9.46387Z" fill="black" stroke="black" stroke-width="0.2"/>
<path d="M8.70312 16.3555C8.39844 16.4492 8.125 16.707 8.04688 16.9805C7.98438 17.1836 7.98438 18.8164 8.04688 19.0195C8.10547 19.2188 8.31641 19.4648 8.52344 19.5742L8.68359 19.6602H18H27.3164L27.4727 19.5742C27.6758 19.4648 27.8203 19.3086 27.918 19.0938C27.9922 18.9336 28 18.8398 28 18C28 17.1602 27.9922 17.0664 27.918 16.9063C27.8203 16.6914 27.6758 16.5352 27.4727 16.4258L27.3164 16.3398L18.0586 16.332C12.9648 16.3281 8.75781 16.3398 8.70312 16.3555ZM27.1992 17.1211C27.2969 17.2148 27.2969 17.2188 27.2969 18C27.2969 18.7813 27.2969 18.7852 27.1992 18.8789L27.1055 18.9766H18H8.89453L8.80078 18.8789C8.70312 18.7852 8.70312 18.7813 8.70312 18C8.70312 17.2188 8.70312 17.2148 8.80078 17.1211L8.89453 17.0234H18H27.1055L27.1992 17.1211Z" fill="black" stroke="black" stroke-width="0.2"/>
<path d="M17.7969 20.3398C17.7383 20.3594 17.6563 20.4023 17.6094 20.4336C17.457 20.5391 14.4375 23.918 14.3828 24.043C14.3125 24.207 14.3125 24.4961 14.3867 24.6367C14.4649 24.7891 14.6563 24.9414 14.8281 24.9922C14.9063 25.0117 15.2774 25.0313 15.6484 25.0313H16.3203V25.7617C16.3203 26.168 16.3399 26.5625 16.3594 26.6406C16.4258 26.8711 16.6289 27.1094 16.8633 27.2266L17.0781 27.3359H18H18.9219L19.1367 27.2266C19.3711 27.1094 19.5742 26.8711 19.6406 26.6406C19.6602 26.5625 19.6797 26.168 19.6797 25.7617V25.0313H20.3555C20.7227 25.0313 21.0938 25.0117 21.1719 24.9922C21.3438 24.9414 21.5352 24.7891 21.6133 24.6367C21.6953 24.4805 21.6875 24.1406 21.5977 23.9961C21.4844 23.8125 18.4766 20.4883 18.3555 20.4141C18.2266 20.332 17.9453 20.293 17.7969 20.3398ZM19.4844 22.6875L20.9453 24.3086L20.0274 24.3281C19.5234 24.3398 19.1094 24.3555 19.1055 24.3594C19.1016 24.3633 19.0703 24.418 19.0352 24.4844C18.9883 24.5781 18.9766 24.7695 18.9766 25.5195V26.4414L18.8789 26.5352C18.7852 26.6328 18.7813 26.6328 18 26.6328C17.2188 26.6328 17.2149 26.6328 17.1211 26.5352L17.0234 26.4414V25.5195C17.0234 24.5234 17 24.3867 16.8164 24.3516C16.7695 24.3398 16.3711 24.3203 15.9297 24.3086C15.4883 24.293 15.1211 24.2773 15.1172 24.2695C15.0977 24.25 17.9766 21.0508 18.0039 21.0586C18.0156 21.0625 18.6836 21.7969 19.4844 22.6875Z" fill="black" stroke="black" stroke-width="0.2"/>
</g>
<defs>
<clipPath id="clip0_588_637">
<rect width="20" height="20" fill="white" transform="translate(8 8)"/>
</clipPath>
</defs>
</svg>
