<svg width="20" height="20" viewBox="0 0 20 20" fill="none" xmlns="http://www.w3.org/2000/svg">
<path d="M10.0013 18.3332C14.6037 18.3332 18.3346 14.6022 18.3346 9.99984C18.3346 5.39746 14.6037 1.6665 10.0013 1.6665C5.39893 1.6665 1.66797 5.39746 1.66797 9.99984C1.66797 14.6022 5.39893 18.3332 10.0013 18.3332Z" stroke="black" stroke-linecap="round" stroke-linejoin="round"/>
<path d="M12.5026 8.33333C13.4231 8.33333 14.1693 7.58714 14.1693 6.66667C14.1693 5.74619 13.4231 5 12.5026 5C11.5821 5 10.8359 5.74619 10.8359 6.66667C10.8359 7.58714 11.5821 8.33333 12.5026 8.33333Z" stroke="black" stroke-linecap="round" stroke-linejoin="round"/>
<path d="M5 10.4165L5.175 10.6123C5.49833 10.9757 6.045 10.8765 6.25 10.4165C6.455 9.9565 7.00167 9.85734 7.325 10.2207L7.5 10.4165M13.2008 14.9998L13.2933 14.7123C13.465 14.1782 13.0617 13.689 12.5 13.7498C11.9383 13.8107 11.535 13.3215 11.7067 12.7873L11.7983 12.4998M15.8408 10.8332H15.8333M7.5075 14.1665H7.5M6.67417 6.6665H6.66667" stroke="black" stroke-linecap="round" stroke-linejoin="round"/>
</svg>
