<svg width="36" height="36" viewBox="0 0 36 36" fill="none" xmlns="http://www.w3.org/2000/svg">
<rect x="0.5" y="0.5" width="35" height="35" rx="9.5" fill="white" stroke="black"/>
<g clip-path="url(#clip0_588_696)">
<path d="M17.9875 9.36719C17.9875 17.5449 18.4419 17.9993 26.6196 17.9993C18.4419 17.9993 17.9875 18.4536 17.9875 26.6313C17.9875 18.4536 17.5332 17.9993 9.35547 17.9993C17.5332 17.9993 17.9875 17.5449 17.9875 9.36719ZM17.9875 8.61719C17.7886 8.61719 17.5978 8.69621 17.4572 8.83686C17.3165 8.97751 17.2375 9.16828 17.2375 9.36719C17.2375 17.1019 17.0902 17.2493 9.35547 17.2493C9.15656 17.2493 8.96579 17.3283 8.82514 17.4689C8.68449 17.6096 8.60547 17.8003 8.60547 17.9993C8.60547 18.1982 8.68449 18.3889 8.82514 18.5296C8.96579 18.6702 9.15656 18.7493 9.35547 18.7493C17.0902 18.7493 17.2375 18.8966 17.2375 26.6313C17.2375 26.8302 17.3166 27.021 17.4572 27.1616C17.5979 27.3023 17.7886 27.3813 17.9875 27.3813C18.1865 27.3813 18.3772 27.3023 18.5179 27.1616C18.6585 27.021 18.7375 26.8302 18.7375 26.6313C18.7375 18.8966 18.8849 18.7493 26.6196 18.7493C26.8185 18.7493 27.0093 18.6702 27.1499 18.5296C27.2906 18.3889 27.3696 18.1982 27.3696 17.9993C27.3696 17.8003 27.2906 17.6096 27.1499 17.4689C27.0093 17.3283 26.8185 17.2493 26.6196 17.2493C18.8849 17.2493 18.7375 17.1019 18.7375 9.36719C18.7375 9.16828 18.6585 8.97751 18.5179 8.83686C18.3772 8.69621 18.1864 8.61719 17.9875 8.61719Z" fill="black"/>
</g>
<defs>
<clipPath id="clip0_588_696">
<rect width="20" height="20" fill="white" transform="translate(8 8)"/>
</clipPath>
</defs>
</svg>
