<svg width="20" height="20" viewBox="0 0 20 20" fill="none" xmlns="http://www.w3.org/2000/svg">
<path d="M2.65588 8.125C2.65588 8.00068 2.70527 7.88145 2.79318 7.79354C2.88108 7.70564 3.00031 7.65625 3.12463 7.65625H4.37463C4.49895 7.65625 4.61818 7.70564 4.70609 7.79354C4.794 7.88145 4.84338 8.00068 4.84338 8.125C4.84338 8.24932 4.794 8.36855 4.70609 8.45646C4.61818 8.54436 4.49895 8.59375 4.37463 8.59375H3.12463C3.00031 8.59375 2.88108 8.54436 2.79318 8.45646C2.70527 8.36855 2.65588 8.24932 2.65588 8.125ZM5.69026 4.47891C5.73363 4.52304 5.78531 4.55815 5.84232 4.58221C5.89932 4.60627 5.96053 4.61881 6.02241 4.6191C6.08429 4.61938 6.14561 4.60742 6.20284 4.58389C6.26007 4.56036 6.31207 4.52573 6.35585 4.482C6.39963 4.43827 6.43432 4.38631 6.45792 4.32911C6.48151 4.27191 6.49355 4.2106 6.49334 4.14872C6.49312 4.08685 6.48066 4.02562 6.45666 3.96859C6.43267 3.91155 6.39762 3.85983 6.35354 3.81641L5.46838 2.93203C5.379 2.85278 5.26274 2.81065 5.14334 2.81424C5.02394 2.81782 4.91042 2.86685 4.82595 2.95132C4.74148 3.03578 4.69245 3.14931 4.68887 3.26871C4.68528 3.38811 4.72742 3.50437 4.80666 3.59375L5.69026 4.47891ZM9.99963 2.96875C10.124 2.96875 10.2432 2.91936 10.3311 2.83146C10.419 2.74355 10.4684 2.62432 10.4684 2.5V1.25C10.4684 1.12568 10.419 1.00645 10.3311 0.918544C10.2432 0.830636 10.124 0.78125 9.99963 0.78125C9.87531 0.78125 9.75608 0.830636 9.66818 0.918544C9.58027 1.00645 9.53088 1.12568 9.53088 1.25V2.5C9.53088 2.62432 9.58027 2.74355 9.66818 2.83146C9.75608 2.91936 9.87531 2.96875 9.99963 2.96875ZM13.977 4.61641C14.0386 4.61645 14.0997 4.60433 14.1567 4.58074C14.2137 4.55714 14.2654 4.52254 14.309 4.47891L15.1926 3.59375C15.2718 3.50437 15.314 3.38811 15.3104 3.26871C15.3068 3.14931 15.2578 3.03578 15.1733 2.95132C15.0888 2.86685 14.9753 2.81782 14.8559 2.81424C14.7365 2.81065 14.6203 2.85278 14.5309 2.93203L13.6457 3.81641C13.5803 3.88196 13.5357 3.96545 13.5176 4.05632C13.4996 4.1472 13.5089 4.24138 13.5443 4.32698C13.5797 4.41259 13.6398 4.48576 13.7168 4.53728C13.7938 4.58879 13.8843 4.61632 13.977 4.61641ZM15.1559 8.125C15.1559 8.24932 15.2053 8.36855 15.2932 8.45646C15.3811 8.54436 15.5003 8.59375 15.6246 8.59375H16.8746C16.999 8.59375 17.1182 8.54436 17.2061 8.45646C17.294 8.36855 17.3434 8.24932 17.3434 8.125C17.3434 8.00068 17.294 7.88145 17.2061 7.79354C17.1182 7.70564 16.999 7.65625 16.8746 7.65625H15.6246C15.5003 7.65625 15.3811 7.70564 15.2932 7.79354C15.2053 7.88145 15.1559 8.00068 15.1559 8.125ZM6.87463 8.59375C6.99895 8.59375 7.11818 8.54436 7.20609 8.45646C7.294 8.36855 7.34338 8.24932 7.34338 8.125C7.34338 7.42052 7.62324 6.74489 8.12138 6.24675C8.61952 5.7486 9.29515 5.46875 9.99963 5.46875C10.7041 5.46875 11.3797 5.7486 11.8779 6.24675C12.376 6.74489 12.6559 7.42052 12.6559 8.125C12.6559 8.24932 12.7053 8.36855 12.7932 8.45646C12.8811 8.54436 13.0003 8.59375 13.1246 8.59375C13.249 8.59375 13.3682 8.54436 13.4561 8.45646C13.544 8.36855 13.5934 8.24932 13.5934 8.125C13.5934 7.17188 13.2148 6.25779 12.5408 5.58384C11.8668 4.90988 10.9528 4.53125 9.99963 4.53125C9.04651 4.53125 8.13243 4.90988 7.45847 5.58384C6.78451 6.25779 6.40588 7.17188 6.40588 8.125C6.40588 8.24932 6.45527 8.36855 6.54318 8.45646C6.63108 8.54436 6.75031 8.59375 6.87463 8.59375ZM18.5293 17.1094C18.4883 17.1804 18.4293 17.2395 18.3583 17.2806C18.2873 17.3218 18.2067 17.3435 18.1246 17.3438H1.87463C1.79276 17.3437 1.71234 17.3222 1.64136 17.2814C1.57038 17.2406 1.51133 17.1819 1.47009 17.1112C1.42884 17.0404 1.40683 16.9601 1.40626 16.8783C1.40569 16.7964 1.42657 16.7158 1.46682 16.6445L4.64573 11.0195C4.68659 10.9472 4.74597 10.8869 4.81776 10.8451C4.88956 10.8032 4.9712 10.7812 5.05432 10.7812H14.9449C15.0281 10.7812 15.1097 10.8032 15.1815 10.8451C15.2533 10.8869 15.3127 10.9472 15.3535 11.0195L18.5324 16.6445C18.5724 16.7156 18.5931 16.7958 18.5926 16.8774C18.592 16.9589 18.5702 17.0389 18.5293 17.1094ZM14.6715 11.7188H12.484L12.8239 13.2812H15.5582L14.6715 11.7188ZM11.8637 13.2812L11.5239 11.7188H8.47698L8.13713 13.2812H11.8637ZM7.93166 14.2188L7.45588 16.4062H12.5434L12.0676 14.2188H7.93166ZM4.44416 13.2812H7.17854L7.51838 11.7188H5.33088L4.44416 13.2812ZM2.67776 16.4062H6.49651L6.97229 14.2188H3.91448L2.67776 16.4062ZM17.3215 16.4062L16.0848 14.2188H13.027L13.5028 16.4062H17.3215Z" fill="black"/>
</svg>
