<svg width="36" height="36" viewBox="0 0 36 36" fill="none" xmlns="http://www.w3.org/2000/svg">
<rect x="0.5" y="0.5" width="35" height="35" rx="11.5" fill="white" stroke="black"/>
<path d="M18.0013 26.3327C22.6037 26.3327 26.3346 22.6017 26.3346 17.9993C26.3346 13.397 22.6037 9.66602 18.0013 9.66602C13.3989 9.66602 9.66797 13.397 9.66797 17.9993C9.66797 22.6017 13.3989 26.3327 18.0013 26.3327Z" stroke="black" stroke-linecap="round" stroke-linejoin="round"/>
<path d="M20.5026 16.3333C21.4231 16.3333 22.1693 15.5871 22.1693 14.6667C22.1693 13.7462 21.4231 13 20.5026 13C19.5821 13 18.8359 13.7462 18.8359 14.6667C18.8359 15.5871 19.5821 16.3333 20.5026 16.3333Z" stroke="black" stroke-linecap="round" stroke-linejoin="round"/>
<path d="M13 18.416L13.175 18.6118C13.4983 18.9752 14.045 18.876 14.25 18.416C14.455 17.956 15.0017 17.8568 15.325 18.2202L15.5 18.416M21.2008 22.9993L21.2933 22.7118C21.465 22.1777 21.0617 21.6885 20.5 21.7493C19.9383 21.8102 19.535 21.321 19.7067 20.7868L19.7983 20.4993M23.8408 18.8327H23.8333M15.5075 22.166H15.5M14.6742 14.666H14.6667" stroke="black" stroke-linecap="round" stroke-linejoin="round"/>
</svg>
