<svg width="36" height="36" viewBox="0 0 36 36" fill="none" xmlns="http://www.w3.org/2000/svg">
<rect x="0.5" y="0.5" width="35" height="35" rx="11.5" fill="white" stroke="black"/>
<path d="M11.3346 15.5H14.668M18.8346 21.3333C19.7187 21.3333 20.5665 20.9821 21.1917 20.357C21.8168 19.7319 22.168 18.8841 22.168 18C22.168 17.1159 21.8168 16.2681 21.1917 15.643C20.5665 15.0179 19.7187 14.6667 18.8346 14.6667C18.5536 14.6658 18.2736 14.7006 18.0013 14.77M18.8346 10.5V11.3333M25.5013 18H26.3346M18.8346 24.6667V25.5M24.168 12.6667L23.5846 13.25M23.5846 22.75L24.168 23.3333M11.3346 19.25C10.6992 19.6169 10.2025 20.1832 9.9217 20.8611C9.6409 21.5391 9.59163 22.2907 9.78155 22.9995C9.97147 23.7083 10.39 24.3346 10.9721 24.7813C11.5542 25.228 12.2675 25.4701 13.0013 25.4701C13.7351 25.4701 14.4484 25.228 15.0305 24.7813C15.6127 24.3346 16.0311 23.7083 16.2211 22.9995C16.411 22.2907 16.3617 21.5391 16.0809 20.8611C15.8001 20.1832 15.3034 19.6169 14.668 19.25V12.1667C14.668 11.7246 14.4924 11.3007 14.1798 10.9882C13.8673 10.6756 13.4433 10.5 13.0013 10.5C12.5593 10.5 12.1354 10.6756 11.8228 10.9882C11.5102 11.3007 11.3346 11.7246 11.3346 12.1667V19.25Z" stroke="black" stroke-linecap="round" stroke-linejoin="round"/>
</svg>
