<svg width="36" height="36" viewBox="0 0 36 36" fill="none" xmlns="http://www.w3.org/2000/svg">
<rect x="0.5" y="0.5" width="35" height="35" rx="9.5" fill="white" stroke="black"/>
<path d="M21 18C23.2091 18 25 16.2091 25 14C25 11.7909 23.2091 10 21 10C18.7909 10 17 11.7909 17 14C17 14.4656 17.0795 14.9125 17.2258 15.3281L15.1046 16.3887C14.624 16.1403 14.0784 16 13.5 16C11.567 16 10 17.567 10 19.5C10 21.433 11.567 23 13.5 23C14.7042 23 15.7663 22.3919 16.3961 21.466L19.0856 22.8491C19.0298 23.0566 19 23.2748 19 23.5C19 24.8807 20.1193 26 21.5 26C22.8807 26 24 24.8807 24 23.5C24 22.1193 22.8807 21 21.5 21C20.7023 21 19.9919 21.3736 19.5342 21.9553L16.8344 20.567C16.9419 20.2306 17 19.8721 17 19.5C17 18.5492 16.6209 17.687 16.0056 17.0562L17.6736 16.2222C18.3911 17.2942 19.6131 18 21 18ZM21 17C19.3431 17 18 15.6568 18 14C18 12.3432 19.3431 11 21 11C22.6569 11 24 12.3432 24 14C24 15.6568 22.6569 17 21 17ZM13.5 22C12.1193 22 11 20.8807 11 19.5C11 18.1193 12.1193 17 13.5 17C14.8807 17 16 18.1193 16 19.5C16 20.8807 14.8807 22 13.5 22ZM23 23.5C23 24.3284 22.3284 25 21.5 25C20.6716 25 20 24.3284 20 23.5C20 22.6716 20.6716 22 21.5 22C22.3284 22 23 22.6716 23 23.5Z" fill="black"/>
</svg>
