<svg width="36" height="36" viewBox="0 0 36 36" fill="none" xmlns="http://www.w3.org/2000/svg">
<rect x="0.5" y="0.5" width="35" height="35" rx="11.5" fill="white" stroke="black"/>
<path d="M10.6559 16.125C10.6559 16.0007 10.7053 15.8815 10.7932 15.7935C10.8811 15.7056 11.0003 15.6562 11.1246 15.6562H12.3746C12.499 15.6562 12.6182 15.7056 12.7061 15.7935C12.794 15.8815 12.8434 16.0007 12.8434 16.125C12.8434 16.2493 12.794 16.3685 12.7061 16.4565C12.6182 16.5444 12.499 16.5938 12.3746 16.5938H11.1246C11.0003 16.5938 10.8811 16.5444 10.7932 16.4565C10.7053 16.3685 10.6559 16.2493 10.6559 16.125ZM13.6903 12.4789C13.7336 12.523 13.7853 12.5581 13.8423 12.5822C13.8993 12.6063 13.9605 12.6188 14.0224 12.6191C14.0843 12.6194 14.1456 12.6074 14.2028 12.5839C14.2601 12.5604 14.3121 12.5257 14.3559 12.482C14.3996 12.4383 14.4343 12.3863 14.4579 12.3291C14.4815 12.2719 14.4936 12.2106 14.4933 12.1487C14.4931 12.0868 14.4807 12.0256 14.4567 11.9686C14.4327 11.9116 14.3976 11.8598 14.3535 11.8164L13.4684 10.932C13.379 10.8528 13.2627 10.8107 13.1433 10.8142C13.0239 10.8178 12.9104 10.8669 12.826 10.9513C12.7415 11.0358 12.6925 11.1493 12.6889 11.2687C12.6853 11.3881 12.7274 11.5044 12.8067 11.5938L13.6903 12.4789ZM17.9996 10.9688C18.124 10.9688 18.2432 10.9194 18.3311 10.8315C18.419 10.7435 18.4684 10.6243 18.4684 10.5V9.25C18.4684 9.12568 18.419 9.00645 18.3311 8.91854C18.2432 8.83064 18.124 8.78125 17.9996 8.78125C17.8753 8.78125 17.7561 8.83064 17.6682 8.91854C17.5803 9.00645 17.5309 9.12568 17.5309 9.25V10.5C17.5309 10.6243 17.5803 10.7435 17.6682 10.8315C17.7561 10.9194 17.8753 10.9688 17.9996 10.9688ZM21.977 12.6164C22.0386 12.6165 22.0997 12.6043 22.1567 12.5807C22.2137 12.5571 22.2654 12.5225 22.309 12.4789L23.1926 11.5938C23.2718 11.5044 23.314 11.3881 23.3104 11.2687C23.3068 11.1493 23.2578 11.0358 23.1733 10.9513C23.0888 10.8669 22.9753 10.8178 22.8559 10.8142C22.7365 10.8107 22.6203 10.8528 22.5309 10.932L21.6457 11.8164C21.5803 11.882 21.5357 11.9654 21.5176 12.0563C21.4996 12.1472 21.5089 12.2414 21.5443 12.327C21.5797 12.4126 21.6398 12.4858 21.7168 12.5373C21.7938 12.5888 21.8843 12.6163 21.977 12.6164ZM23.1559 16.125C23.1559 16.2493 23.2053 16.3685 23.2932 16.4565C23.3811 16.5444 23.5003 16.5938 23.6246 16.5938H24.8746C24.999 16.5938 25.1182 16.5444 25.2061 16.4565C25.294 16.3685 25.3434 16.2493 25.3434 16.125C25.3434 16.0007 25.294 15.8815 25.2061 15.7935C25.1182 15.7056 24.999 15.6562 24.8746 15.6562H23.6246C23.5003 15.6562 23.3811 15.7056 23.2932 15.7935C23.2053 15.8815 23.1559 16.0007 23.1559 16.125ZM14.8746 16.5938C14.999 16.5938 15.1182 16.5444 15.2061 16.4565C15.294 16.3685 15.3434 16.2493 15.3434 16.125C15.3434 15.4205 15.6232 14.7449 16.1214 14.2467C16.6195 13.7486 17.2952 13.4688 17.9996 13.4688C18.7041 13.4688 19.3797 13.7486 19.8779 14.2467C20.376 14.7449 20.6559 15.4205 20.6559 16.125C20.6559 16.2493 20.7053 16.3685 20.7932 16.4565C20.8811 16.5444 21.0003 16.5938 21.1246 16.5938C21.249 16.5938 21.3682 16.5444 21.4561 16.4565C21.544 16.3685 21.5934 16.2493 21.5934 16.125C21.5934 15.1719 21.2148 14.2578 20.5408 13.5838C19.8668 12.9099 18.9528 12.5312 17.9996 12.5312C17.0465 12.5312 16.1324 12.9099 15.4585 13.5838C14.7845 14.2578 14.4059 15.1719 14.4059 16.125C14.4059 16.2493 14.4553 16.3685 14.5432 16.4565C14.6311 16.5444 14.7503 16.5938 14.8746 16.5938ZM26.5293 25.1094C26.4883 25.1804 26.4293 25.2395 26.3583 25.2806C26.2873 25.3218 26.2067 25.3435 26.1246 25.3438H9.87463C9.79276 25.3437 9.71234 25.3222 9.64136 25.2814C9.57038 25.2406 9.51133 25.1819 9.47009 25.1112C9.42884 25.0404 9.40683 24.9601 9.40626 24.8783C9.40569 24.7964 9.42657 24.7158 9.46682 24.6445L12.6457 19.0195C12.6866 18.9472 12.746 18.8869 12.8178 18.8451C12.8896 18.8032 12.9712 18.7812 13.0543 18.7812H22.9449C23.0281 18.7812 23.1097 18.8032 23.1815 18.8451C23.2533 18.8869 23.3127 18.9472 23.3535 19.0195L26.5324 24.6445C26.5724 24.7156 26.5931 24.7958 26.5926 24.8774C26.592 24.9589 26.5702 25.0389 26.5293 25.1094ZM22.6715 19.7188H20.484L20.8239 21.2812H23.5582L22.6715 19.7188ZM19.8637 21.2812L19.5239 19.7188H16.477L16.1371 21.2812H19.8637ZM15.9317 22.2188L15.4559 24.4062H20.5434L20.0676 22.2188H15.9317ZM12.4442 21.2812H15.1785L15.5184 19.7188H13.3309L12.4442 21.2812ZM10.6778 24.4062H14.4965L14.9723 22.2188H11.9145L10.6778 24.4062ZM25.3215 24.4062L24.0848 22.2188H21.027L21.5028 24.4062H25.3215Z" fill="black"/>
</svg>
