<svg width="36" height="36" viewBox="0 0 36 36" fill="none" xmlns="http://www.w3.org/2000/svg">
<rect x="0.5" y="0.5" width="35" height="35" rx="11.5" fill="white" stroke="black"/>
<path d="M22.7157 13.9797C22.773 14.3099 22.9198 14.6181 23.1401 14.8707C23.3604 15.1233 23.6459 15.3105 23.9653 15.412C24.2847 15.5136 24.6259 15.5255 24.9516 15.4465C25.2773 15.3675 25.5751 15.2006 25.8126 14.9641C25.9828 14.794 26.1177 14.5921 26.2099 14.3698C26.302 14.1476 26.3494 13.9093 26.3494 13.6688C26.3494 13.4282 26.302 13.1899 26.2099 12.9677C26.1177 12.7454 25.9828 12.5435 25.8126 12.3734C25.5754 12.1369 25.2778 11.97 24.9523 11.8908C24.6268 11.8117 24.2858 11.8233 23.9664 11.9245C23.6471 12.0257 23.3616 12.2125 23.1411 12.4647C22.9206 12.7169 22.7734 13.0247 22.7157 13.3547H20.5001C20.445 13.3545 20.3909 13.3688 20.3431 13.3962C20.2954 13.4237 20.2557 13.4632 20.2282 13.5109L19.0688 15.5203H16.7501C16.695 15.5201 16.6409 15.5344 16.5931 15.5619C16.5454 15.5893 16.5057 15.6289 16.4782 15.6766L15.3188 17.6859H13.1813L12.1095 15.8328L13.272 13.8234C13.2994 13.7759 13.3138 13.722 13.3138 13.6672C13.3138 13.6123 13.2994 13.5584 13.272 13.5109L13.0157 13.0672L13.0438 13.0422C13.3416 12.7431 13.5264 12.35 13.567 11.93C13.6075 11.5099 13.5012 11.0887 13.2661 10.7382C13.0311 10.3877 12.6818 10.1295 12.2778 10.0075C11.8738 9.88559 11.4399 9.90743 11.0502 10.0694C10.6605 10.2313 10.3389 10.5233 10.1402 10.8956C9.94159 11.2679 9.87811 11.6976 9.96063 12.1115C10.0431 12.5254 10.2666 12.8979 10.5928 13.1656C10.9191 13.4333 11.3281 13.5796 11.7501 13.5797C12.0065 13.577 12.2596 13.5216 12.4938 13.4172L12.6376 13.6672L11.4782 15.6766C11.4508 15.7241 11.4363 15.778 11.4363 15.8328C11.4363 15.8877 11.4508 15.9416 11.4782 15.9891L12.7282 18.1547C12.7557 18.2024 12.7954 18.2419 12.8431 18.2694C12.8909 18.2968 12.945 18.3112 13.0001 18.3109H15.3188L16.3907 20.1641L15.3188 22.0172H12.7688C12.6906 21.5637 12.445 21.1561 12.0807 20.875C11.7163 20.5938 11.2598 20.4596 10.8013 20.4989C10.3428 20.5382 9.91569 20.7481 9.60449 21.0871C9.29328 21.4261 9.12061 21.8695 9.12061 22.3297C9.12061 22.7899 9.29328 23.2333 9.60449 23.5723C9.91569 23.9113 10.3428 24.1212 10.8013 24.1605C11.2598 24.1998 11.7163 24.0656 12.0807 23.7844C12.445 23.5033 12.6906 23.0957 12.7688 22.6422H15.3188L16.4782 24.6484C16.5057 24.6961 16.5454 24.7357 16.5931 24.7631C16.6409 24.7906 16.695 24.8049 16.7501 24.8047H19.2501C19.3051 24.8049 19.3593 24.7906 19.407 24.7631C19.4548 24.7357 19.4944 24.6961 19.522 24.6484L20.6813 22.6422H23.0001C23.0551 22.6424 23.1093 22.6281 23.157 22.6006C23.2048 22.5732 23.2444 22.5336 23.272 22.4859L24.522 20.3203C24.5494 20.2728 24.5638 20.2189 24.5638 20.1641C24.5638 20.1092 24.5494 20.0553 24.522 20.0078L23.272 17.8422C23.2444 17.7945 23.2048 17.7549 23.157 17.7275C23.1093 17.7001 23.0551 17.6857 23.0001 17.6859H20.6813L19.6095 15.8328L20.6813 13.9797H22.7157ZM23.6532 12.8141C23.8795 12.5878 24.1863 12.4607 24.5063 12.4607C24.8263 12.4607 25.1332 12.5878 25.3595 12.8141C25.5857 13.0403 25.7128 13.3472 25.7128 13.6672C25.7128 13.9872 25.5857 14.2941 25.3595 14.5203C25.128 14.7365 24.8231 14.8567 24.5063 14.8567C24.1896 14.8567 23.8847 14.7365 23.6532 14.5203C23.5411 14.4083 23.4522 14.2753 23.3916 14.1289C23.3309 13.9825 23.2997 13.8256 23.2997 13.6672C23.2997 13.5087 23.3309 13.3518 23.3916 13.2055C23.4522 13.0591 23.5411 12.9261 23.6532 12.8141ZM10.897 12.6016C10.7283 12.4328 10.6135 12.2179 10.567 11.9839C10.5205 11.75 10.5444 11.5074 10.6357 11.2871C10.727 11.0667 10.8816 10.8783 11.08 10.7458C11.2783 10.6133 11.5115 10.5425 11.7501 10.5425C11.9886 10.5425 12.2218 10.6133 12.4202 10.7458C12.6185 10.8783 12.7732 11.0667 12.8645 11.2871C12.9558 11.5074 12.9797 11.75 12.9332 11.9839C12.8867 12.2179 12.7719 12.4328 12.6032 12.6016C12.3766 12.8271 12.0698 12.9538 11.7501 12.9538C11.4303 12.9538 11.1236 12.8271 10.897 12.6016ZM11.8345 23.1828C11.6082 23.4091 11.3013 23.5362 10.9813 23.5362C10.6614 23.5362 10.3545 23.4091 10.1282 23.1828C9.90195 22.9566 9.77484 22.6497 9.77484 22.3297C9.77484 22.0097 9.90195 21.7028 10.1282 21.4766C10.2402 21.3645 10.3732 21.2756 10.5196 21.215C10.666 21.1543 10.8229 21.1231 10.9813 21.1231C11.1398 21.1231 11.2967 21.1543 11.4431 21.215C11.5894 21.2756 11.7224 21.3645 11.8345 21.4766C12.0584 21.7048 12.1828 22.0125 12.1804 22.3323C12.1781 22.652 12.0492 22.9578 11.822 23.1828H11.8345ZM19.0813 24.1797H16.9313L15.8595 22.3297L16.9313 20.4766H19.0688L20.1407 22.3297L19.0813 24.1797ZM22.8188 18.3109L23.8907 20.1641L22.8188 22.0172H20.6813L19.6095 20.1641L20.6813 18.3109H22.8188ZM19.0688 19.8516H16.9313L15.8595 17.9984L16.9313 16.1453H19.0688L20.1407 17.9984L19.0688 19.8516Z" fill="black" stroke="black" stroke-width="0.3"/>
</svg>
