<svg width="20" height="20" viewBox="0 0 20 20" fill="none" xmlns="http://www.w3.org/2000/svg">
<path d="M3.33464 7.5H6.66797M10.8346 13.3333C11.7187 13.3333 12.5665 12.9821 13.1917 12.357C13.8168 11.7319 14.168 10.8841 14.168 10C14.168 9.11594 13.8168 8.2681 13.1917 7.64298C12.5665 7.01786 11.7187 6.66667 10.8346 6.66667C10.5536 6.66585 10.2736 6.70056 10.0013 6.77M10.8346 2.5V3.33333M17.5013 10H18.3346M10.8346 16.6667V17.5M16.168 4.66667L15.5846 5.25M15.5846 14.75L16.168 15.3333M3.33464 11.25C2.69916 11.6169 2.20251 12.1832 1.9217 12.8611C1.6409 13.5391 1.59163 14.2907 1.78155 14.9995C1.97147 15.7083 2.38995 16.3346 2.9721 16.7813C3.55425 17.228 4.26752 17.4701 5.0013 17.4701C5.73508 17.4701 6.44836 17.228 7.03051 16.7813C7.61265 16.3346 8.03114 15.7083 8.22106 14.9995C8.41097 14.2907 8.36171 13.5391 8.0809 12.8611C7.8001 12.1832 7.30344 11.6169 6.66797 11.25V4.16667C6.66797 3.72464 6.49238 3.30072 6.17981 2.98816C5.86725 2.67559 5.44333 2.5 5.0013 2.5C4.55928 2.5 4.13535 2.67559 3.82279 2.98816C3.51023 3.30072 3.33464 3.72464 3.33464 4.16667V11.25Z" stroke="black" stroke-linecap="round" stroke-linejoin="round"/>
</svg>
