<svg width="20" height="20" viewBox="0 0 20 20" fill="none" xmlns="http://www.w3.org/2000/svg">
<path d="M2.5 10H3.33333M16.6667 10H17.5M4.66667 4.66667L5.25 5.25M15.3333 4.66667L14.75 5.25M6.66667 10C6.66667 9.11594 7.01786 8.2681 7.64298 7.64298C8.2681 7.01786 9.11594 6.66667 10 6.66667C10.8841 6.66667 11.7319 7.01786 12.357 7.64298C12.9821 8.2681 13.3333 9.11594 13.3333 10M10 3.33333V2.5M10.8333 13.3333L12.5 17.5H13.3333L15 13.3333M5 13.3333V15.8333C5 16.2754 5.17559 16.6993 5.48816 17.0118C5.80072 17.3244 6.22464 17.5 6.66667 17.5C7.10869 17.5 7.53262 17.3244 7.84518 17.0118C8.15774 16.6993 8.33333 16.2754 8.33333 15.8333V13.3333" stroke="black" stroke-linecap="round" stroke-linejoin="round"/>
</svg>
