<svg width="36" height="36" viewBox="0 0 36 36" fill="none" xmlns="http://www.w3.org/2000/svg">
<rect x="0.5" y="0.5" width="35" height="35" rx="11.5" fill="white" stroke="black"/>
<g clip-path="url(#clip0_83_12)">
<path d="M12.55 21C12.25 21 12.05 20.8 12.05 20.5C12.05 20.2 12.25 20 12.55 20C13.55 20 14.55 19.6 15.25 18.9C15.45 18.7 15.75 18.7 15.95 18.9C16.15 19.1 16.15 19.4 15.95 19.6C15.05 20.5 13.8 21 12.55 21Z" fill="black"/>
<path d="M18 8C12.5 8 8 12.5 8 18C8 23.5 12.5 28 18 28C23.5 28 28 23.5 28 18C28 12.5 23.5 8 18 8ZM18 27C13.05 27 9 22.95 9 18C9 13.05 13.05 9 18 9C22.95 9 27 13.05 27 18C27 22.95 22.95 27 18 27Z" fill="black"/>
<path d="M23.9 20.9008L22.5 22.3008C22.4 22.4008 22.25 22.4508 22.15 22.4508C22 22.4508 21.9 22.4008 21.8 22.3008C21.6 22.1008 21.6 21.8008 21.8 21.6008L22.35 21.0508H21.2C19.9 21.0508 18.7 20.5508 17.8 19.6508L15.3 17.1508C14.6 16.4508 13.6 16.0508 12.6 16.0508C12.3 16.0508 12.1 15.8508 12.1 15.5508C12.1 15.2508 12.3 15.0508 12.6 15.0508C13.85 15.0508 15.1 15.5508 16 16.4508L18.5 18.9508C19.25 19.6508 20.2 20.0508 21.2 20.0508H22.35L21.8 19.5008C21.6 19.3008 21.6 19.0008 21.8 18.8008C22 18.6008 22.3 18.6008 22.5 18.8008L23.9 20.2008C24.1 20.3508 24.1 20.7008 23.9 20.9008Z" fill="black"/>
<path d="M23.9 15.8516L22.5 17.2516C22.4 17.3516 22.25 17.4016 22.15 17.4016C22 17.4016 21.9 17.3516 21.8 17.2516C21.6 17.0516 21.6 16.7516 21.8 16.5516L22.35 16.0016H21.2C20.2 16.0016 19.2 16.4016 18.5 17.1016C18.4 17.2016 18.25 17.2516 18.15 17.2516C18 17.2516 17.9 17.2016 17.8 17.1016C17.6 16.9016 17.6 16.6016 17.8 16.4016C18.7 15.5016 19.9 15.0016 21.2 15.0016H22.35L21.8 14.4516C21.6 14.2516 21.6 13.9516 21.8 13.7516C22 13.5516 22.3 13.5516 22.5 13.7516L23.9 15.1516C24.1 15.3016 24.1 15.6516 23.9 15.8516Z" fill="black"/>
</g>
<defs>
<clipPath id="clip0_83_12">
<rect width="20" height="20" fill="white" transform="translate(8 8)"/>
</clipPath>
</defs>
</svg>
