<svg width="36" height="36" viewBox="0 0 36 36" fill="none" xmlns="http://www.w3.org/2000/svg">
<rect x="0.5" y="0.5" width="35" height="35" rx="11.5" fill="white" stroke="black"/>
<path d="M10.5 18H11.3333M24.6667 18H25.5M12.6667 12.6667L13.25 13.25M23.3333 12.6667L22.75 13.25M14.6667 18C14.6667 17.1159 15.0179 16.2681 15.643 15.643C16.2681 15.0179 17.1159 14.6667 18 14.6667C18.8841 14.6667 19.7319 15.0179 20.357 15.643C20.9821 16.2681 21.3333 17.1159 21.3333 18M18 11.3333V10.5M18.8333 21.3333L20.5 25.5H21.3333L23 21.3333M13 21.3333V23.8333C13 24.2754 13.1756 24.6993 13.4882 25.0118C13.8007 25.3244 14.2246 25.5 14.6667 25.5C15.1087 25.5 15.5326 25.3244 15.8452 25.0118C16.1577 24.6993 16.3333 24.2754 16.3333 23.8333V21.3333" stroke="black" stroke-linecap="round" stroke-linejoin="round"/>
</svg>
