<svg width="36" height="36" viewBox="0 0 36 36" fill="none" xmlns="http://www.w3.org/2000/svg">
<rect x="0.5" y="0.5" width="35" height="35" rx="11.5" fill="white" stroke="black"/>
<path d="M22.1641 10.0259C20.4297 10.2641 19.2657 11.4673 19.0547 13.2446C18.9297 14.2954 19.3203 15.4087 20.0899 16.1743C20.8594 16.9438 21.9805 17.3344 23.0625 17.2094C24.8203 17.0063 26.1758 15.5844 26.2696 13.8462C26.3594 12.186 25.4258 10.7251 23.9375 10.2094C23.4258 10.0337 22.6797 9.95554 22.1641 10.0259ZM23.336 10.686C24.4961 10.9634 25.3633 11.8618 25.6016 13.0298C25.7266 13.6509 25.6289 14.3266 25.3242 14.9634C25.0391 15.5571 24.6367 15.9555 24.0352 16.2524C23.5821 16.479 23.3086 16.5493 22.8008 16.5727C21.3985 16.643 20.2032 15.8188 19.8008 14.5024C19.5977 13.8384 19.6094 13.2134 19.836 12.5923C20.3594 11.1626 21.875 10.3344 23.336 10.686Z" fill="black" stroke="black" stroke-width="0.2"/>
<path d="M22.0038 11.2285C21.4686 11.3926 21.2382 11.5762 21.3046 11.7949C21.3163 11.8379 22.0155 12.5684 22.8554 13.4082C24.2577 14.8145 24.3983 14.9434 24.5155 14.9434C24.5858 14.9434 24.6757 14.9277 24.7147 14.9043C24.8007 14.8613 24.9686 14.4902 25.0546 14.1621C25.1444 13.8145 25.1171 13.1777 24.996 12.834C24.7499 12.127 24.1952 11.5605 23.4843 11.2832C23.121 11.1465 22.3671 11.1152 22.0038 11.2285ZM23.1601 11.8418C24.0429 12.0996 24.6366 13.0723 24.4608 13.9668L24.4335 14.0918L23.3046 12.9629C22.0468 11.7051 22.0936 11.791 22.6522 11.7832C22.8163 11.7793 23.039 11.8066 23.1601 11.8418Z" fill="black" stroke="black" stroke-width="0.2"/>
<path d="M20.5938 12.3023C20.5508 12.3335 20.4649 12.4663 20.4063 12.5952C19.8008 13.9468 20.5586 15.5523 22.004 15.9819C22.168 16.0327 22.3672 16.0523 22.668 16.0483C23.0313 16.0483 23.1446 16.0327 23.4102 15.9429C23.9258 15.7671 24.0625 15.6421 24 15.3999C23.9883 15.353 23.2891 14.6226 22.4454 13.7788C21.1055 12.4468 20.8946 12.2476 20.7891 12.2476C20.7266 12.2476 20.6368 12.271 20.5938 12.3023ZM23.0938 15.3765C23.086 15.3921 22.9649 15.4155 22.8282 15.4312C22.1563 15.5054 21.4141 15.103 21.0547 14.4741C20.8907 14.189 20.7969 13.7554 20.8282 13.4507C20.8399 13.3218 20.8633 13.2007 20.875 13.1773C20.8907 13.1538 21.3985 13.6343 22.0079 14.2437C22.6133 14.8491 23.1055 15.3608 23.0938 15.3765Z" fill="black" stroke="black" stroke-width="0.2"/>
<path d="M15.2383 13.1148C15.0156 13.3023 14.8086 13.5445 14.4297 14.0406C14.1445 14.4156 14.0938 14.5054 14.0938 14.6304C14.0938 14.7476 14.1172 14.7984 14.1953 14.8609C14.4141 15.0328 14.5273 14.9664 14.9102 14.4586C15.0625 14.2554 15.2617 14.0054 15.3594 13.9039C15.5625 13.6773 15.5352 13.6656 15.9453 14.1773C17.0898 15.6109 18.043 17.3922 18.4375 18.8375C18.5625 19.2906 18.5664 19.3101 18.5625 20.1382C18.5625 20.9195 18.5547 21.0054 18.457 21.3648C18.1211 22.6226 17.3867 23.2086 15.9805 23.3453C15.6602 23.3765 15.418 23.3765 15.0977 23.3453C13.6914 23.2086 12.957 22.6226 12.6211 21.3648C12.5273 21.0054 12.5156 20.9156 12.5156 20.1578C12.5117 19.3765 12.5156 19.3179 12.625 18.9078C12.832 18.107 13.1523 17.3257 13.6484 16.4195C13.957 15.8492 13.9961 15.7047 13.8555 15.564C13.7969 15.5054 13.7383 15.4898 13.6133 15.4976C13.4258 15.5093 13.3711 15.5757 13.0312 16.2164C11.9805 18.1773 11.625 19.9312 11.9805 21.3961L12.0508 21.7007H11.2617C10.5078 21.7007 10.4688 21.7047 10.3477 21.7867C10.2656 21.8453 9.83984 22.4625 9.11328 23.5757L8 25.275V25.4976C8 25.6929 8.01563 25.7398 8.12109 25.8609C8.19141 25.939 8.30469 26.0132 8.39062 26.0367C8.48828 26.064 10.9688 26.0718 15.8711 26.0679L23.2031 26.0562L23.2773 25.9625C23.3633 25.857 23.375 25.6539 23.2969 25.5445C23.2422 25.4703 23.1094 25.4703 15.9531 25.4507L8.66406 25.4312L9.67188 23.8882L10.6797 22.3453L11.4844 22.3336L12.2891 22.3257L12.4141 22.5289C12.7148 23.0211 13.1367 23.4 13.6445 23.6343C14.6484 24.1031 16.4336 24.1031 17.4258 23.6422C17.9453 23.4 18.3594 23.025 18.6641 22.5289L18.7891 22.3257L22.0547 22.3336L25.3203 22.3453L26.3281 23.8882L27.3359 25.4312L25.7773 25.4507C24.3594 25.4703 24.207 25.4781 24.1445 25.5367C24.0469 25.6343 24.0586 25.8609 24.1641 25.9703C24.25 26.0562 24.2578 26.0562 25.8555 26.0679C26.8828 26.0757 27.5078 26.064 27.6055 26.0367C27.6953 26.0132 27.8086 25.9429 27.8789 25.8609C27.9844 25.7398 28 25.6929 28 25.4976V25.275L26.8906 23.5757C26.1641 22.4625 25.7344 21.8453 25.6523 21.7867L25.5273 21.7007H22.2773H19.0273L19.1055 21.3961C19.1719 21.1422 19.1836 20.9664 19.1875 20.2359C19.1914 19.4781 19.1797 19.3257 19.1016 18.9468C18.9805 18.3882 18.7266 17.6226 18.4609 17.0328C17.9063 15.8062 16.7734 14.0757 16.0273 13.3101C15.7344 13.0132 15.7031 12.9898 15.5508 12.9898C15.4258 12.9898 15.3555 13.0172 15.2383 13.1148Z" fill="black" stroke="black" stroke-width="0.2"/>
<path d="M11.2071 22.8967C11.1134 23.0139 11.1056 23.0998 11.1681 23.2405C11.2306 23.3733 11.4259 23.4319 11.7228 23.4123C11.9923 23.3928 12.1017 23.2991 12.1017 23.092C12.1017 22.8694 11.9767 22.7952 11.6056 22.7952C11.3087 22.7952 11.2814 22.803 11.2071 22.8967Z" fill="black" stroke="black" stroke-width="0.2"/>
<path d="M18.8634 22.8967C18.7696 23.0139 18.7618 23.0998 18.8243 23.2405C18.8868 23.3733 19.0821 23.4319 19.379 23.4123C19.6485 23.3928 19.7579 23.2991 19.7579 23.092C19.7579 22.8694 19.6329 22.7952 19.2618 22.7952C18.9649 22.7952 18.9376 22.803 18.8634 22.8967Z" fill="black" stroke="black" stroke-width="0.2"/>
<path d="M21.4375 22.873C21.3282 22.9824 21.3321 23.2246 21.4414 23.3262C21.5078 23.3848 21.5821 23.4004 21.8282 23.4004C22.1992 23.4004 22.2969 23.3379 22.2969 23.0996C22.2969 22.8574 22.2032 22.7949 21.8282 22.7949C21.5664 22.7949 21.5039 22.8066 21.4375 22.873Z" fill="black" stroke="black" stroke-width="0.2"/>
<path d="M23.9766 22.8811C23.8789 22.9866 23.875 23.1858 23.9727 23.3069C24.0274 23.3772 24.0938 23.3967 24.2774 23.4123C24.5742 23.4319 24.7696 23.3733 24.8321 23.2405C24.8946 23.0998 24.8867 23.0139 24.793 22.8967C24.7188 22.803 24.6914 22.7952 24.3867 22.7952C24.0977 22.7952 24.0469 22.8069 23.9766 22.8811Z" fill="black" stroke="black" stroke-width="0.2"/>
<path d="M12.4375 24.166C12.3594 24.2285 12.3359 24.2793 12.3359 24.4004C12.3359 24.6387 12.4336 24.709 12.7695 24.709C12.9219 24.709 13.0781 24.6895 13.1211 24.666C13.3086 24.5684 13.2891 24.2168 13.0938 24.127C12.9258 24.0527 12.5586 24.0723 12.4375 24.166Z" fill="black" stroke="black" stroke-width="0.2"/>
<path d="M15.082 24.1309C14.9687 24.1855 14.8984 24.3926 14.9491 24.5254C15.0038 24.6699 15.1054 24.709 15.4179 24.709C15.7538 24.709 15.8515 24.6387 15.8515 24.4004C15.8515 24.1738 15.7226 24.084 15.4062 24.0879C15.2773 24.0879 15.1288 24.1074 15.082 24.1309Z" fill="black" stroke="black" stroke-width="0.2"/>
<path d="M17.6993 24.123C17.5236 24.1973 17.4806 24.4355 17.6134 24.6074C17.6876 24.7012 17.715 24.709 18.0001 24.709C18.2853 24.709 18.3126 24.7012 18.3868 24.6074C18.4884 24.4785 18.4923 24.3145 18.3946 24.1973C18.3321 24.1191 18.2814 24.1035 18.0548 24.0957C17.9064 24.0879 17.7462 24.0996 17.6993 24.123Z" fill="black" stroke="black" stroke-width="0.2"/>
<path d="M20.25 24.166C20.1719 24.2285 20.1484 24.2793 20.1484 24.4004C20.1484 24.6387 20.2461 24.709 20.582 24.709C20.7344 24.709 20.8906 24.6895 20.9336 24.666C21.1211 24.5684 21.1016 24.2168 20.9062 24.127C20.7383 24.0527 20.3711 24.0723 20.25 24.166Z" fill="black" stroke="black" stroke-width="0.2"/>
<path d="M22.8946 24.1309C22.7852 24.1816 22.7149 24.3574 22.7501 24.4902C22.7892 24.6543 22.9063 24.709 23.2227 24.709C23.5704 24.709 23.6642 24.6426 23.6642 24.4004C23.6642 24.1738 23.5352 24.084 23.2188 24.0879C23.0899 24.0879 22.9415 24.1074 22.8946 24.1309Z" fill="black" stroke="black" stroke-width="0.2"/>
</svg>
